M48
; DRILL file {KiCad (5.1.2)-2} date 06/12/2021 22:39:12
; FORMAT={-:-/ absolute / metric / decimal}
; #@! TF.CreationDate,2021-12-06T22:39:12-05:00
; #@! TF.GenerationSoftware,Kicad,Pcbnew,(5.1.2)-2
; #@! TF.FileFunction,Plated,1,2,PTH
FMAT,2
METRIC
T1C0.400
T2C0.800
T3C0.900
T4C1.000
T5C2.200
%
G90
G05
T1
X100.0Y-83.7
X100.0Y-84.97
X100.0Y-86.24
X100.0Y-87.51
X100.0Y-88.78
X100.0Y-90.05
X100.0Y-91.32
X100.0Y-92.59
X100.0Y-93.86
X100.0Y-95.13
X100.0Y-96.4
X100.0Y-97.67
X100.0Y-98.94
X100.0Y-100.21
X100.0Y-101.48
X100.0Y-102.75
X100.0Y-104.02
X100.0Y-105.29
X100.0Y-106.56
X100.0Y-107.83
X100.0Y-109.1
X100.0Y-110.37
X100.0Y-111.64
X100.0Y-112.91
X100.0Y-114.18
X100.0Y-115.45
X100.0Y-116.72
X101.27Y-83.7
X101.27Y-84.97
X101.27Y-86.24
X101.27Y-87.51
X101.27Y-88.78
X101.27Y-90.05
X101.27Y-91.32
X101.27Y-110.37
X101.27Y-111.64
X101.27Y-112.91
X101.27Y-114.18
X101.27Y-115.45
X101.27Y-116.72
X105.08Y-63.9
X105.08Y-120.7
X105.08Y-121.97
X106.35Y-63.9
X106.35Y-65.17
X106.35Y-120.7
X106.35Y-121.97
X107.5Y-106.1
X107.62Y-63.9
X107.62Y-65.17
X107.62Y-120.7
X107.62Y-121.97
X108.89Y-63.9
X108.89Y-65.17
X108.89Y-120.7
X108.89Y-121.97
X108.9Y-91.6
X110.16Y-63.9
X110.16Y-65.17
X110.16Y-120.7
X110.16Y-121.97
X110.2Y-106.1
X110.2Y-107.37
X110.8Y-70.9
X110.8Y-72.17
X110.8Y-73.44
X110.8Y-74.71
X111.2Y-89.5
X111.43Y-63.9
X111.43Y-65.17
X111.43Y-120.7
X111.43Y-121.97
X111.47Y-106.1
X111.47Y-107.37
X112.07Y-70.9
X112.07Y-72.17
X112.07Y-73.44
X112.07Y-74.71
X112.5Y-79.5
X112.7Y-63.9
X112.7Y-65.17
X112.7Y-120.7
X112.7Y-121.97
X112.74Y-106.1
X112.74Y-107.37
X113.1Y-113.8
X113.34Y-70.9
X113.34Y-72.17
X113.34Y-73.44
X113.34Y-74.71
X113.97Y-63.9
X113.97Y-65.17
X113.97Y-120.7
X113.97Y-121.97
X114.01Y-106.1
X114.01Y-107.37
X114.2Y-92.6
X114.2Y-93.87
X114.2Y-95.14
X114.2Y-96.41
X114.2Y-97.68
X114.2Y-98.95
X114.2Y-100.22
X114.2Y-101.49
X114.5Y-113.8
X114.5Y-115.07
X114.61Y-70.9
X114.61Y-72.17
X114.61Y-73.44
X114.61Y-74.71
X115.24Y-63.9
X115.24Y-65.17
X115.24Y-120.7
X115.24Y-121.97
X115.28Y-106.1
X115.28Y-107.37
X115.47Y-92.6
X115.47Y-93.87
X115.47Y-95.14
X115.47Y-96.41
X115.47Y-97.68
X115.47Y-98.95
X115.47Y-100.22
X115.47Y-101.49
X115.77Y-113.8
X115.77Y-115.07
X116.51Y-63.9
X116.51Y-65.17
X116.51Y-120.7
X116.51Y-121.97
X116.55Y-106.1
X116.55Y-107.37
X116.74Y-92.6
X116.74Y-93.87
X116.74Y-95.14
X116.74Y-96.41
X116.74Y-97.68
X116.74Y-98.95
X116.74Y-100.22
X116.74Y-101.49
X117.04Y-113.8
X117.04Y-115.07
X117.78Y-63.9
X117.78Y-65.17
X117.78Y-120.7
X117.78Y-121.97
X117.82Y-106.1
X117.82Y-107.37
X118.31Y-113.8
X118.31Y-115.07
X119.05Y-63.9
X119.05Y-65.17
X119.05Y-120.7
X119.05Y-121.97
X119.58Y-113.8
X119.58Y-115.07
X119.8Y-69.2
X120.32Y-63.9
X120.32Y-65.17
X120.32Y-120.7
X120.32Y-121.97
X120.85Y-113.8
X120.85Y-115.07
X121.59Y-63.9
X121.59Y-65.17
X121.59Y-120.7
X121.59Y-121.97
X121.66Y-101.96
X122.12Y-113.8
X122.12Y-115.07
X122.86Y-63.9
X122.86Y-65.17
X122.86Y-120.7
X122.86Y-121.97
X122.9Y-81.0
X123.3Y-82.2
X123.4Y-105.2
X123.45Y-113.8
X123.45Y-115.07
X123.6Y-79.0
X124.0Y-101.2
X124.1Y-96.9
X124.13Y-120.7
X124.13Y-121.97
X124.2Y-85.8
X124.2Y-87.07
X124.2Y-88.34
X124.2Y-89.61
X124.72Y-113.8
X124.72Y-115.07
X125.1Y-76.4
X125.2Y-82.8
X125.2Y-103.5
X125.38Y-119.47
X125.4Y-120.7
X125.4Y-121.97
X126.65Y-118.2
X126.65Y-119.47
X126.67Y-120.7
X126.67Y-121.97
X127.92Y-116.97
X127.92Y-118.2
X127.92Y-119.47
X127.94Y-120.7
X127.94Y-121.97
X128.1Y-95.5
X128.2Y-82.8
X128.6Y-70.2
X128.9Y-108.3
X129.19Y-115.7
X129.19Y-116.97
X129.19Y-118.2
X129.19Y-119.47
X129.21Y-120.7
X129.21Y-121.97
X130.46Y-115.7
X130.46Y-116.97
X130.46Y-118.2
X130.46Y-119.47
X130.48Y-120.7
X130.48Y-121.97
X131.2Y-82.8
X131.2Y-88.9
X131.2Y-90.17
X131.2Y-91.44
X131.2Y-92.71
X131.2Y-93.98
X131.2Y-95.25
X131.2Y-96.52
X131.2Y-97.79
X131.2Y-99.06
X131.2Y-100.33
X131.2Y-101.6
X131.2Y-102.87
X131.2Y-104.14
X131.2Y-105.41
X131.2Y-106.68
X131.2Y-107.95
X131.2Y-109.22
X131.2Y-110.49
X131.73Y-115.7
X131.73Y-116.97
X131.73Y-118.2
X131.73Y-119.47
X131.75Y-120.7
X131.75Y-121.97
X132.2Y-79.2
X132.47Y-88.9
X132.47Y-90.17
X132.47Y-91.44
X132.47Y-92.71
X132.47Y-93.98
X132.47Y-95.25
X132.47Y-96.52
X132.47Y-97.79
X132.47Y-99.06
X132.47Y-100.33
X132.47Y-101.6
X132.47Y-102.87
X132.47Y-104.14
X132.47Y-105.41
X132.47Y-106.68
X132.47Y-107.95
X132.47Y-109.22
X132.47Y-110.49
X132.5Y-82.8
X133.02Y-120.7
X133.02Y-121.97
X133.74Y-88.9
X133.74Y-90.17
X133.74Y-91.44
X133.74Y-92.71
X133.74Y-93.98
X133.74Y-95.25
X133.74Y-96.52
X133.74Y-97.79
X133.74Y-99.06
X133.74Y-100.33
X133.74Y-101.6
X133.74Y-102.87
X133.74Y-104.14
X133.74Y-105.41
X133.74Y-106.68
X133.74Y-107.95
X133.74Y-109.22
X133.74Y-110.49
X133.8Y-82.8
X134.29Y-120.7
X134.29Y-121.97
X135.01Y-88.9
X135.01Y-90.17
X135.01Y-91.44
X135.01Y-92.71
X135.01Y-93.98
X135.01Y-95.25
X135.01Y-96.52
X135.01Y-97.79
X135.01Y-99.06
X135.01Y-100.33
X135.01Y-101.6
X135.01Y-102.87
X135.01Y-104.14
X135.01Y-105.41
X135.01Y-106.68
X135.01Y-107.95
X135.01Y-109.22
X135.01Y-110.49
X135.56Y-120.7
X135.56Y-121.97
X135.9Y-82.5
X136.28Y-88.9
X136.28Y-90.17
X136.28Y-91.44
X136.28Y-92.71
X136.28Y-93.98
X136.28Y-95.25
X136.28Y-96.52
X136.28Y-97.79
X136.28Y-99.06
X136.28Y-100.33
X136.28Y-101.6
X136.28Y-102.87
X136.28Y-104.14
X136.28Y-105.41
X136.28Y-106.68
X136.28Y-107.95
X136.28Y-109.22
X136.28Y-110.49
X136.83Y-120.7
X136.83Y-121.97
X137.55Y-88.9
X137.55Y-90.17
X137.55Y-91.44
X137.55Y-92.71
X137.55Y-93.98
X137.55Y-95.25
X137.55Y-96.52
X137.55Y-97.79
X137.55Y-99.06
X137.55Y-100.33
X137.55Y-101.6
X137.55Y-102.87
X137.55Y-104.14
X137.55Y-105.41
X137.55Y-106.68
X137.55Y-107.95
X137.55Y-109.22
X137.55Y-110.49
X137.6Y-112.9
X138.1Y-120.7
X138.1Y-121.97
X138.82Y-88.9
X138.82Y-90.17
X138.82Y-91.44
X138.82Y-92.71
X138.82Y-93.98
X138.82Y-95.25
X138.82Y-96.52
X138.82Y-97.79
X138.82Y-99.06
X138.82Y-100.33
X138.82Y-101.6
X138.82Y-102.87
X138.82Y-104.14
X138.82Y-105.41
X138.82Y-106.68
X138.82Y-107.95
X138.82Y-109.22
X138.82Y-110.49
X139.37Y-120.7
X139.37Y-121.97
X140.09Y-88.9
X140.09Y-90.17
X140.09Y-91.44
X140.09Y-92.71
X140.09Y-93.98
X140.09Y-95.25
X140.09Y-96.52
X140.09Y-97.79
X140.09Y-99.06
X140.09Y-100.33
X140.09Y-101.6
X140.09Y-102.87
X140.09Y-104.14
X140.09Y-105.41
X140.09Y-106.68
X140.09Y-107.95
X140.09Y-109.22
X140.09Y-110.49
X140.64Y-120.7
X140.64Y-121.97
X141.1Y-81.0
X141.36Y-88.9
X141.36Y-90.17
X141.36Y-91.44
X141.36Y-92.71
X141.36Y-93.98
X141.36Y-95.25
X141.36Y-96.52
X141.36Y-97.79
X141.36Y-99.06
X141.36Y-100.33
X141.36Y-101.6
X141.36Y-102.87
X141.36Y-104.14
X141.36Y-105.41
X141.36Y-106.68
X141.36Y-107.95
X141.36Y-109.22
X141.36Y-110.49
X141.91Y-120.7
X141.91Y-121.97
X142.6Y-95.3
X142.6Y-96.57
X142.6Y-97.84
X142.6Y-99.11
X142.6Y-100.38
X142.6Y-101.65
X142.6Y-102.92
X142.6Y-104.19
X142.6Y-105.46
X142.6Y-106.73
X142.6Y-108.0
X142.6Y-109.27
X142.6Y-110.54
X142.6Y-111.7
X142.6Y-112.97
X142.6Y-114.24
X143.18Y-115.5
X143.18Y-116.77
X143.18Y-118.1
X143.18Y-119.37
X143.18Y-120.7
X143.18Y-121.97
X143.87Y-95.3
X143.87Y-96.57
X143.87Y-97.84
X143.87Y-99.11
X143.87Y-100.38
X143.87Y-101.65
X143.87Y-102.92
X143.87Y-104.19
X143.87Y-105.46
X143.87Y-106.73
X143.87Y-108.0
X143.87Y-109.27
X143.87Y-110.54
X143.87Y-111.7
X143.87Y-112.97
X143.87Y-114.24
X144.45Y-115.5
X144.45Y-116.77
X144.45Y-118.1
X144.45Y-119.37
X144.45Y-120.7
X144.45Y-121.97
X145.72Y-115.5
X145.72Y-116.77
X145.72Y-118.1
X145.72Y-119.37
X145.72Y-120.7
X145.72Y-121.97
X146.3Y-95.6
X146.3Y-108.4
X146.4Y-70.3
X146.99Y-115.5
X146.99Y-116.77
X146.99Y-118.1
X146.99Y-119.37
X146.99Y-120.7
X146.99Y-121.97
X148.26Y-115.5
X148.26Y-116.77
X148.26Y-118.1
X148.26Y-119.37
X148.26Y-120.7
X148.26Y-121.97
X149.53Y-115.5
X149.53Y-116.77
X149.53Y-118.1
X149.53Y-119.37
X149.53Y-120.7
X149.53Y-121.97
X150.4Y-81.6
X150.4Y-82.87
X150.4Y-84.14
X150.4Y-85.41
X150.4Y-86.68
X150.4Y-87.95
X150.4Y-89.22
X150.4Y-90.49
X150.4Y-91.76
X150.4Y-93.03
X150.78Y-119.4
X150.79Y-115.5
X150.79Y-116.77
X150.79Y-118.1
X150.8Y-120.7
X150.8Y-121.97
X151.1Y-111.625
X151.67Y-81.6
X151.67Y-82.87
X151.67Y-84.14
X151.67Y-85.41
X151.67Y-86.68
X151.67Y-87.95
X151.67Y-89.22
X151.67Y-90.49
X151.67Y-91.76
X151.67Y-93.03
X152.05Y-119.4
X152.06Y-114.17
X152.06Y-115.5
X152.06Y-116.77
X152.06Y-118.1
X152.07Y-63.9
X152.07Y-65.17
X152.07Y-120.7
X152.07Y-121.97
X152.2Y-96.4
X152.94Y-81.6
X152.94Y-82.87
X152.94Y-84.14
X152.94Y-85.41
X152.94Y-86.68
X152.94Y-87.95
X152.94Y-89.22
X152.94Y-90.49
X152.94Y-91.76
X153.32Y-119.4
X153.33Y-114.17
X153.33Y-115.5
X153.33Y-116.77
X153.33Y-118.1
X153.34Y-63.9
X153.34Y-65.17
X153.34Y-120.7
X153.34Y-121.97
X154.2Y-86.7
X154.2Y-87.97
X154.2Y-89.24
X154.2Y-90.51
X154.59Y-119.4
X154.6Y-114.1
X154.6Y-115.3
X154.6Y-116.5
X154.6Y-117.77
X154.61Y-63.9
X154.61Y-65.17
X154.61Y-120.7
X154.61Y-121.97
X155.47Y-86.7
X155.47Y-87.97
X155.47Y-89.24
X155.47Y-90.51
X155.86Y-119.4
X155.87Y-114.1
X155.87Y-115.3
X155.87Y-116.5
X155.87Y-117.77
X155.88Y-63.9
X155.88Y-65.17
X155.88Y-120.7
X155.88Y-121.97
X156.74Y-86.7
X156.74Y-87.97
X156.74Y-89.24
X156.74Y-90.51
X157.13Y-119.4
X157.14Y-114.1
X157.14Y-115.3
X157.14Y-116.5
X157.14Y-117.77
X157.15Y-63.9
X157.15Y-120.7
X157.15Y-121.97
X158.01Y-86.7
X158.01Y-87.97
X158.01Y-89.24
X158.01Y-90.51
X158.41Y-114.1
X158.41Y-115.3
X158.41Y-116.5
X159.28Y-86.7
X159.28Y-87.97
X159.28Y-89.24
X159.28Y-90.51
X159.68Y-114.1
X159.68Y-115.3
X159.68Y-116.5
X160.95Y-114.1
X160.95Y-115.3
X160.95Y-116.5
X162.22Y-114.1
X162.22Y-115.3
X162.22Y-116.5
T2
X110.4Y-117.3
X120.56Y-117.3
X121.8Y-84.1
X121.8Y-86.6
X110.49Y-82.86
X110.49Y-87.94
X118.11Y-82.86
X118.11Y-87.94
X104.9Y-107.54
X104.9Y-117.7
X111.9Y-92.7
X122.06Y-92.7
X103.8Y-71.7
X103.8Y-74.24
X103.8Y-76.78
X103.8Y-79.32
X106.34Y-71.7
X106.34Y-74.24
X106.34Y-76.78
X106.34Y-79.32
X112.1Y-103.88
X112.1Y-111.5
X114.64Y-103.88
X114.64Y-111.5
X117.18Y-103.88
X117.18Y-111.5
X119.72Y-103.88
X119.72Y-111.5
X104.9Y-85.84
X104.9Y-96.0
X111.5Y-99.0
X121.66Y-99.0
T3
X105.1Y-99.4
X105.1Y-101.94
X105.1Y-104.48
T4
X135.0Y-118.2
X137.54Y-118.2
X140.08Y-118.2
X157.2Y-93.36
X157.2Y-95.9
X157.2Y-98.44
X157.2Y-100.98
X157.2Y-103.52
X157.2Y-106.06
X157.2Y-108.6
X118.2Y-71.52
X118.2Y-74.06
X118.2Y-76.6
T5
X101.5Y-120.6
X160.2Y-65.9
X160.5Y-120.3
X101.7Y-65.8
T4
G00X153.8Y-76.0
M15
G01X153.8Y-74.0
M16
G05
G00X157.8Y-70.3
M15
G01X155.8Y-70.3
M16
G05
G00X159.8Y-76.0
M15
G01X159.8Y-74.0
M16
G05
T0
M30
