G04 #@! TF.GenerationSoftware,KiCad,Pcbnew,(5.1.2)-2*
G04 #@! TF.CreationDate,2021-12-06T22:39:02-05:00*
G04 #@! TF.ProjectId,raspi_pico_christmas_tree,72617370-695f-4706-9963-6f5f63687269,rev?*
G04 #@! TF.SameCoordinates,Original*
G04 #@! TF.FileFunction,Legend,Top*
G04 #@! TF.FilePolarity,Positive*
%FSLAX46Y46*%
G04 Gerber Fmt 4.6, Leading zero omitted, Abs format (unit mm)*
G04 Created by KiCad (PCBNEW (5.1.2)-2) date 2021-12-06 22:39:02*
%MOMM*%
%LPD*%
G04 APERTURE LIST*
%ADD10C,0.120000*%
%ADD11C,0.200000*%
%ADD12C,0.127000*%
%ADD13C,0.150000*%
G04 APERTURE END LIST*
D10*
X141410000Y-119530000D02*
X141410000Y-116870000D01*
X136270000Y-119530000D02*
X141410000Y-119530000D01*
X136270000Y-116870000D02*
X141410000Y-116870000D01*
X136270000Y-119530000D02*
X136270000Y-116870000D01*
X135000000Y-119530000D02*
X133670000Y-119530000D01*
X133670000Y-119530000D02*
X133670000Y-118200000D01*
D11*
X125510000Y-65170000D02*
G75*
G03X125510000Y-65170000I-100000J0D01*
G01*
D12*
X141600000Y-63800000D02*
X148100000Y-63800000D01*
X141600000Y-62500000D02*
X141600000Y-63800000D01*
X133600000Y-62500000D02*
X141600000Y-62500000D01*
X133600000Y-63800000D02*
X133600000Y-62500000D01*
X127100000Y-63800000D02*
X133600000Y-63800000D01*
X148100000Y-114800000D02*
X141260000Y-114800000D01*
X133940000Y-114800000D02*
X127100000Y-114800000D01*
X148100000Y-114800000D02*
X148100000Y-114550000D01*
X148100000Y-63800000D02*
X148100000Y-64050000D01*
X127100000Y-114800000D02*
X127100000Y-114550000D01*
X127100000Y-64050000D02*
X127100000Y-63800000D01*
D10*
X119580000Y-117300000D02*
X118690000Y-117300000D01*
X111380000Y-117300000D02*
X112270000Y-117300000D01*
X118690000Y-115990000D02*
X112270000Y-115990000D01*
X118690000Y-118610000D02*
X118690000Y-115990000D01*
X112270000Y-118610000D02*
X118690000Y-118610000D01*
X112270000Y-115990000D02*
X112270000Y-118610000D01*
X122796000Y-83790000D02*
X122860000Y-83790000D01*
X120740000Y-83790000D02*
X120804000Y-83790000D01*
X122796000Y-86910000D02*
X122860000Y-86910000D01*
X120740000Y-86910000D02*
X120804000Y-86910000D01*
X122860000Y-86910000D02*
X122860000Y-83790000D01*
X120740000Y-86910000D02*
X120740000Y-83790000D01*
X104020000Y-99380000D02*
X103555000Y-99380000D01*
X106645000Y-99380000D02*
X106180000Y-99380000D01*
X104019571Y-104194479D02*
G75*
G02X104020000Y-99685316I1080429J2254479D01*
G01*
X106180429Y-104194479D02*
G75*
G03X106180000Y-99685316I-1080429J2254479D01*
G01*
X104019173Y-104727815D02*
G75*
G02X103555170Y-99380000I1080827J2787815D01*
G01*
X106180827Y-104727815D02*
G75*
G03X106644830Y-99380000I-1080827J2787815D01*
G01*
X152900000Y-79600000D02*
X152900000Y-77000000D01*
X167600000Y-79600000D02*
X152900000Y-79600000D01*
X152900000Y-70400000D02*
X154800000Y-70400000D01*
X152900000Y-73100000D02*
X152900000Y-70400000D01*
X167600000Y-70400000D02*
X167600000Y-79600000D01*
X158800000Y-70400000D02*
X167600000Y-70400000D01*
D13*
X119216000Y-70504000D02*
X116930000Y-70504000D01*
X116930000Y-70504000D02*
X116930000Y-77616000D01*
X116930000Y-77616000D02*
X119216000Y-77616000D01*
X119216000Y-77616000D02*
X119216000Y-70504000D01*
D10*
X158530000Y-109930000D02*
X157200000Y-109930000D01*
X158530000Y-108600000D02*
X158530000Y-109930000D01*
X158530000Y-107330000D02*
X155870000Y-107330000D01*
X155870000Y-107330000D02*
X155870000Y-92030000D01*
X158530000Y-107330000D02*
X158530000Y-92030000D01*
X158530000Y-92030000D02*
X155870000Y-92030000D01*
X104900000Y-86820000D02*
X104900000Y-87710000D01*
X104900000Y-95020000D02*
X104900000Y-94130000D01*
X103590000Y-87710000D02*
X103590000Y-94130000D01*
X106210000Y-87710000D02*
X103590000Y-87710000D01*
X106210000Y-94130000D02*
X106210000Y-87710000D01*
X103590000Y-94130000D02*
X106210000Y-94130000D01*
X103590000Y-115830000D02*
X106210000Y-115830000D01*
X106210000Y-115830000D02*
X106210000Y-109410000D01*
X106210000Y-109410000D02*
X103590000Y-109410000D01*
X103590000Y-109410000D02*
X103590000Y-115830000D01*
X104900000Y-116720000D02*
X104900000Y-115830000D01*
X104900000Y-108520000D02*
X104900000Y-109410000D01*
X121080000Y-92700000D02*
X120190000Y-92700000D01*
X112880000Y-92700000D02*
X113770000Y-92700000D01*
X120190000Y-91390000D02*
X113770000Y-91390000D01*
X120190000Y-94010000D02*
X120190000Y-91390000D01*
X113770000Y-94010000D02*
X120190000Y-94010000D01*
X113770000Y-91390000D02*
X113770000Y-94010000D01*
X113370000Y-97690000D02*
X113370000Y-100310000D01*
X113370000Y-100310000D02*
X119790000Y-100310000D01*
X119790000Y-100310000D02*
X119790000Y-97690000D01*
X119790000Y-97690000D02*
X113370000Y-97690000D01*
X112480000Y-99000000D02*
X113370000Y-99000000D01*
X120680000Y-99000000D02*
X119790000Y-99000000D01*
D13*
X116840000Y-87940000D02*
X111760000Y-87940000D01*
X111760000Y-87940000D02*
X111760000Y-82860000D01*
X111760000Y-82860000D02*
X116840000Y-82860000D01*
X116840000Y-82860000D02*
X116840000Y-87940000D01*
X116096051Y-85400000D02*
G75*
G03X116096051Y-85400000I-1796051J0D01*
G01*
D12*
X107840000Y-82820000D02*
X89840000Y-82820000D01*
X89840000Y-82820000D02*
X83140000Y-82820000D01*
X83140000Y-82820000D02*
X83140000Y-68420000D01*
X83140000Y-68420000D02*
X89840000Y-68420000D01*
X89840000Y-68420000D02*
X107840000Y-68420000D01*
X107840000Y-68420000D02*
X107840000Y-82820000D01*
X89840000Y-68420000D02*
X89840000Y-82820000D01*
D11*
X103900000Y-83570000D02*
G75*
G03X103900000Y-83570000I-100000J0D01*
G01*
D10*
X110770000Y-105040000D02*
X110770000Y-106690000D01*
X121050000Y-105040000D02*
X110770000Y-105040000D01*
X121050000Y-110340000D02*
X121050000Y-105040000D01*
X110770000Y-110340000D02*
X121050000Y-110340000D01*
X110770000Y-108690000D02*
X110770000Y-110340000D01*
X110770000Y-106690000D02*
G75*
G02X110770000Y-108690000I0J-1000000D01*
G01*
D13*
X133122380Y-119533333D02*
X132646190Y-119866666D01*
X133122380Y-120104761D02*
X132122380Y-120104761D01*
X132122380Y-119723809D01*
X132170000Y-119628571D01*
X132217619Y-119580952D01*
X132312857Y-119533333D01*
X132455714Y-119533333D01*
X132550952Y-119580952D01*
X132598571Y-119628571D01*
X132646190Y-119723809D01*
X132646190Y-120104761D01*
X132598571Y-119104761D02*
X132598571Y-118771428D01*
X133122380Y-118628571D02*
X133122380Y-119104761D01*
X132122380Y-119104761D01*
X132122380Y-118628571D01*
X132598571Y-117866666D02*
X132598571Y-118200000D01*
X133122380Y-118200000D02*
X132122380Y-118200000D01*
X132122380Y-117723809D01*
X132122380Y-117200000D02*
X132360476Y-117200000D01*
X132265238Y-117438095D02*
X132360476Y-117200000D01*
X132265238Y-116961904D01*
X132550952Y-117342857D02*
X132360476Y-117200000D01*
X132550952Y-117057142D01*
X132122380Y-116438095D02*
X132360476Y-116438095D01*
X132265238Y-116676190D02*
X132360476Y-116438095D01*
X132265238Y-116200000D01*
X132550952Y-116580952D02*
X132360476Y-116438095D01*
X132550952Y-116295238D01*
X159738095Y-116900000D02*
X159642857Y-116852380D01*
X159500000Y-116852380D01*
X159357142Y-116900000D01*
X159261904Y-116995238D01*
X159214285Y-117090476D01*
X159166666Y-117280952D01*
X159166666Y-117423809D01*
X159214285Y-117614285D01*
X159261904Y-117709523D01*
X159357142Y-117804761D01*
X159500000Y-117852380D01*
X159595238Y-117852380D01*
X159738095Y-117804761D01*
X159785714Y-117757142D01*
X159785714Y-117423809D01*
X159595238Y-117423809D01*
X160214285Y-117852380D02*
X160214285Y-116852380D01*
X160785714Y-117852380D01*
X160785714Y-116852380D01*
X161261904Y-117852380D02*
X161261904Y-116852380D01*
X161500000Y-116852380D01*
X161642857Y-116900000D01*
X161738095Y-116995238D01*
X161785714Y-117090476D01*
X161833333Y-117280952D01*
X161833333Y-117423809D01*
X161785714Y-117614285D01*
X161738095Y-117709523D01*
X161642857Y-117804761D01*
X161500000Y-117852380D01*
X161261904Y-117852380D01*
X104338095Y-119100000D02*
X104242857Y-119052380D01*
X104100000Y-119052380D01*
X103957142Y-119100000D01*
X103861904Y-119195238D01*
X103814285Y-119290476D01*
X103766666Y-119480952D01*
X103766666Y-119623809D01*
X103814285Y-119814285D01*
X103861904Y-119909523D01*
X103957142Y-120004761D01*
X104100000Y-120052380D01*
X104195238Y-120052380D01*
X104338095Y-120004761D01*
X104385714Y-119957142D01*
X104385714Y-119623809D01*
X104195238Y-119623809D01*
X104814285Y-120052380D02*
X104814285Y-119052380D01*
X105385714Y-120052380D01*
X105385714Y-119052380D01*
X105861904Y-120052380D02*
X105861904Y-119052380D01*
X106100000Y-119052380D01*
X106242857Y-119100000D01*
X106338095Y-119195238D01*
X106385714Y-119290476D01*
X106433333Y-119480952D01*
X106433333Y-119623809D01*
X106385714Y-119814285D01*
X106338095Y-119909523D01*
X106242857Y-120004761D01*
X106100000Y-120052380D01*
X105861904Y-120052380D01*
X155538095Y-66700000D02*
X155442857Y-66652380D01*
X155300000Y-66652380D01*
X155157142Y-66700000D01*
X155061904Y-66795238D01*
X155014285Y-66890476D01*
X154966666Y-67080952D01*
X154966666Y-67223809D01*
X155014285Y-67414285D01*
X155061904Y-67509523D01*
X155157142Y-67604761D01*
X155300000Y-67652380D01*
X155395238Y-67652380D01*
X155538095Y-67604761D01*
X155585714Y-67557142D01*
X155585714Y-67223809D01*
X155395238Y-67223809D01*
X156014285Y-67652380D02*
X156014285Y-66652380D01*
X156585714Y-67652380D01*
X156585714Y-66652380D01*
X157061904Y-67652380D02*
X157061904Y-66652380D01*
X157300000Y-66652380D01*
X157442857Y-66700000D01*
X157538095Y-66795238D01*
X157585714Y-66890476D01*
X157633333Y-67080952D01*
X157633333Y-67223809D01*
X157585714Y-67414285D01*
X157538095Y-67509523D01*
X157442857Y-67604761D01*
X157300000Y-67652380D01*
X157061904Y-67652380D01*
X100338095Y-68400000D02*
X100242857Y-68352380D01*
X100100000Y-68352380D01*
X99957142Y-68400000D01*
X99861904Y-68495238D01*
X99814285Y-68590476D01*
X99766666Y-68780952D01*
X99766666Y-68923809D01*
X99814285Y-69114285D01*
X99861904Y-69209523D01*
X99957142Y-69304761D01*
X100100000Y-69352380D01*
X100195238Y-69352380D01*
X100338095Y-69304761D01*
X100385714Y-69257142D01*
X100385714Y-68923809D01*
X100195238Y-68923809D01*
X100814285Y-69352380D02*
X100814285Y-68352380D01*
X101385714Y-69352380D01*
X101385714Y-68352380D01*
X101861904Y-69352380D02*
X101861904Y-68352380D01*
X102100000Y-68352380D01*
X102242857Y-68400000D01*
X102338095Y-68495238D01*
X102385714Y-68590476D01*
X102433333Y-68780952D01*
X102433333Y-68923809D01*
X102385714Y-69114285D01*
X102338095Y-69209523D01*
X102242857Y-69304761D01*
X102100000Y-69352380D01*
X101861904Y-69352380D01*
X137138095Y-85252380D02*
X137138095Y-86061904D01*
X137185714Y-86157142D01*
X137233333Y-86204761D01*
X137328571Y-86252380D01*
X137519047Y-86252380D01*
X137614285Y-86204761D01*
X137661904Y-86157142D01*
X137709523Y-86061904D01*
X137709523Y-85252380D01*
X138138095Y-85347619D02*
X138185714Y-85300000D01*
X138280952Y-85252380D01*
X138519047Y-85252380D01*
X138614285Y-85300000D01*
X138661904Y-85347619D01*
X138709523Y-85442857D01*
X138709523Y-85538095D01*
X138661904Y-85680952D01*
X138090476Y-86252380D01*
X138709523Y-86252380D01*
X115313333Y-115442380D02*
X114980000Y-114966190D01*
X114741904Y-115442380D02*
X114741904Y-114442380D01*
X115122857Y-114442380D01*
X115218095Y-114490000D01*
X115265714Y-114537619D01*
X115313333Y-114632857D01*
X115313333Y-114775714D01*
X115265714Y-114870952D01*
X115218095Y-114918571D01*
X115122857Y-114966190D01*
X114741904Y-114966190D01*
X116218095Y-114442380D02*
X115741904Y-114442380D01*
X115694285Y-114918571D01*
X115741904Y-114870952D01*
X115837142Y-114823333D01*
X116075238Y-114823333D01*
X116170476Y-114870952D01*
X116218095Y-114918571D01*
X116265714Y-115013809D01*
X116265714Y-115251904D01*
X116218095Y-115347142D01*
X116170476Y-115394761D01*
X116075238Y-115442380D01*
X115837142Y-115442380D01*
X115741904Y-115394761D01*
X115694285Y-115347142D01*
X119847142Y-85516666D02*
X119894761Y-85564285D01*
X119942380Y-85707142D01*
X119942380Y-85802380D01*
X119894761Y-85945238D01*
X119799523Y-86040476D01*
X119704285Y-86088095D01*
X119513809Y-86135714D01*
X119370952Y-86135714D01*
X119180476Y-86088095D01*
X119085238Y-86040476D01*
X118990000Y-85945238D01*
X118942380Y-85802380D01*
X118942380Y-85707142D01*
X118990000Y-85564285D01*
X119037619Y-85516666D01*
X119942380Y-84564285D02*
X119942380Y-85135714D01*
X119942380Y-84850000D02*
X118942380Y-84850000D01*
X119085238Y-84945238D01*
X119180476Y-85040476D01*
X119228095Y-85135714D01*
X109512380Y-102678095D02*
X108512380Y-102678095D01*
X108512380Y-102440000D01*
X108560000Y-102297142D01*
X108655238Y-102201904D01*
X108750476Y-102154285D01*
X108940952Y-102106666D01*
X109083809Y-102106666D01*
X109274285Y-102154285D01*
X109369523Y-102201904D01*
X109464761Y-102297142D01*
X109512380Y-102440000D01*
X109512380Y-102678095D01*
X109512380Y-101154285D02*
X109512380Y-101725714D01*
X109512380Y-101440000D02*
X108512380Y-101440000D01*
X108655238Y-101535238D01*
X108750476Y-101630476D01*
X108798095Y-101725714D01*
X161916666Y-68702380D02*
X161916666Y-69416666D01*
X161869047Y-69559523D01*
X161773809Y-69654761D01*
X161630952Y-69702380D01*
X161535714Y-69702380D01*
X162916666Y-69702380D02*
X162345238Y-69702380D01*
X162630952Y-69702380D02*
X162630952Y-68702380D01*
X162535714Y-68845238D01*
X162440476Y-68940476D01*
X162345238Y-68988095D01*
X120352380Y-76033333D02*
X121066666Y-76033333D01*
X121209523Y-76080952D01*
X121304761Y-76176190D01*
X121352380Y-76319047D01*
X121352380Y-76414285D01*
X120447619Y-75604761D02*
X120400000Y-75557142D01*
X120352380Y-75461904D01*
X120352380Y-75223809D01*
X120400000Y-75128571D01*
X120447619Y-75080952D01*
X120542857Y-75033333D01*
X120638095Y-75033333D01*
X120780952Y-75080952D01*
X121352380Y-75652380D01*
X121352380Y-75033333D01*
X156866666Y-110382380D02*
X156866666Y-111096666D01*
X156819047Y-111239523D01*
X156723809Y-111334761D01*
X156580952Y-111382380D01*
X156485714Y-111382380D01*
X157247619Y-110382380D02*
X157866666Y-110382380D01*
X157533333Y-110763333D01*
X157676190Y-110763333D01*
X157771428Y-110810952D01*
X157819047Y-110858571D01*
X157866666Y-110953809D01*
X157866666Y-111191904D01*
X157819047Y-111287142D01*
X157771428Y-111334761D01*
X157676190Y-111382380D01*
X157390476Y-111382380D01*
X157295238Y-111334761D01*
X157247619Y-111287142D01*
X103042380Y-91086666D02*
X102566190Y-91420000D01*
X103042380Y-91658095D02*
X102042380Y-91658095D01*
X102042380Y-91277142D01*
X102090000Y-91181904D01*
X102137619Y-91134285D01*
X102232857Y-91086666D01*
X102375714Y-91086666D01*
X102470952Y-91134285D01*
X102518571Y-91181904D01*
X102566190Y-91277142D01*
X102566190Y-91658095D01*
X103042380Y-90134285D02*
X103042380Y-90705714D01*
X103042380Y-90420000D02*
X102042380Y-90420000D01*
X102185238Y-90515238D01*
X102280476Y-90610476D01*
X102328095Y-90705714D01*
X103042380Y-112786666D02*
X102566190Y-113120000D01*
X103042380Y-113358095D02*
X102042380Y-113358095D01*
X102042380Y-112977142D01*
X102090000Y-112881904D01*
X102137619Y-112834285D01*
X102232857Y-112786666D01*
X102375714Y-112786666D01*
X102470952Y-112834285D01*
X102518571Y-112881904D01*
X102566190Y-112977142D01*
X102566190Y-113358095D01*
X102137619Y-112405714D02*
X102090000Y-112358095D01*
X102042380Y-112262857D01*
X102042380Y-112024761D01*
X102090000Y-111929523D01*
X102137619Y-111881904D01*
X102232857Y-111834285D01*
X102328095Y-111834285D01*
X102470952Y-111881904D01*
X103042380Y-112453333D01*
X103042380Y-111834285D01*
X116813333Y-90842380D02*
X116480000Y-90366190D01*
X116241904Y-90842380D02*
X116241904Y-89842380D01*
X116622857Y-89842380D01*
X116718095Y-89890000D01*
X116765714Y-89937619D01*
X116813333Y-90032857D01*
X116813333Y-90175714D01*
X116765714Y-90270952D01*
X116718095Y-90318571D01*
X116622857Y-90366190D01*
X116241904Y-90366190D01*
X117146666Y-89842380D02*
X117765714Y-89842380D01*
X117432380Y-90223333D01*
X117575238Y-90223333D01*
X117670476Y-90270952D01*
X117718095Y-90318571D01*
X117765714Y-90413809D01*
X117765714Y-90651904D01*
X117718095Y-90747142D01*
X117670476Y-90794761D01*
X117575238Y-90842380D01*
X117289523Y-90842380D01*
X117194285Y-90794761D01*
X117146666Y-90747142D01*
X116413333Y-97142380D02*
X116080000Y-96666190D01*
X115841904Y-97142380D02*
X115841904Y-96142380D01*
X116222857Y-96142380D01*
X116318095Y-96190000D01*
X116365714Y-96237619D01*
X116413333Y-96332857D01*
X116413333Y-96475714D01*
X116365714Y-96570952D01*
X116318095Y-96618571D01*
X116222857Y-96666190D01*
X115841904Y-96666190D01*
X117270476Y-96475714D02*
X117270476Y-97142380D01*
X117032380Y-96094761D02*
X116794285Y-96809047D01*
X117413333Y-96809047D01*
X112266666Y-81904761D02*
X112409523Y-81952380D01*
X112647619Y-81952380D01*
X112742857Y-81904761D01*
X112790476Y-81857142D01*
X112838095Y-81761904D01*
X112838095Y-81666666D01*
X112790476Y-81571428D01*
X112742857Y-81523809D01*
X112647619Y-81476190D01*
X112457142Y-81428571D01*
X112361904Y-81380952D01*
X112314285Y-81333333D01*
X112266666Y-81238095D01*
X112266666Y-81142857D01*
X112314285Y-81047619D01*
X112361904Y-81000000D01*
X112457142Y-80952380D01*
X112695238Y-80952380D01*
X112838095Y-81000000D01*
X113171428Y-80952380D02*
X113409523Y-81952380D01*
X113600000Y-81238095D01*
X113790476Y-81952380D01*
X114028571Y-80952380D01*
X114933333Y-81952380D02*
X114361904Y-81952380D01*
X114647619Y-81952380D02*
X114647619Y-80952380D01*
X114552380Y-81095238D01*
X114457142Y-81190476D01*
X114361904Y-81238095D01*
X112442857Y-88828571D02*
X112585714Y-88876190D01*
X112633333Y-88923809D01*
X112680952Y-89019047D01*
X112680952Y-89161904D01*
X112633333Y-89257142D01*
X112585714Y-89304761D01*
X112490476Y-89352380D01*
X112109523Y-89352380D01*
X112109523Y-88352380D01*
X112442857Y-88352380D01*
X112538095Y-88400000D01*
X112585714Y-88447619D01*
X112633333Y-88542857D01*
X112633333Y-88638095D01*
X112585714Y-88733333D01*
X112538095Y-88780952D01*
X112442857Y-88828571D01*
X112109523Y-88828571D01*
X113538095Y-88685714D02*
X113538095Y-89352380D01*
X113109523Y-88685714D02*
X113109523Y-89209523D01*
X113157142Y-89304761D01*
X113252380Y-89352380D01*
X113395238Y-89352380D01*
X113490476Y-89304761D01*
X113538095Y-89257142D01*
X113871428Y-88685714D02*
X114252380Y-88685714D01*
X114014285Y-88352380D02*
X114014285Y-89209523D01*
X114061904Y-89304761D01*
X114157142Y-89352380D01*
X114252380Y-89352380D01*
X114442857Y-88685714D02*
X114823809Y-88685714D01*
X114585714Y-88352380D02*
X114585714Y-89209523D01*
X114633333Y-89304761D01*
X114728571Y-89352380D01*
X114823809Y-89352380D01*
X115300000Y-89352380D02*
X115204761Y-89304761D01*
X115157142Y-89257142D01*
X115109523Y-89161904D01*
X115109523Y-88876190D01*
X115157142Y-88780952D01*
X115204761Y-88733333D01*
X115300000Y-88685714D01*
X115442857Y-88685714D01*
X115538095Y-88733333D01*
X115585714Y-88780952D01*
X115633333Y-88876190D01*
X115633333Y-89161904D01*
X115585714Y-89257142D01*
X115538095Y-89304761D01*
X115442857Y-89352380D01*
X115300000Y-89352380D01*
X116061904Y-88685714D02*
X116061904Y-89352380D01*
X116061904Y-88780952D02*
X116109523Y-88733333D01*
X116204761Y-88685714D01*
X116347619Y-88685714D01*
X116442857Y-88733333D01*
X116490476Y-88828571D01*
X116490476Y-89352380D01*
X108442380Y-68971904D02*
X109251904Y-68971904D01*
X109347142Y-68924285D01*
X109394761Y-68876666D01*
X109442380Y-68781428D01*
X109442380Y-68590952D01*
X109394761Y-68495714D01*
X109347142Y-68448095D01*
X109251904Y-68400476D01*
X108442380Y-68400476D01*
X109442380Y-67400476D02*
X109442380Y-67971904D01*
X109442380Y-67686190D02*
X108442380Y-67686190D01*
X108585238Y-67781428D01*
X108680476Y-67876666D01*
X108728095Y-67971904D01*
X109222380Y-108451904D02*
X110031904Y-108451904D01*
X110127142Y-108404285D01*
X110174761Y-108356666D01*
X110222380Y-108261428D01*
X110222380Y-108070952D01*
X110174761Y-107975714D01*
X110127142Y-107928095D01*
X110031904Y-107880476D01*
X109222380Y-107880476D01*
X109222380Y-107499523D02*
X109222380Y-106880476D01*
X109603333Y-107213809D01*
X109603333Y-107070952D01*
X109650952Y-106975714D01*
X109698571Y-106928095D01*
X109793809Y-106880476D01*
X110031904Y-106880476D01*
X110127142Y-106928095D01*
X110174761Y-106975714D01*
X110222380Y-107070952D01*
X110222380Y-107356666D01*
X110174761Y-107451904D01*
X110127142Y-107499523D01*
M02*
