G04 #@! TF.GenerationSoftware,KiCad,Pcbnew,(5.1.2)-2*
G04 #@! TF.CreationDate,2021-12-06T22:39:02-05:00*
G04 #@! TF.ProjectId,raspi_pico_christmas_tree,72617370-695f-4706-9963-6f5f63687269,rev?*
G04 #@! TF.SameCoordinates,Original*
G04 #@! TF.FileFunction,Copper,L2,Bot*
G04 #@! TF.FilePolarity,Positive*
%FSLAX46Y46*%
G04 Gerber Fmt 4.6, Leading zero omitted, Abs format (unit mm)*
G04 Created by KiCad (PCBNEW (5.1.2)-2) date 2021-12-06 22:39:02*
%MOMM*%
%LPD*%
G04 APERTURE LIST*
%ADD10R,1.700000X1.700000*%
%ADD11O,1.700000X1.700000*%
%ADD12C,3.800000*%
%ADD13O,1.600000X1.600000*%
%ADD14C,1.600000*%
%ADD15C,1.800000*%
%ADD16R,1.800000X1.800000*%
%ADD17R,3.500000X3.500000*%
%ADD18O,3.010000X1.510000*%
%ADD19O,1.900000X1.500000*%
%ADD20C,1.500000*%
%ADD21R,1.500000X1.500000*%
%ADD22R,1.600000X1.600000*%
%ADD23C,0.800000*%
%ADD24C,0.250000*%
%ADD25C,0.254000*%
G04 APERTURE END LIST*
D10*
X135000000Y-118200000D03*
D11*
X137540000Y-118200000D03*
X140080000Y-118200000D03*
D12*
X160500000Y-120300000D03*
X101500000Y-120600000D03*
X160200000Y-65900000D03*
X101700000Y-65800000D03*
D13*
X120560000Y-117300000D03*
D14*
X110400000Y-117300000D03*
X121800000Y-84100000D03*
X121800000Y-86600000D03*
D15*
X105100000Y-104480000D03*
X105100000Y-101940000D03*
D16*
X105100000Y-99400000D03*
D17*
X156800000Y-70300000D03*
X159800000Y-75000000D03*
X153800000Y-75000000D03*
D18*
X118200000Y-71520000D03*
X118200000Y-74060000D03*
X118200000Y-76600000D03*
D11*
X157200000Y-93360000D03*
X157200000Y-95900000D03*
X157200000Y-98440000D03*
X157200000Y-100980000D03*
X157200000Y-103520000D03*
X157200000Y-106060000D03*
D10*
X157200000Y-108600000D03*
D13*
X104900000Y-85840000D03*
D14*
X104900000Y-96000000D03*
X104900000Y-117700000D03*
D13*
X104900000Y-107540000D03*
X122060000Y-92700000D03*
D14*
X111900000Y-92700000D03*
X111500000Y-99000000D03*
D13*
X121660000Y-99000000D03*
D19*
X118110000Y-82860000D03*
X118110000Y-87940000D03*
X110490000Y-82860000D03*
X110490000Y-87940000D03*
D20*
X103800000Y-71700000D03*
X103800000Y-74240000D03*
X103800000Y-76780000D03*
D21*
X103800000Y-79320000D03*
D20*
X106340000Y-79320000D03*
X106340000Y-76780000D03*
X106340000Y-74240000D03*
X106340000Y-71700000D03*
D13*
X112100000Y-103880000D03*
X119720000Y-111500000D03*
X114640000Y-103880000D03*
X117180000Y-111500000D03*
X117180000Y-103880000D03*
X114640000Y-111500000D03*
X119720000Y-103880000D03*
D22*
X112100000Y-111500000D03*
D23*
X123450000Y-115070000D03*
X123450000Y-113800000D03*
X124720000Y-115070000D03*
X124720000Y-113800000D03*
X146990000Y-118100000D03*
X144450000Y-118100000D03*
X145720000Y-118100000D03*
X149530000Y-118100000D03*
X148260000Y-118100000D03*
X143180000Y-118100000D03*
X143180000Y-119370000D03*
X144450000Y-119370000D03*
X146990000Y-119370000D03*
X145720000Y-119370000D03*
X149530000Y-119370000D03*
X148260000Y-119370000D03*
X146990000Y-115500000D03*
X144450000Y-115500000D03*
X145720000Y-115500000D03*
X149530000Y-115500000D03*
X148260000Y-115500000D03*
X143180000Y-115500000D03*
X143180000Y-116770000D03*
X144450000Y-116770000D03*
X146990000Y-116770000D03*
X145720000Y-116770000D03*
X149530000Y-116770000D03*
X148260000Y-116770000D03*
X129190000Y-118200000D03*
X126650000Y-118200000D03*
X127920000Y-118200000D03*
X131730000Y-118200000D03*
X130460000Y-118200000D03*
X125380000Y-119470000D03*
X126650000Y-119470000D03*
X129190000Y-119470000D03*
X127920000Y-119470000D03*
X131730000Y-119470000D03*
X130460000Y-119470000D03*
X129190000Y-115700000D03*
X131730000Y-115700000D03*
X130460000Y-115700000D03*
X129190000Y-116970000D03*
X127920000Y-116970000D03*
X131730000Y-116970000D03*
X130460000Y-116970000D03*
X152060000Y-116770000D03*
X150790000Y-115500000D03*
X152060000Y-115500000D03*
X153330000Y-115500000D03*
X150790000Y-116770000D03*
X153330000Y-116770000D03*
X153330000Y-114170000D03*
X152060000Y-114170000D03*
X150790000Y-118100000D03*
X153330000Y-118100000D03*
X152060000Y-118100000D03*
X158410000Y-115300000D03*
X162220000Y-115300000D03*
X154600000Y-115300000D03*
X159680000Y-115300000D03*
X157140000Y-115300000D03*
X160950000Y-115300000D03*
X155870000Y-115300000D03*
X158410000Y-114100000D03*
X162220000Y-114100000D03*
X154600000Y-114100000D03*
X159680000Y-114100000D03*
X157140000Y-114100000D03*
X160950000Y-114100000D03*
X155870000Y-114100000D03*
X128900000Y-108300000D03*
X137600000Y-112900000D03*
X146300000Y-108400000D03*
X146300000Y-95600000D03*
X146400000Y-70300000D03*
X128600000Y-70200000D03*
X128100000Y-95500000D03*
X128200000Y-82800000D03*
X110200000Y-106100000D03*
X111470000Y-106100000D03*
X112740000Y-106100000D03*
X114010000Y-106100000D03*
X115280000Y-106100000D03*
X116550000Y-106100000D03*
X117820000Y-106100000D03*
X110200000Y-107370000D03*
X111470000Y-107370000D03*
X112740000Y-107370000D03*
X114010000Y-107370000D03*
X115280000Y-107370000D03*
X116550000Y-107370000D03*
X117820000Y-107370000D03*
X113100000Y-113800000D03*
X114500000Y-113800000D03*
X115770000Y-113800000D03*
X117040000Y-113800000D03*
X118310000Y-113800000D03*
X119580000Y-113800000D03*
X120850000Y-113800000D03*
X122120000Y-113800000D03*
X114500000Y-115070000D03*
X115770000Y-115070000D03*
X117040000Y-115070000D03*
X118310000Y-115070000D03*
X119580000Y-115070000D03*
X120850000Y-115070000D03*
X122120000Y-115070000D03*
X105080000Y-120700000D03*
X106350000Y-120700000D03*
X107620000Y-120700000D03*
X108890000Y-120700000D03*
X110160000Y-120700000D03*
X111430000Y-120700000D03*
X112700000Y-120700000D03*
X113970000Y-120700000D03*
X115240000Y-120700000D03*
X116510000Y-120700000D03*
X117780000Y-120700000D03*
X119050000Y-120700000D03*
X120320000Y-120700000D03*
X121590000Y-120700000D03*
X122860000Y-120700000D03*
X124130000Y-120700000D03*
X125400000Y-120700000D03*
X126670000Y-120700000D03*
X127940000Y-120700000D03*
X129210000Y-120700000D03*
X130480000Y-120700000D03*
X131750000Y-120700000D03*
X133020000Y-120700000D03*
X134290000Y-120700000D03*
X135560000Y-120700000D03*
X136830000Y-120700000D03*
X138100000Y-120700000D03*
X139370000Y-120700000D03*
X140640000Y-120700000D03*
X141910000Y-120700000D03*
X143180000Y-120700000D03*
X144450000Y-120700000D03*
X145720000Y-120700000D03*
X146990000Y-120700000D03*
X148260000Y-120700000D03*
X149530000Y-120700000D03*
X150800000Y-120700000D03*
X152070000Y-120700000D03*
X153340000Y-120700000D03*
X154610000Y-120700000D03*
X155880000Y-120700000D03*
X157150000Y-120700000D03*
X105080000Y-121970000D03*
X106350000Y-121970000D03*
X107620000Y-121970000D03*
X108890000Y-121970000D03*
X110160000Y-121970000D03*
X111430000Y-121970000D03*
X112700000Y-121970000D03*
X113970000Y-121970000D03*
X115240000Y-121970000D03*
X116510000Y-121970000D03*
X117780000Y-121970000D03*
X119050000Y-121970000D03*
X120320000Y-121970000D03*
X121590000Y-121970000D03*
X122860000Y-121970000D03*
X124130000Y-121970000D03*
X125400000Y-121970000D03*
X126670000Y-121970000D03*
X127940000Y-121970000D03*
X129210000Y-121970000D03*
X130480000Y-121970000D03*
X131750000Y-121970000D03*
X133020000Y-121970000D03*
X134290000Y-121970000D03*
X135560000Y-121970000D03*
X136830000Y-121970000D03*
X138100000Y-121970000D03*
X139370000Y-121970000D03*
X140640000Y-121970000D03*
X141910000Y-121970000D03*
X143180000Y-121970000D03*
X144450000Y-121970000D03*
X145720000Y-121970000D03*
X146990000Y-121970000D03*
X148260000Y-121970000D03*
X149530000Y-121970000D03*
X150800000Y-121970000D03*
X152070000Y-121970000D03*
X153340000Y-121970000D03*
X154610000Y-121970000D03*
X155880000Y-121970000D03*
X157150000Y-121970000D03*
X105080000Y-63900000D03*
X106350000Y-63900000D03*
X107620000Y-63900000D03*
X108890000Y-63900000D03*
X110160000Y-63900000D03*
X111430000Y-63900000D03*
X112700000Y-63900000D03*
X113970000Y-63900000D03*
X115240000Y-63900000D03*
X116510000Y-63900000D03*
X117780000Y-63900000D03*
X119050000Y-63900000D03*
X120320000Y-63900000D03*
X121590000Y-63900000D03*
X122860000Y-63900000D03*
X152070000Y-63900000D03*
X153340000Y-63900000D03*
X154610000Y-63900000D03*
X155880000Y-63900000D03*
X157150000Y-63900000D03*
X106350000Y-65170000D03*
X107620000Y-65170000D03*
X108890000Y-65170000D03*
X110160000Y-65170000D03*
X111430000Y-65170000D03*
X112700000Y-65170000D03*
X113970000Y-65170000D03*
X115240000Y-65170000D03*
X116510000Y-65170000D03*
X117780000Y-65170000D03*
X119050000Y-65170000D03*
X120320000Y-65170000D03*
X121590000Y-65170000D03*
X122860000Y-65170000D03*
X152070000Y-65170000D03*
X153340000Y-65170000D03*
X154610000Y-65170000D03*
X155880000Y-65170000D03*
X131200000Y-88900000D03*
X132470000Y-88900000D03*
X133740000Y-88900000D03*
X135010000Y-88900000D03*
X136280000Y-88900000D03*
X137550000Y-88900000D03*
X138820000Y-88900000D03*
X140090000Y-88900000D03*
X141360000Y-88900000D03*
X131200000Y-90170000D03*
X132470000Y-90170000D03*
X133740000Y-90170000D03*
X135010000Y-90170000D03*
X136280000Y-90170000D03*
X137550000Y-90170000D03*
X138820000Y-90170000D03*
X140090000Y-90170000D03*
X141360000Y-90170000D03*
X131200000Y-91440000D03*
X132470000Y-91440000D03*
X133740000Y-91440000D03*
X135010000Y-91440000D03*
X136280000Y-91440000D03*
X137550000Y-91440000D03*
X138820000Y-91440000D03*
X140090000Y-91440000D03*
X141360000Y-91440000D03*
X131200000Y-92710000D03*
X132470000Y-92710000D03*
X133740000Y-92710000D03*
X135010000Y-92710000D03*
X136280000Y-92710000D03*
X137550000Y-92710000D03*
X138820000Y-92710000D03*
X140090000Y-92710000D03*
X141360000Y-92710000D03*
X131200000Y-93980000D03*
X132470000Y-93980000D03*
X133740000Y-93980000D03*
X135010000Y-93980000D03*
X136280000Y-93980000D03*
X137550000Y-93980000D03*
X138820000Y-93980000D03*
X140090000Y-93980000D03*
X141360000Y-93980000D03*
X131200000Y-95250000D03*
X132470000Y-95250000D03*
X133740000Y-95250000D03*
X135010000Y-95250000D03*
X136280000Y-95250000D03*
X137550000Y-95250000D03*
X138820000Y-95250000D03*
X140090000Y-95250000D03*
X141360000Y-95250000D03*
X131200000Y-96520000D03*
X132470000Y-96520000D03*
X133740000Y-96520000D03*
X135010000Y-96520000D03*
X136280000Y-96520000D03*
X137550000Y-96520000D03*
X138820000Y-96520000D03*
X140090000Y-96520000D03*
X141360000Y-96520000D03*
X131200000Y-97790000D03*
X132470000Y-97790000D03*
X133740000Y-97790000D03*
X135010000Y-97790000D03*
X136280000Y-97790000D03*
X137550000Y-97790000D03*
X138820000Y-97790000D03*
X140090000Y-97790000D03*
X141360000Y-97790000D03*
X131200000Y-99060000D03*
X132470000Y-99060000D03*
X133740000Y-99060000D03*
X135010000Y-99060000D03*
X136280000Y-99060000D03*
X137550000Y-99060000D03*
X138820000Y-99060000D03*
X140090000Y-99060000D03*
X141360000Y-99060000D03*
X131200000Y-100330000D03*
X132470000Y-100330000D03*
X133740000Y-100330000D03*
X135010000Y-100330000D03*
X136280000Y-100330000D03*
X137550000Y-100330000D03*
X138820000Y-100330000D03*
X140090000Y-100330000D03*
X141360000Y-100330000D03*
X131200000Y-101600000D03*
X132470000Y-101600000D03*
X133740000Y-101600000D03*
X135010000Y-101600000D03*
X136280000Y-101600000D03*
X137550000Y-101600000D03*
X138820000Y-101600000D03*
X140090000Y-101600000D03*
X141360000Y-101600000D03*
X131200000Y-102870000D03*
X132470000Y-102870000D03*
X133740000Y-102870000D03*
X135010000Y-102870000D03*
X136280000Y-102870000D03*
X137550000Y-102870000D03*
X138820000Y-102870000D03*
X140090000Y-102870000D03*
X141360000Y-102870000D03*
X131200000Y-104140000D03*
X132470000Y-104140000D03*
X133740000Y-104140000D03*
X135010000Y-104140000D03*
X136280000Y-104140000D03*
X137550000Y-104140000D03*
X138820000Y-104140000D03*
X140090000Y-104140000D03*
X141360000Y-104140000D03*
X131200000Y-105410000D03*
X132470000Y-105410000D03*
X133740000Y-105410000D03*
X135010000Y-105410000D03*
X136280000Y-105410000D03*
X137550000Y-105410000D03*
X138820000Y-105410000D03*
X140090000Y-105410000D03*
X141360000Y-105410000D03*
X131200000Y-106680000D03*
X132470000Y-106680000D03*
X133740000Y-106680000D03*
X135010000Y-106680000D03*
X136280000Y-106680000D03*
X137550000Y-106680000D03*
X138820000Y-106680000D03*
X140090000Y-106680000D03*
X141360000Y-106680000D03*
X131200000Y-107950000D03*
X132470000Y-107950000D03*
X133740000Y-107950000D03*
X135010000Y-107950000D03*
X136280000Y-107950000D03*
X137550000Y-107950000D03*
X138820000Y-107950000D03*
X140090000Y-107950000D03*
X141360000Y-107950000D03*
X131200000Y-109220000D03*
X132470000Y-109220000D03*
X133740000Y-109220000D03*
X135010000Y-109220000D03*
X136280000Y-109220000D03*
X137550000Y-109220000D03*
X138820000Y-109220000D03*
X140090000Y-109220000D03*
X141360000Y-109220000D03*
X131200000Y-110490000D03*
X132470000Y-110490000D03*
X133740000Y-110490000D03*
X135010000Y-110490000D03*
X136280000Y-110490000D03*
X137550000Y-110490000D03*
X138820000Y-110490000D03*
X140090000Y-110490000D03*
X141360000Y-110490000D03*
X142600000Y-95300000D03*
X143870000Y-95300000D03*
X142600000Y-96570000D03*
X143870000Y-96570000D03*
X142600000Y-97840000D03*
X143870000Y-97840000D03*
X142600000Y-99110000D03*
X143870000Y-99110000D03*
X142600000Y-100380000D03*
X143870000Y-100380000D03*
X142600000Y-101650000D03*
X143870000Y-101650000D03*
X142600000Y-102920000D03*
X143870000Y-102920000D03*
X142600000Y-104190000D03*
X143870000Y-104190000D03*
X142600000Y-105460000D03*
X143870000Y-105460000D03*
X142600000Y-106730000D03*
X143870000Y-106730000D03*
X142600000Y-108000000D03*
X143870000Y-108000000D03*
X142600000Y-109270000D03*
X143870000Y-109270000D03*
X142600000Y-110540000D03*
X143870000Y-110540000D03*
X114200000Y-92600000D03*
X115470000Y-92600000D03*
X116740000Y-92600000D03*
X114200000Y-93870000D03*
X115470000Y-93870000D03*
X116740000Y-93870000D03*
X114200000Y-95140000D03*
X115470000Y-95140000D03*
X116740000Y-95140000D03*
X114200000Y-96410000D03*
X115470000Y-96410000D03*
X116740000Y-96410000D03*
X114200000Y-97680000D03*
X115470000Y-97680000D03*
X116740000Y-97680000D03*
X114200000Y-98950000D03*
X115470000Y-98950000D03*
X116740000Y-98950000D03*
X114200000Y-100220000D03*
X115470000Y-100220000D03*
X116740000Y-100220000D03*
X114200000Y-101490000D03*
X115470000Y-101490000D03*
X116740000Y-101490000D03*
X110800000Y-70900000D03*
X112070000Y-70900000D03*
X113340000Y-70900000D03*
X114610000Y-70900000D03*
X110800000Y-72170000D03*
X112070000Y-72170000D03*
X113340000Y-72170000D03*
X114610000Y-72170000D03*
X110800000Y-73440000D03*
X112070000Y-73440000D03*
X113340000Y-73440000D03*
X114610000Y-73440000D03*
X110800000Y-74710000D03*
X112070000Y-74710000D03*
X113340000Y-74710000D03*
X114610000Y-74710000D03*
X100000000Y-83700000D03*
X101270000Y-83700000D03*
X100000000Y-84970000D03*
X101270000Y-84970000D03*
X100000000Y-86240000D03*
X101270000Y-86240000D03*
X100000000Y-87510000D03*
X101270000Y-87510000D03*
X100000000Y-88780000D03*
X101270000Y-88780000D03*
X100000000Y-90050000D03*
X101270000Y-90050000D03*
X100000000Y-91320000D03*
X101270000Y-91320000D03*
X100000000Y-92590000D03*
X100000000Y-93860000D03*
X100000000Y-95130000D03*
X100000000Y-96400000D03*
X100000000Y-97670000D03*
X100000000Y-98940000D03*
X100000000Y-100210000D03*
X100000000Y-101480000D03*
X100000000Y-102750000D03*
X100000000Y-104020000D03*
X100000000Y-105290000D03*
X100000000Y-106560000D03*
X100000000Y-107830000D03*
X100000000Y-109100000D03*
X100000000Y-110370000D03*
X101270000Y-110370000D03*
X100000000Y-111640000D03*
X101270000Y-111640000D03*
X100000000Y-112910000D03*
X101270000Y-112910000D03*
X100000000Y-114180000D03*
X101270000Y-114180000D03*
X100000000Y-115450000D03*
X101270000Y-115450000D03*
X100000000Y-116720000D03*
X101270000Y-116720000D03*
X142600000Y-111700000D03*
X143870000Y-111700000D03*
X142600000Y-112970000D03*
X143870000Y-112970000D03*
X142600000Y-114240000D03*
X143870000Y-114240000D03*
X150780000Y-119400000D03*
X152050000Y-119400000D03*
X153320000Y-119400000D03*
X154590000Y-119400000D03*
X155860000Y-119400000D03*
X157130000Y-119400000D03*
X150400000Y-81600000D03*
X151670000Y-81600000D03*
X152940000Y-81600000D03*
X150400000Y-82870000D03*
X151670000Y-82870000D03*
X152940000Y-82870000D03*
X150400000Y-84140000D03*
X151670000Y-84140000D03*
X152940000Y-84140000D03*
X150400000Y-85410000D03*
X151670000Y-85410000D03*
X152940000Y-85410000D03*
X150400000Y-86680000D03*
X151670000Y-86680000D03*
X152940000Y-86680000D03*
X150400000Y-87950000D03*
X151670000Y-87950000D03*
X152940000Y-87950000D03*
X150400000Y-89220000D03*
X151670000Y-89220000D03*
X152940000Y-89220000D03*
X150400000Y-90490000D03*
X151670000Y-90490000D03*
X152940000Y-90490000D03*
X150400000Y-91760000D03*
X151670000Y-91760000D03*
X152940000Y-91760000D03*
X150400000Y-93030000D03*
X151670000Y-93030000D03*
X154200000Y-86700000D03*
X155470000Y-86700000D03*
X156740000Y-86700000D03*
X158010000Y-86700000D03*
X159280000Y-86700000D03*
X154200000Y-87970000D03*
X155470000Y-87970000D03*
X156740000Y-87970000D03*
X158010000Y-87970000D03*
X159280000Y-87970000D03*
X154200000Y-89240000D03*
X155470000Y-89240000D03*
X156740000Y-89240000D03*
X158010000Y-89240000D03*
X159280000Y-89240000D03*
X154200000Y-90510000D03*
X155470000Y-90510000D03*
X156740000Y-90510000D03*
X158010000Y-90510000D03*
X159280000Y-90510000D03*
X154600000Y-116500000D03*
X155870000Y-116500000D03*
X157140000Y-116500000D03*
X158410000Y-116500000D03*
X159680000Y-116500000D03*
X160950000Y-116500000D03*
X162220000Y-116500000D03*
X154600000Y-117770000D03*
X155870000Y-117770000D03*
X157140000Y-117770000D03*
X124200000Y-85800000D03*
X124200000Y-87070000D03*
X124200000Y-88340000D03*
X124200000Y-89610000D03*
X131200000Y-82800000D03*
X132500000Y-82800000D03*
X133800000Y-82800000D03*
X125200000Y-82800000D03*
X107500000Y-106100000D03*
X108900000Y-91600000D03*
X111200000Y-89500000D03*
X132200000Y-79200000D03*
X123600000Y-79000000D03*
X135900000Y-82500000D03*
X152200000Y-96400000D03*
X151100000Y-111625000D03*
X124100000Y-96900000D03*
X124000000Y-101200000D03*
X123400000Y-105200000D03*
X125200000Y-103500000D03*
X112500000Y-79500000D03*
X141100000Y-81000000D03*
X123300000Y-82200000D03*
X121660000Y-101960000D03*
X119800000Y-69200000D03*
X125100000Y-76400000D03*
X122900000Y-81000000D03*
D24*
X107500000Y-106100000D02*
X108600000Y-105000000D01*
X108600000Y-105000000D02*
X108600000Y-91900000D01*
X108600000Y-91900000D02*
X108900000Y-91600000D01*
X111200000Y-89500000D02*
X114000000Y-89500000D01*
X115560000Y-87940000D02*
X118110000Y-87940000D01*
X114000000Y-89500000D02*
X115560000Y-87940000D01*
X104600000Y-104980000D02*
X105100000Y-104480000D01*
X104900000Y-104680000D02*
X105100000Y-104480000D01*
X104900000Y-107540000D02*
X104900000Y-104680000D01*
X104900000Y-99200000D02*
X105100000Y-99400000D01*
X104900000Y-96000000D02*
X104900000Y-99200000D01*
X158402081Y-106060000D02*
X158442081Y-106100000D01*
X157200000Y-106060000D02*
X158402081Y-106060000D01*
X158442081Y-106100000D02*
X158800000Y-106100000D01*
X158800000Y-106100000D02*
X161000000Y-103900000D01*
X161000000Y-103900000D02*
X161000000Y-85900000D01*
X153800000Y-78700000D02*
X153800000Y-75000000D01*
X161000000Y-85900000D02*
X153800000Y-78700000D01*
X128900000Y-79200000D02*
X126400000Y-79200000D01*
X128900000Y-79200000D02*
X128700000Y-79200000D01*
X132200000Y-79200000D02*
X128900000Y-79200000D01*
X121260000Y-74060000D02*
X118200000Y-74060000D01*
X126400000Y-79200000D02*
X121260000Y-74060000D01*
X118200000Y-71520000D02*
X118950000Y-71520000D01*
X123600000Y-79565685D02*
X125034315Y-81000000D01*
X123600000Y-79000000D02*
X123600000Y-79565685D01*
X125034315Y-81000000D02*
X134400000Y-81000000D01*
X134400000Y-81000000D02*
X135900000Y-82500000D01*
X152200000Y-96400000D02*
X152200000Y-96965685D01*
X152200000Y-96965685D02*
X152200000Y-109900000D01*
X152200000Y-109959315D02*
X152200000Y-109900000D01*
X151100000Y-111059315D02*
X152200000Y-109959315D01*
X151100000Y-111625000D02*
X151100000Y-111059315D01*
X104900000Y-86971370D02*
X108328630Y-90400000D01*
X104900000Y-85840000D02*
X104900000Y-86971370D01*
X108328630Y-90400000D02*
X121425002Y-90400000D01*
X121425002Y-90400000D02*
X122500000Y-90400000D01*
X122500000Y-90400000D02*
X124100000Y-92000000D01*
X124100000Y-92000000D02*
X124100000Y-96900000D01*
X104900000Y-117700000D02*
X106031370Y-117700000D01*
X106031370Y-117700000D02*
X107100000Y-116631370D01*
X107100000Y-116631370D02*
X107100000Y-112200000D01*
X107100000Y-112200000D02*
X110300000Y-109000000D01*
X110300000Y-109000000D02*
X118334315Y-109000000D01*
X118334315Y-109000000D02*
X122334315Y-105000000D01*
X122334315Y-105000000D02*
X122334315Y-104965685D01*
X122334315Y-104965685D02*
X124000000Y-103300000D01*
X124000000Y-103300000D02*
X124000000Y-101200000D01*
X119720000Y-102748630D02*
X118600000Y-101628630D01*
X119720000Y-103880000D02*
X119720000Y-102748630D01*
X118600000Y-96160000D02*
X122060000Y-92700000D01*
X118600000Y-101628630D02*
X118600000Y-96160000D01*
X123400000Y-105200000D02*
X125100000Y-103500000D01*
X125100000Y-103500000D02*
X125200000Y-103500000D01*
X109370000Y-76370000D02*
X106550000Y-76370000D01*
X112500000Y-79500000D02*
X109370000Y-76370000D01*
X125734315Y-85200000D02*
X135200000Y-85200000D01*
X135200000Y-85200000D02*
X139400000Y-81000000D01*
X123300000Y-82765685D02*
X125734315Y-85200000D01*
X139400000Y-81000000D02*
X141100000Y-81000000D01*
X123300000Y-82200000D02*
X123300000Y-82765685D01*
X121660000Y-99000000D02*
X121660000Y-101960000D01*
X120365685Y-69200000D02*
X124200000Y-73034315D01*
X119800000Y-69200000D02*
X120365685Y-69200000D01*
X124200000Y-73034315D02*
X124200000Y-75500000D01*
X124200000Y-75500000D02*
X125100000Y-76400000D01*
X106550000Y-78910000D02*
X109710000Y-78910000D01*
X109710000Y-78910000D02*
X111800000Y-81000000D01*
X111800000Y-81000000D02*
X121000000Y-81000000D01*
X121000000Y-81000000D02*
X122900000Y-81000000D01*
D25*
G36*
X100917004Y-63388849D02*
G01*
X100700293Y-63457106D01*
X100307362Y-63667133D01*
X100103256Y-64023651D01*
X101700000Y-65620395D01*
X103296744Y-64023651D01*
X103092638Y-63667133D01*
X102649777Y-63436425D01*
X102495001Y-63391262D01*
X133089806Y-63438043D01*
X133082667Y-63451399D01*
X133075440Y-63475224D01*
X133073000Y-63500000D01*
X133073000Y-78400000D01*
X133075440Y-78424776D01*
X133082667Y-78448601D01*
X133094403Y-78470557D01*
X133110197Y-78489803D01*
X133129443Y-78505597D01*
X133151399Y-78517333D01*
X133175224Y-78524560D01*
X133200000Y-78527000D01*
X141800000Y-78527000D01*
X141824776Y-78524560D01*
X141848601Y-78517333D01*
X141870557Y-78505597D01*
X141889803Y-78489803D01*
X141905597Y-78470557D01*
X141917333Y-78448601D01*
X141924560Y-78424776D01*
X141927000Y-78400000D01*
X141927000Y-73250000D01*
X151411928Y-73250000D01*
X151411928Y-76750000D01*
X151424188Y-76874482D01*
X151460498Y-76994180D01*
X151519463Y-77104494D01*
X151598815Y-77201185D01*
X151695506Y-77280537D01*
X151805820Y-77339502D01*
X151925518Y-77375812D01*
X152050000Y-77388072D01*
X153040000Y-77388072D01*
X153040000Y-78662677D01*
X153036324Y-78700000D01*
X153040000Y-78737322D01*
X153040000Y-78737332D01*
X153050997Y-78848985D01*
X153085482Y-78962668D01*
X153094454Y-78992246D01*
X153165026Y-79124276D01*
X153179087Y-79141409D01*
X153259999Y-79240001D01*
X153289003Y-79263804D01*
X160240001Y-86214803D01*
X160240000Y-103585198D01*
X158517507Y-105307692D01*
X158479716Y-105303969D01*
X158440706Y-105230986D01*
X158255134Y-105004866D01*
X158029014Y-104819294D01*
X157974209Y-104790000D01*
X158029014Y-104760706D01*
X158255134Y-104575134D01*
X158440706Y-104349014D01*
X158578599Y-104091034D01*
X158663513Y-103811111D01*
X158692185Y-103520000D01*
X158663513Y-103228889D01*
X158578599Y-102948966D01*
X158440706Y-102690986D01*
X158255134Y-102464866D01*
X158029014Y-102279294D01*
X157974209Y-102250000D01*
X158029014Y-102220706D01*
X158255134Y-102035134D01*
X158440706Y-101809014D01*
X158578599Y-101551034D01*
X158663513Y-101271111D01*
X158692185Y-100980000D01*
X158663513Y-100688889D01*
X158578599Y-100408966D01*
X158440706Y-100150986D01*
X158255134Y-99924866D01*
X158029014Y-99739294D01*
X157974209Y-99710000D01*
X158029014Y-99680706D01*
X158255134Y-99495134D01*
X158440706Y-99269014D01*
X158578599Y-99011034D01*
X158663513Y-98731111D01*
X158692185Y-98440000D01*
X158663513Y-98148889D01*
X158578599Y-97868966D01*
X158440706Y-97610986D01*
X158255134Y-97384866D01*
X158029014Y-97199294D01*
X157974209Y-97170000D01*
X158029014Y-97140706D01*
X158255134Y-96955134D01*
X158440706Y-96729014D01*
X158578599Y-96471034D01*
X158663513Y-96191111D01*
X158692185Y-95900000D01*
X158663513Y-95608889D01*
X158578599Y-95328966D01*
X158440706Y-95070986D01*
X158255134Y-94844866D01*
X158029014Y-94659294D01*
X157974209Y-94630000D01*
X158029014Y-94600706D01*
X158255134Y-94415134D01*
X158440706Y-94189014D01*
X158578599Y-93931034D01*
X158663513Y-93651111D01*
X158692185Y-93360000D01*
X158663513Y-93068889D01*
X158578599Y-92788966D01*
X158440706Y-92530986D01*
X158255134Y-92304866D01*
X158029014Y-92119294D01*
X157771034Y-91981401D01*
X157491111Y-91896487D01*
X157272950Y-91875000D01*
X157127050Y-91875000D01*
X156908889Y-91896487D01*
X156628966Y-91981401D01*
X156370986Y-92119294D01*
X156144866Y-92304866D01*
X155959294Y-92530986D01*
X155821401Y-92788966D01*
X155736487Y-93068889D01*
X155707815Y-93360000D01*
X155736487Y-93651111D01*
X155821401Y-93931034D01*
X155959294Y-94189014D01*
X156144866Y-94415134D01*
X156370986Y-94600706D01*
X156425791Y-94630000D01*
X156370986Y-94659294D01*
X156144866Y-94844866D01*
X155959294Y-95070986D01*
X155821401Y-95328966D01*
X155736487Y-95608889D01*
X155707815Y-95900000D01*
X155736487Y-96191111D01*
X155821401Y-96471034D01*
X155959294Y-96729014D01*
X156144866Y-96955134D01*
X156370986Y-97140706D01*
X156425791Y-97170000D01*
X156370986Y-97199294D01*
X156144866Y-97384866D01*
X155959294Y-97610986D01*
X155821401Y-97868966D01*
X155736487Y-98148889D01*
X155707815Y-98440000D01*
X155736487Y-98731111D01*
X155821401Y-99011034D01*
X155959294Y-99269014D01*
X156144866Y-99495134D01*
X156370986Y-99680706D01*
X156425791Y-99710000D01*
X156370986Y-99739294D01*
X156144866Y-99924866D01*
X155959294Y-100150986D01*
X155821401Y-100408966D01*
X155736487Y-100688889D01*
X155707815Y-100980000D01*
X155736487Y-101271111D01*
X155821401Y-101551034D01*
X155959294Y-101809014D01*
X156144866Y-102035134D01*
X156370986Y-102220706D01*
X156425791Y-102250000D01*
X156370986Y-102279294D01*
X156144866Y-102464866D01*
X155959294Y-102690986D01*
X155821401Y-102948966D01*
X155736487Y-103228889D01*
X155707815Y-103520000D01*
X155736487Y-103811111D01*
X155821401Y-104091034D01*
X155959294Y-104349014D01*
X156144866Y-104575134D01*
X156370986Y-104760706D01*
X156425791Y-104790000D01*
X156370986Y-104819294D01*
X156144866Y-105004866D01*
X155959294Y-105230986D01*
X155821401Y-105488966D01*
X155736487Y-105768889D01*
X155707815Y-106060000D01*
X155736487Y-106351111D01*
X155821401Y-106631034D01*
X155959294Y-106889014D01*
X156144866Y-107115134D01*
X156174687Y-107139607D01*
X156105820Y-107160498D01*
X155995506Y-107219463D01*
X155898815Y-107298815D01*
X155819463Y-107395506D01*
X155760498Y-107505820D01*
X155724188Y-107625518D01*
X155711928Y-107750000D01*
X155715000Y-108314250D01*
X155873750Y-108473000D01*
X157073000Y-108473000D01*
X157073000Y-108453000D01*
X157327000Y-108453000D01*
X157327000Y-108473000D01*
X158526250Y-108473000D01*
X158685000Y-108314250D01*
X158688072Y-107750000D01*
X158675812Y-107625518D01*
X158639502Y-107505820D01*
X158580537Y-107395506D01*
X158501185Y-107298815D01*
X158404494Y-107219463D01*
X158294180Y-107160498D01*
X158225313Y-107139607D01*
X158255134Y-107115134D01*
X158440706Y-106889014D01*
X158454925Y-106862412D01*
X158479414Y-106860000D01*
X158762678Y-106860000D01*
X158800000Y-106863676D01*
X158837322Y-106860000D01*
X158837333Y-106860000D01*
X158948986Y-106849003D01*
X159092247Y-106805546D01*
X159224276Y-106734974D01*
X159340001Y-106640001D01*
X159363804Y-106610997D01*
X161511004Y-104463798D01*
X161540001Y-104440001D01*
X161634974Y-104324276D01*
X161705546Y-104192247D01*
X161749003Y-104048986D01*
X161760000Y-103937333D01*
X161760000Y-103937323D01*
X161763676Y-103900000D01*
X161760000Y-103862677D01*
X161760000Y-85937325D01*
X161763676Y-85900000D01*
X161760000Y-85862675D01*
X161760000Y-85862667D01*
X161749003Y-85751014D01*
X161705546Y-85607753D01*
X161634974Y-85475724D01*
X161540001Y-85359999D01*
X161511003Y-85336201D01*
X154560000Y-78385199D01*
X154560000Y-77388072D01*
X155550000Y-77388072D01*
X155674482Y-77375812D01*
X155794180Y-77339502D01*
X155904494Y-77280537D01*
X156001185Y-77201185D01*
X156080537Y-77104494D01*
X156139502Y-76994180D01*
X156175812Y-76874482D01*
X156188072Y-76750000D01*
X157411928Y-76750000D01*
X157424188Y-76874482D01*
X157460498Y-76994180D01*
X157519463Y-77104494D01*
X157598815Y-77201185D01*
X157695506Y-77280537D01*
X157805820Y-77339502D01*
X157925518Y-77375812D01*
X158050000Y-77388072D01*
X159514250Y-77385000D01*
X159673000Y-77226250D01*
X159673000Y-75127000D01*
X159927000Y-75127000D01*
X159927000Y-77226250D01*
X160085750Y-77385000D01*
X161550000Y-77388072D01*
X161674482Y-77375812D01*
X161794180Y-77339502D01*
X161904494Y-77280537D01*
X162001185Y-77201185D01*
X162080537Y-77104494D01*
X162139502Y-76994180D01*
X162175812Y-76874482D01*
X162188072Y-76750000D01*
X162185000Y-75285750D01*
X162026250Y-75127000D01*
X159927000Y-75127000D01*
X159673000Y-75127000D01*
X157573750Y-75127000D01*
X157415000Y-75285750D01*
X157411928Y-76750000D01*
X156188072Y-76750000D01*
X156188072Y-73250000D01*
X156175812Y-73125518D01*
X156139502Y-73005820D01*
X156080537Y-72895506D01*
X156001185Y-72798815D01*
X155904494Y-72719463D01*
X155845767Y-72688072D01*
X157754233Y-72688072D01*
X157695506Y-72719463D01*
X157598815Y-72798815D01*
X157519463Y-72895506D01*
X157460498Y-73005820D01*
X157424188Y-73125518D01*
X157411928Y-73250000D01*
X157415000Y-74714250D01*
X157573750Y-74873000D01*
X159673000Y-74873000D01*
X159673000Y-72773750D01*
X159927000Y-72773750D01*
X159927000Y-74873000D01*
X162026250Y-74873000D01*
X162185000Y-74714250D01*
X162188072Y-73250000D01*
X162175812Y-73125518D01*
X162139502Y-73005820D01*
X162080537Y-72895506D01*
X162001185Y-72798815D01*
X161904494Y-72719463D01*
X161794180Y-72660498D01*
X161674482Y-72624188D01*
X161550000Y-72611928D01*
X160085750Y-72615000D01*
X159927000Y-72773750D01*
X159673000Y-72773750D01*
X159514250Y-72615000D01*
X158842655Y-72613591D01*
X158904494Y-72580537D01*
X159001185Y-72501185D01*
X159080537Y-72404494D01*
X159139502Y-72294180D01*
X159175812Y-72174482D01*
X159188072Y-72050000D01*
X159188072Y-68550000D01*
X159175812Y-68425518D01*
X159139502Y-68305820D01*
X159080537Y-68195506D01*
X159051394Y-68159995D01*
X159250223Y-68263575D01*
X159729583Y-68403452D01*
X160227021Y-68447123D01*
X160723422Y-68392909D01*
X161199707Y-68242894D01*
X161592638Y-68032867D01*
X161796744Y-67676349D01*
X160200000Y-66079605D01*
X158603256Y-67676349D01*
X158759994Y-67950128D01*
X158674482Y-67924188D01*
X158550000Y-67911928D01*
X155050000Y-67911928D01*
X154925518Y-67924188D01*
X154805820Y-67960498D01*
X154695506Y-68019463D01*
X154598815Y-68098815D01*
X154519463Y-68195506D01*
X154460498Y-68305820D01*
X154424188Y-68425518D01*
X154411928Y-68550000D01*
X154411928Y-72050000D01*
X154424188Y-72174482D01*
X154460498Y-72294180D01*
X154519463Y-72404494D01*
X154598815Y-72501185D01*
X154695506Y-72580537D01*
X154754233Y-72611928D01*
X152050000Y-72611928D01*
X151925518Y-72624188D01*
X151805820Y-72660498D01*
X151695506Y-72719463D01*
X151598815Y-72798815D01*
X151519463Y-72895506D01*
X151460498Y-73005820D01*
X151424188Y-73125518D01*
X151411928Y-73250000D01*
X141927000Y-73250000D01*
X141927000Y-65927021D01*
X157652877Y-65927021D01*
X157707091Y-66423422D01*
X157857106Y-66899707D01*
X158067133Y-67292638D01*
X158423651Y-67496744D01*
X160020395Y-65900000D01*
X160379605Y-65900000D01*
X161976349Y-67496744D01*
X162332867Y-67292638D01*
X162563575Y-66849777D01*
X162703452Y-66370417D01*
X162747123Y-65872979D01*
X162692909Y-65376578D01*
X162542894Y-64900293D01*
X162332867Y-64507362D01*
X161976349Y-64303256D01*
X160379605Y-65900000D01*
X160020395Y-65900000D01*
X158423651Y-64303256D01*
X158067133Y-64507362D01*
X157836425Y-64950223D01*
X157696548Y-65429583D01*
X157652877Y-65927021D01*
X141927000Y-65927021D01*
X141927000Y-63500000D01*
X141924560Y-63475224D01*
X141917376Y-63451540D01*
X159450339Y-63478349D01*
X159200293Y-63557106D01*
X158807362Y-63767133D01*
X158603256Y-64123651D01*
X160200000Y-65720395D01*
X161796744Y-64123651D01*
X161592638Y-63767133D01*
X161149777Y-63536425D01*
X160958655Y-63480656D01*
X163116128Y-63483954D01*
X163213871Y-122716047D01*
X161257971Y-122719033D01*
X161499707Y-122642894D01*
X161892638Y-122432867D01*
X162096744Y-122076349D01*
X160500000Y-120479605D01*
X158903256Y-122076349D01*
X159107362Y-122432867D01*
X159550223Y-122663575D01*
X159748179Y-122721338D01*
X102751407Y-122808357D01*
X102892638Y-122732867D01*
X103096744Y-122376349D01*
X101500000Y-120779605D01*
X99903256Y-122376349D01*
X100107362Y-122732867D01*
X100259573Y-122812161D01*
X99085000Y-122813954D01*
X99085000Y-121370777D01*
X99157106Y-121599707D01*
X99367133Y-121992638D01*
X99723651Y-122196744D01*
X101320395Y-120600000D01*
X101679605Y-120600000D01*
X103276349Y-122196744D01*
X103632867Y-121992638D01*
X103863575Y-121549777D01*
X104003452Y-121070417D01*
X104047123Y-120572979D01*
X104020261Y-120327021D01*
X157952877Y-120327021D01*
X158007091Y-120823422D01*
X158157106Y-121299707D01*
X158367133Y-121692638D01*
X158723651Y-121896744D01*
X160320395Y-120300000D01*
X160679605Y-120300000D01*
X162276349Y-121896744D01*
X162632867Y-121692638D01*
X162863575Y-121249777D01*
X163003452Y-120770417D01*
X163047123Y-120272979D01*
X162992909Y-119776578D01*
X162842894Y-119300293D01*
X162632867Y-118907362D01*
X162276349Y-118703256D01*
X160679605Y-120300000D01*
X160320395Y-120300000D01*
X158723651Y-118703256D01*
X158367133Y-118907362D01*
X158136425Y-119350223D01*
X157996548Y-119829583D01*
X157952877Y-120327021D01*
X104020261Y-120327021D01*
X103992909Y-120076578D01*
X103842894Y-119600293D01*
X103632867Y-119207362D01*
X103276349Y-119003256D01*
X101679605Y-120600000D01*
X101320395Y-120600000D01*
X99723651Y-119003256D01*
X99367133Y-119207362D01*
X99136425Y-119650223D01*
X99085000Y-119826457D01*
X99085000Y-118823651D01*
X99903256Y-118823651D01*
X101500000Y-120420395D01*
X103096744Y-118823651D01*
X102892638Y-118467133D01*
X102449777Y-118236425D01*
X101970417Y-118096548D01*
X101472979Y-118052877D01*
X100976578Y-118107091D01*
X100500293Y-118257106D01*
X100107362Y-118467133D01*
X99903256Y-118823651D01*
X99085000Y-118823651D01*
X99085000Y-117558665D01*
X103465000Y-117558665D01*
X103465000Y-117841335D01*
X103520147Y-118118574D01*
X103628320Y-118379727D01*
X103785363Y-118614759D01*
X103985241Y-118814637D01*
X104220273Y-118971680D01*
X104481426Y-119079853D01*
X104758665Y-119135000D01*
X105041335Y-119135000D01*
X105318574Y-119079853D01*
X105579727Y-118971680D01*
X105814759Y-118814637D01*
X106014637Y-118614759D01*
X106121519Y-118454798D01*
X106180356Y-118449003D01*
X106323617Y-118405546D01*
X106455646Y-118334974D01*
X106571371Y-118240001D01*
X106595174Y-118210998D01*
X107611004Y-117195168D01*
X107640001Y-117171371D01*
X107650428Y-117158665D01*
X108965000Y-117158665D01*
X108965000Y-117441335D01*
X109020147Y-117718574D01*
X109128320Y-117979727D01*
X109285363Y-118214759D01*
X109485241Y-118414637D01*
X109720273Y-118571680D01*
X109981426Y-118679853D01*
X110258665Y-118735000D01*
X110541335Y-118735000D01*
X110818574Y-118679853D01*
X111079727Y-118571680D01*
X111314759Y-118414637D01*
X111514637Y-118214759D01*
X111671680Y-117979727D01*
X111779853Y-117718574D01*
X111835000Y-117441335D01*
X111835000Y-117300000D01*
X119118057Y-117300000D01*
X119145764Y-117581309D01*
X119227818Y-117851808D01*
X119361068Y-118101101D01*
X119540392Y-118319608D01*
X119758899Y-118498932D01*
X120008192Y-118632182D01*
X120278691Y-118714236D01*
X120489508Y-118735000D01*
X120630492Y-118735000D01*
X120841309Y-118714236D01*
X121111808Y-118632182D01*
X121361101Y-118498932D01*
X121579608Y-118319608D01*
X121758932Y-118101101D01*
X121892182Y-117851808D01*
X121974236Y-117581309D01*
X121997018Y-117350000D01*
X133511928Y-117350000D01*
X133511928Y-119050000D01*
X133524188Y-119174482D01*
X133560498Y-119294180D01*
X133619463Y-119404494D01*
X133698815Y-119501185D01*
X133795506Y-119580537D01*
X133905820Y-119639502D01*
X134025518Y-119675812D01*
X134150000Y-119688072D01*
X135850000Y-119688072D01*
X135974482Y-119675812D01*
X136094180Y-119639502D01*
X136204494Y-119580537D01*
X136301185Y-119501185D01*
X136380537Y-119404494D01*
X136439502Y-119294180D01*
X136463966Y-119213534D01*
X136539731Y-119297588D01*
X136773080Y-119471641D01*
X137035901Y-119596825D01*
X137183110Y-119641476D01*
X137413000Y-119520155D01*
X137413000Y-118327000D01*
X137393000Y-118327000D01*
X137393000Y-118073000D01*
X137413000Y-118073000D01*
X137413000Y-116879845D01*
X137667000Y-116879845D01*
X137667000Y-118073000D01*
X137687000Y-118073000D01*
X137687000Y-118327000D01*
X137667000Y-118327000D01*
X137667000Y-119520155D01*
X137896890Y-119641476D01*
X138044099Y-119596825D01*
X138306920Y-119471641D01*
X138540269Y-119297588D01*
X138735178Y-119081355D01*
X138804799Y-118964477D01*
X138839294Y-119029014D01*
X139024866Y-119255134D01*
X139250986Y-119440706D01*
X139508966Y-119578599D01*
X139788889Y-119663513D01*
X140007050Y-119685000D01*
X140152950Y-119685000D01*
X140371111Y-119663513D01*
X140651034Y-119578599D01*
X140909014Y-119440706D01*
X141135134Y-119255134D01*
X141320706Y-119029014D01*
X141458599Y-118771034D01*
X141533642Y-118523651D01*
X158903256Y-118523651D01*
X160500000Y-120120395D01*
X162096744Y-118523651D01*
X161892638Y-118167133D01*
X161449777Y-117936425D01*
X160970417Y-117796548D01*
X160472979Y-117752877D01*
X159976578Y-117807091D01*
X159500293Y-117957106D01*
X159107362Y-118167133D01*
X158903256Y-118523651D01*
X141533642Y-118523651D01*
X141543513Y-118491111D01*
X141572185Y-118200000D01*
X141543513Y-117908889D01*
X141458599Y-117628966D01*
X141320706Y-117370986D01*
X141135134Y-117144866D01*
X140909014Y-116959294D01*
X140651034Y-116821401D01*
X140371111Y-116736487D01*
X140152950Y-116715000D01*
X140007050Y-116715000D01*
X139788889Y-116736487D01*
X139508966Y-116821401D01*
X139250986Y-116959294D01*
X139024866Y-117144866D01*
X138839294Y-117370986D01*
X138804799Y-117435523D01*
X138735178Y-117318645D01*
X138540269Y-117102412D01*
X138306920Y-116928359D01*
X138044099Y-116803175D01*
X137896890Y-116758524D01*
X137667000Y-116879845D01*
X137413000Y-116879845D01*
X137183110Y-116758524D01*
X137035901Y-116803175D01*
X136773080Y-116928359D01*
X136539731Y-117102412D01*
X136463966Y-117186466D01*
X136439502Y-117105820D01*
X136380537Y-116995506D01*
X136301185Y-116898815D01*
X136204494Y-116819463D01*
X136094180Y-116760498D01*
X135974482Y-116724188D01*
X135850000Y-116711928D01*
X134150000Y-116711928D01*
X134025518Y-116724188D01*
X133905820Y-116760498D01*
X133795506Y-116819463D01*
X133698815Y-116898815D01*
X133619463Y-116995506D01*
X133560498Y-117105820D01*
X133524188Y-117225518D01*
X133511928Y-117350000D01*
X121997018Y-117350000D01*
X122001943Y-117300000D01*
X121974236Y-117018691D01*
X121892182Y-116748192D01*
X121758932Y-116498899D01*
X121579608Y-116280392D01*
X121361101Y-116101068D01*
X121111808Y-115967818D01*
X120841309Y-115885764D01*
X120630492Y-115865000D01*
X120489508Y-115865000D01*
X120278691Y-115885764D01*
X120008192Y-115967818D01*
X119758899Y-116101068D01*
X119540392Y-116280392D01*
X119361068Y-116498899D01*
X119227818Y-116748192D01*
X119145764Y-117018691D01*
X119118057Y-117300000D01*
X111835000Y-117300000D01*
X111835000Y-117158665D01*
X111779853Y-116881426D01*
X111671680Y-116620273D01*
X111514637Y-116385241D01*
X111314759Y-116185363D01*
X111079727Y-116028320D01*
X110818574Y-115920147D01*
X110541335Y-115865000D01*
X110258665Y-115865000D01*
X109981426Y-115920147D01*
X109720273Y-116028320D01*
X109485241Y-116185363D01*
X109285363Y-116385241D01*
X109128320Y-116620273D01*
X109020147Y-116881426D01*
X108965000Y-117158665D01*
X107650428Y-117158665D01*
X107666332Y-117139287D01*
X107734974Y-117055647D01*
X107805546Y-116923617D01*
X107837140Y-116819463D01*
X107849003Y-116780356D01*
X107860000Y-116668703D01*
X107860000Y-116668694D01*
X107863676Y-116631371D01*
X107860000Y-116594048D01*
X107860000Y-112514801D01*
X108074801Y-112300000D01*
X110661928Y-112300000D01*
X110674188Y-112424482D01*
X110710498Y-112544180D01*
X110769463Y-112654494D01*
X110848815Y-112751185D01*
X110945506Y-112830537D01*
X111055820Y-112889502D01*
X111175518Y-112925812D01*
X111300000Y-112938072D01*
X111814250Y-112935000D01*
X111973000Y-112776250D01*
X111973000Y-111627000D01*
X112227000Y-111627000D01*
X112227000Y-112776250D01*
X112385750Y-112935000D01*
X112900000Y-112938072D01*
X113024482Y-112925812D01*
X113144180Y-112889502D01*
X113254494Y-112830537D01*
X113351185Y-112751185D01*
X113430537Y-112654494D01*
X113489502Y-112544180D01*
X113525812Y-112424482D01*
X113528231Y-112399920D01*
X113676586Y-112563519D01*
X113902580Y-112731037D01*
X114156913Y-112851246D01*
X114290961Y-112891904D01*
X114513000Y-112769915D01*
X114513000Y-111627000D01*
X114767000Y-111627000D01*
X114767000Y-112769915D01*
X114989039Y-112891904D01*
X115123087Y-112851246D01*
X115377420Y-112731037D01*
X115603414Y-112563519D01*
X115792385Y-112355131D01*
X115910000Y-112159018D01*
X116027615Y-112355131D01*
X116216586Y-112563519D01*
X116442580Y-112731037D01*
X116696913Y-112851246D01*
X116830961Y-112891904D01*
X117053000Y-112769915D01*
X117053000Y-111627000D01*
X117307000Y-111627000D01*
X117307000Y-112769915D01*
X117529039Y-112891904D01*
X117663087Y-112851246D01*
X117917420Y-112731037D01*
X118143414Y-112563519D01*
X118332385Y-112355131D01*
X118450000Y-112159018D01*
X118567615Y-112355131D01*
X118756586Y-112563519D01*
X118982580Y-112731037D01*
X119236913Y-112851246D01*
X119370961Y-112891904D01*
X119593000Y-112769915D01*
X119593000Y-111627000D01*
X119847000Y-111627000D01*
X119847000Y-112769915D01*
X120069039Y-112891904D01*
X120203087Y-112851246D01*
X120457420Y-112731037D01*
X120683414Y-112563519D01*
X120872385Y-112355131D01*
X121017070Y-112113881D01*
X121111909Y-111849040D01*
X120990624Y-111627000D01*
X119847000Y-111627000D01*
X119593000Y-111627000D01*
X117307000Y-111627000D01*
X117053000Y-111627000D01*
X114767000Y-111627000D01*
X114513000Y-111627000D01*
X112227000Y-111627000D01*
X111973000Y-111627000D01*
X110823750Y-111627000D01*
X110665000Y-111785750D01*
X110661928Y-112300000D01*
X108074801Y-112300000D01*
X108851740Y-111523061D01*
X150065000Y-111523061D01*
X150065000Y-111726939D01*
X150104774Y-111926898D01*
X150182795Y-112115256D01*
X150296063Y-112284774D01*
X150440226Y-112428937D01*
X150609744Y-112542205D01*
X150798102Y-112620226D01*
X150998061Y-112660000D01*
X151201939Y-112660000D01*
X151401898Y-112620226D01*
X151590256Y-112542205D01*
X151759774Y-112428937D01*
X151903937Y-112284774D01*
X152017205Y-112115256D01*
X152095226Y-111926898D01*
X152135000Y-111726939D01*
X152135000Y-111523061D01*
X152095226Y-111323102D01*
X152041271Y-111192845D01*
X152711004Y-110523113D01*
X152740001Y-110499316D01*
X152788680Y-110440001D01*
X152834974Y-110383592D01*
X152905546Y-110251562D01*
X152912061Y-110230085D01*
X152949003Y-110108301D01*
X152960000Y-109996648D01*
X152960000Y-109996638D01*
X152963676Y-109959315D01*
X152960000Y-109921992D01*
X152960000Y-109450000D01*
X155711928Y-109450000D01*
X155724188Y-109574482D01*
X155760498Y-109694180D01*
X155819463Y-109804494D01*
X155898815Y-109901185D01*
X155995506Y-109980537D01*
X156105820Y-110039502D01*
X156225518Y-110075812D01*
X156350000Y-110088072D01*
X156914250Y-110085000D01*
X157073000Y-109926250D01*
X157073000Y-108727000D01*
X157327000Y-108727000D01*
X157327000Y-109926250D01*
X157485750Y-110085000D01*
X158050000Y-110088072D01*
X158174482Y-110075812D01*
X158294180Y-110039502D01*
X158404494Y-109980537D01*
X158501185Y-109901185D01*
X158580537Y-109804494D01*
X158639502Y-109694180D01*
X158675812Y-109574482D01*
X158688072Y-109450000D01*
X158685000Y-108885750D01*
X158526250Y-108727000D01*
X157327000Y-108727000D01*
X157073000Y-108727000D01*
X155873750Y-108727000D01*
X155715000Y-108885750D01*
X155711928Y-109450000D01*
X152960000Y-109450000D01*
X152960000Y-97103711D01*
X153003937Y-97059774D01*
X153117205Y-96890256D01*
X153195226Y-96701898D01*
X153235000Y-96501939D01*
X153235000Y-96298061D01*
X153195226Y-96098102D01*
X153117205Y-95909744D01*
X153003937Y-95740226D01*
X152859774Y-95596063D01*
X152690256Y-95482795D01*
X152501898Y-95404774D01*
X152301939Y-95365000D01*
X152098061Y-95365000D01*
X151898102Y-95404774D01*
X151709744Y-95482795D01*
X151540226Y-95596063D01*
X151396063Y-95740226D01*
X151282795Y-95909744D01*
X151204774Y-96098102D01*
X151165000Y-96298061D01*
X151165000Y-96501939D01*
X151204774Y-96701898D01*
X151282795Y-96890256D01*
X151396063Y-97059774D01*
X151440000Y-97103711D01*
X151440001Y-109644512D01*
X150588998Y-110495516D01*
X150560000Y-110519314D01*
X150536202Y-110548312D01*
X150536201Y-110548313D01*
X150465026Y-110635039D01*
X150426137Y-110707795D01*
X150394454Y-110767068D01*
X150351013Y-110910276D01*
X150296063Y-110965226D01*
X150182795Y-111134744D01*
X150104774Y-111323102D01*
X150065000Y-111523061D01*
X108851740Y-111523061D01*
X109674802Y-110700000D01*
X110661928Y-110700000D01*
X110665000Y-111214250D01*
X110823750Y-111373000D01*
X111973000Y-111373000D01*
X111973000Y-110223750D01*
X112227000Y-110223750D01*
X112227000Y-111373000D01*
X114513000Y-111373000D01*
X114513000Y-110230085D01*
X114767000Y-110230085D01*
X114767000Y-111373000D01*
X117053000Y-111373000D01*
X117053000Y-110230085D01*
X117307000Y-110230085D01*
X117307000Y-111373000D01*
X119593000Y-111373000D01*
X119593000Y-110230085D01*
X119847000Y-110230085D01*
X119847000Y-111373000D01*
X120990624Y-111373000D01*
X121111909Y-111150960D01*
X121017070Y-110886119D01*
X120872385Y-110644869D01*
X120683414Y-110436481D01*
X120457420Y-110268963D01*
X120203087Y-110148754D01*
X120069039Y-110108096D01*
X119847000Y-110230085D01*
X119593000Y-110230085D01*
X119370961Y-110108096D01*
X119236913Y-110148754D01*
X118982580Y-110268963D01*
X118756586Y-110436481D01*
X118567615Y-110644869D01*
X118450000Y-110840982D01*
X118332385Y-110644869D01*
X118143414Y-110436481D01*
X117917420Y-110268963D01*
X117663087Y-110148754D01*
X117529039Y-110108096D01*
X117307000Y-110230085D01*
X117053000Y-110230085D01*
X116830961Y-110108096D01*
X116696913Y-110148754D01*
X116442580Y-110268963D01*
X116216586Y-110436481D01*
X116027615Y-110644869D01*
X115910000Y-110840982D01*
X115792385Y-110644869D01*
X115603414Y-110436481D01*
X115377420Y-110268963D01*
X115123087Y-110148754D01*
X114989039Y-110108096D01*
X114767000Y-110230085D01*
X114513000Y-110230085D01*
X114290961Y-110108096D01*
X114156913Y-110148754D01*
X113902580Y-110268963D01*
X113676586Y-110436481D01*
X113528231Y-110600080D01*
X113525812Y-110575518D01*
X113489502Y-110455820D01*
X113430537Y-110345506D01*
X113351185Y-110248815D01*
X113254494Y-110169463D01*
X113144180Y-110110498D01*
X113024482Y-110074188D01*
X112900000Y-110061928D01*
X112385750Y-110065000D01*
X112227000Y-110223750D01*
X111973000Y-110223750D01*
X111814250Y-110065000D01*
X111300000Y-110061928D01*
X111175518Y-110074188D01*
X111055820Y-110110498D01*
X110945506Y-110169463D01*
X110848815Y-110248815D01*
X110769463Y-110345506D01*
X110710498Y-110455820D01*
X110674188Y-110575518D01*
X110661928Y-110700000D01*
X109674802Y-110700000D01*
X110614803Y-109760000D01*
X118296993Y-109760000D01*
X118334315Y-109763676D01*
X118371637Y-109760000D01*
X118371648Y-109760000D01*
X118483301Y-109749003D01*
X118626562Y-109705546D01*
X118758591Y-109634974D01*
X118874316Y-109540001D01*
X118898119Y-109510997D01*
X122577350Y-105831767D01*
X122596063Y-105859774D01*
X122740226Y-106003937D01*
X122909744Y-106117205D01*
X123098102Y-106195226D01*
X123298061Y-106235000D01*
X123501939Y-106235000D01*
X123701898Y-106195226D01*
X123890256Y-106117205D01*
X124059774Y-106003937D01*
X124203937Y-105859774D01*
X124317205Y-105690256D01*
X124395226Y-105501898D01*
X124435000Y-105301939D01*
X124435000Y-105239801D01*
X125139802Y-104535000D01*
X125301939Y-104535000D01*
X125501898Y-104495226D01*
X125690256Y-104417205D01*
X125859774Y-104303937D01*
X126003937Y-104159774D01*
X126117205Y-103990256D01*
X126195226Y-103801898D01*
X126235000Y-103601939D01*
X126235000Y-103398061D01*
X126195226Y-103198102D01*
X126117205Y-103009744D01*
X126003937Y-102840226D01*
X125859774Y-102696063D01*
X125690256Y-102582795D01*
X125501898Y-102504774D01*
X125301939Y-102465000D01*
X125098061Y-102465000D01*
X124898102Y-102504774D01*
X124760000Y-102561978D01*
X124760000Y-101903711D01*
X124803937Y-101859774D01*
X124917205Y-101690256D01*
X124995226Y-101501898D01*
X125035000Y-101301939D01*
X125035000Y-101098061D01*
X124995226Y-100898102D01*
X124917205Y-100709744D01*
X124803937Y-100540226D01*
X124659774Y-100396063D01*
X124490256Y-100282795D01*
X124301898Y-100204774D01*
X124101939Y-100165000D01*
X123898061Y-100165000D01*
X123698102Y-100204774D01*
X123509744Y-100282795D01*
X123340226Y-100396063D01*
X123196063Y-100540226D01*
X123082795Y-100709744D01*
X123004774Y-100898102D01*
X122965000Y-101098061D01*
X122965000Y-101301939D01*
X123004774Y-101501898D01*
X123082795Y-101690256D01*
X123196063Y-101859774D01*
X123240001Y-101903712D01*
X123240000Y-102985198D01*
X121823316Y-104401883D01*
X121794314Y-104425684D01*
X121699341Y-104541409D01*
X121677795Y-104581718D01*
X118019514Y-108240000D01*
X110337322Y-108240000D01*
X110299999Y-108236324D01*
X110262676Y-108240000D01*
X110262667Y-108240000D01*
X110151014Y-108250997D01*
X110007753Y-108294454D01*
X109875724Y-108365026D01*
X109875722Y-108365027D01*
X109875723Y-108365027D01*
X109788996Y-108436201D01*
X109788992Y-108436205D01*
X109759999Y-108459999D01*
X109736205Y-108488992D01*
X106588998Y-111636201D01*
X106560000Y-111659999D01*
X106536202Y-111688997D01*
X106536201Y-111688998D01*
X106465026Y-111775724D01*
X106394454Y-111907754D01*
X106350998Y-112051015D01*
X106336324Y-112200000D01*
X106340001Y-112237332D01*
X106340000Y-116316568D01*
X105942982Y-116713586D01*
X105814759Y-116585363D01*
X105579727Y-116428320D01*
X105318574Y-116320147D01*
X105041335Y-116265000D01*
X104758665Y-116265000D01*
X104481426Y-116320147D01*
X104220273Y-116428320D01*
X103985241Y-116585363D01*
X103785363Y-116785241D01*
X103628320Y-117020273D01*
X103520147Y-117281426D01*
X103465000Y-117558665D01*
X99085000Y-117558665D01*
X99085000Y-107540000D01*
X103458057Y-107540000D01*
X103485764Y-107821309D01*
X103567818Y-108091808D01*
X103701068Y-108341101D01*
X103880392Y-108559608D01*
X104098899Y-108738932D01*
X104348192Y-108872182D01*
X104618691Y-108954236D01*
X104829508Y-108975000D01*
X104970492Y-108975000D01*
X105181309Y-108954236D01*
X105451808Y-108872182D01*
X105701101Y-108738932D01*
X105919608Y-108559608D01*
X106098932Y-108341101D01*
X106232182Y-108091808D01*
X106314236Y-107821309D01*
X106341943Y-107540000D01*
X106314236Y-107258691D01*
X106232182Y-106988192D01*
X106098932Y-106738899D01*
X105919608Y-106520392D01*
X105701101Y-106341068D01*
X105660000Y-106319099D01*
X105660000Y-105909512D01*
X105827095Y-105840299D01*
X106078505Y-105672312D01*
X106292312Y-105458505D01*
X106460299Y-105207095D01*
X106576011Y-104927743D01*
X106635000Y-104631184D01*
X106635000Y-104328816D01*
X106576011Y-104032257D01*
X106460299Y-103752905D01*
X106292312Y-103501495D01*
X106078505Y-103287688D01*
X105924895Y-103185049D01*
X105984475Y-103004080D01*
X105100000Y-102119605D01*
X104215525Y-103004080D01*
X104275105Y-103185049D01*
X104121495Y-103287688D01*
X103907688Y-103501495D01*
X103739701Y-103752905D01*
X103623989Y-104032257D01*
X103565000Y-104328816D01*
X103565000Y-104631184D01*
X103623989Y-104927743D01*
X103739701Y-105207095D01*
X103907688Y-105458505D01*
X104121495Y-105672312D01*
X104140001Y-105684677D01*
X104140000Y-106319099D01*
X104098899Y-106341068D01*
X103880392Y-106520392D01*
X103701068Y-106738899D01*
X103567818Y-106988192D01*
X103485764Y-107258691D01*
X103458057Y-107540000D01*
X99085000Y-107540000D01*
X99085000Y-95858665D01*
X103465000Y-95858665D01*
X103465000Y-96141335D01*
X103520147Y-96418574D01*
X103628320Y-96679727D01*
X103785363Y-96914759D01*
X103985241Y-97114637D01*
X104140000Y-97218044D01*
X104140001Y-97867837D01*
X104075518Y-97874188D01*
X103955820Y-97910498D01*
X103845506Y-97969463D01*
X103748815Y-98048815D01*
X103669463Y-98145506D01*
X103610498Y-98255820D01*
X103574188Y-98375518D01*
X103561928Y-98500000D01*
X103561928Y-100300000D01*
X103574188Y-100424482D01*
X103610498Y-100544180D01*
X103669463Y-100654494D01*
X103748815Y-100751185D01*
X103845506Y-100830537D01*
X103955820Y-100889502D01*
X103966735Y-100892813D01*
X103919970Y-100939578D01*
X104035918Y-101055526D01*
X103781739Y-101139208D01*
X103650842Y-101411775D01*
X103575635Y-101704642D01*
X103559009Y-102006553D01*
X103601603Y-102305907D01*
X103701778Y-102591199D01*
X103781739Y-102740792D01*
X104035920Y-102824475D01*
X104920395Y-101940000D01*
X104906253Y-101925858D01*
X105085858Y-101746253D01*
X105100000Y-101760395D01*
X105114143Y-101746253D01*
X105293748Y-101925858D01*
X105279605Y-101940000D01*
X106164080Y-102824475D01*
X106418261Y-102740792D01*
X106549158Y-102468225D01*
X106624365Y-102175358D01*
X106640991Y-101873447D01*
X106598397Y-101574093D01*
X106498222Y-101288801D01*
X106418261Y-101139208D01*
X106164082Y-101055526D01*
X106280030Y-100939578D01*
X106233265Y-100892813D01*
X106244180Y-100889502D01*
X106354494Y-100830537D01*
X106451185Y-100751185D01*
X106530537Y-100654494D01*
X106589502Y-100544180D01*
X106625812Y-100424482D01*
X106638072Y-100300000D01*
X106638072Y-98500000D01*
X106625812Y-98375518D01*
X106589502Y-98255820D01*
X106530537Y-98145506D01*
X106451185Y-98048815D01*
X106354494Y-97969463D01*
X106244180Y-97910498D01*
X106124482Y-97874188D01*
X106000000Y-97861928D01*
X105660000Y-97861928D01*
X105660000Y-97218043D01*
X105814759Y-97114637D01*
X106014637Y-96914759D01*
X106171680Y-96679727D01*
X106279853Y-96418574D01*
X106335000Y-96141335D01*
X106335000Y-95858665D01*
X106279853Y-95581426D01*
X106171680Y-95320273D01*
X106014637Y-95085241D01*
X105814759Y-94885363D01*
X105579727Y-94728320D01*
X105318574Y-94620147D01*
X105041335Y-94565000D01*
X104758665Y-94565000D01*
X104481426Y-94620147D01*
X104220273Y-94728320D01*
X103985241Y-94885363D01*
X103785363Y-95085241D01*
X103628320Y-95320273D01*
X103520147Y-95581426D01*
X103465000Y-95858665D01*
X99085000Y-95858665D01*
X99085000Y-85840000D01*
X103458057Y-85840000D01*
X103485764Y-86121309D01*
X103567818Y-86391808D01*
X103701068Y-86641101D01*
X103880392Y-86859608D01*
X104098899Y-87038932D01*
X104145428Y-87063802D01*
X104150998Y-87120355D01*
X104194454Y-87263616D01*
X104265026Y-87395646D01*
X104336201Y-87482372D01*
X104360000Y-87511371D01*
X104388998Y-87535169D01*
X107764830Y-90911002D01*
X107788629Y-90940001D01*
X107817627Y-90963799D01*
X107904353Y-91034974D01*
X107998964Y-91085545D01*
X107982795Y-91109744D01*
X107904774Y-91298102D01*
X107865000Y-91498061D01*
X107865000Y-91701939D01*
X107865350Y-91703700D01*
X107850998Y-91751015D01*
X107836324Y-91900000D01*
X107840001Y-91937332D01*
X107840000Y-104685198D01*
X107460199Y-105065000D01*
X107398061Y-105065000D01*
X107198102Y-105104774D01*
X107009744Y-105182795D01*
X106840226Y-105296063D01*
X106696063Y-105440226D01*
X106582795Y-105609744D01*
X106504774Y-105798102D01*
X106465000Y-105998061D01*
X106465000Y-106201939D01*
X106504774Y-106401898D01*
X106582795Y-106590256D01*
X106696063Y-106759774D01*
X106840226Y-106903937D01*
X107009744Y-107017205D01*
X107198102Y-107095226D01*
X107398061Y-107135000D01*
X107601939Y-107135000D01*
X107801898Y-107095226D01*
X107990256Y-107017205D01*
X108159774Y-106903937D01*
X108303937Y-106759774D01*
X108417205Y-106590256D01*
X108495226Y-106401898D01*
X108535000Y-106201939D01*
X108535000Y-106139801D01*
X109111004Y-105563798D01*
X109140001Y-105540001D01*
X109175947Y-105496201D01*
X109234974Y-105424277D01*
X109305546Y-105292247D01*
X109327461Y-105220001D01*
X109349003Y-105148986D01*
X109360000Y-105037333D01*
X109360000Y-105037323D01*
X109363676Y-105000000D01*
X109360000Y-104962677D01*
X109360000Y-103880000D01*
X110658057Y-103880000D01*
X110685764Y-104161309D01*
X110767818Y-104431808D01*
X110901068Y-104681101D01*
X111080392Y-104899608D01*
X111298899Y-105078932D01*
X111548192Y-105212182D01*
X111818691Y-105294236D01*
X112029508Y-105315000D01*
X112170492Y-105315000D01*
X112381309Y-105294236D01*
X112651808Y-105212182D01*
X112901101Y-105078932D01*
X113119608Y-104899608D01*
X113298932Y-104681101D01*
X113372579Y-104543318D01*
X113487615Y-104735131D01*
X113676586Y-104943519D01*
X113902580Y-105111037D01*
X114156913Y-105231246D01*
X114290961Y-105271904D01*
X114513000Y-105149915D01*
X114513000Y-104007000D01*
X114493000Y-104007000D01*
X114493000Y-103753000D01*
X114513000Y-103753000D01*
X114513000Y-102610085D01*
X114290961Y-102488096D01*
X114156913Y-102528754D01*
X113902580Y-102648963D01*
X113676586Y-102816481D01*
X113487615Y-103024869D01*
X113372579Y-103216682D01*
X113298932Y-103078899D01*
X113119608Y-102860392D01*
X112901101Y-102681068D01*
X112651808Y-102547818D01*
X112381309Y-102465764D01*
X112170492Y-102445000D01*
X112029508Y-102445000D01*
X111818691Y-102465764D01*
X111548192Y-102547818D01*
X111298899Y-102681068D01*
X111080392Y-102860392D01*
X110901068Y-103078899D01*
X110767818Y-103328192D01*
X110685764Y-103598691D01*
X110658057Y-103880000D01*
X109360000Y-103880000D01*
X109360000Y-98858665D01*
X110065000Y-98858665D01*
X110065000Y-99141335D01*
X110120147Y-99418574D01*
X110228320Y-99679727D01*
X110385363Y-99914759D01*
X110585241Y-100114637D01*
X110820273Y-100271680D01*
X111081426Y-100379853D01*
X111358665Y-100435000D01*
X111641335Y-100435000D01*
X111918574Y-100379853D01*
X112179727Y-100271680D01*
X112414759Y-100114637D01*
X112614637Y-99914759D01*
X112771680Y-99679727D01*
X112879853Y-99418574D01*
X112935000Y-99141335D01*
X112935000Y-98858665D01*
X112879853Y-98581426D01*
X112771680Y-98320273D01*
X112614637Y-98085241D01*
X112414759Y-97885363D01*
X112179727Y-97728320D01*
X111918574Y-97620147D01*
X111641335Y-97565000D01*
X111358665Y-97565000D01*
X111081426Y-97620147D01*
X110820273Y-97728320D01*
X110585241Y-97885363D01*
X110385363Y-98085241D01*
X110228320Y-98320273D01*
X110120147Y-98581426D01*
X110065000Y-98858665D01*
X109360000Y-98858665D01*
X109360000Y-92558665D01*
X110465000Y-92558665D01*
X110465000Y-92841335D01*
X110520147Y-93118574D01*
X110628320Y-93379727D01*
X110785363Y-93614759D01*
X110985241Y-93814637D01*
X111220273Y-93971680D01*
X111481426Y-94079853D01*
X111758665Y-94135000D01*
X112041335Y-94135000D01*
X112318574Y-94079853D01*
X112579727Y-93971680D01*
X112814759Y-93814637D01*
X113014637Y-93614759D01*
X113171680Y-93379727D01*
X113279853Y-93118574D01*
X113335000Y-92841335D01*
X113335000Y-92558665D01*
X113279853Y-92281426D01*
X113171680Y-92020273D01*
X113014637Y-91785241D01*
X112814759Y-91585363D01*
X112579727Y-91428320D01*
X112318574Y-91320147D01*
X112041335Y-91265000D01*
X111758665Y-91265000D01*
X111481426Y-91320147D01*
X111220273Y-91428320D01*
X110985241Y-91585363D01*
X110785363Y-91785241D01*
X110628320Y-92020273D01*
X110520147Y-92281426D01*
X110465000Y-92558665D01*
X109360000Y-92558665D01*
X109360000Y-92529738D01*
X109390256Y-92517205D01*
X109559774Y-92403937D01*
X109703937Y-92259774D01*
X109817205Y-92090256D01*
X109895226Y-91901898D01*
X109935000Y-91701939D01*
X109935000Y-91498061D01*
X109895226Y-91298102D01*
X109838022Y-91160000D01*
X122185199Y-91160000D01*
X122307647Y-91282449D01*
X122130492Y-91265000D01*
X121989508Y-91265000D01*
X121778691Y-91285764D01*
X121508192Y-91367818D01*
X121258899Y-91501068D01*
X121040392Y-91680392D01*
X120861068Y-91898899D01*
X120727818Y-92148192D01*
X120645764Y-92418691D01*
X120618057Y-92700000D01*
X120645764Y-92981309D01*
X120659292Y-93025906D01*
X118088998Y-95596201D01*
X118060000Y-95619999D01*
X118036202Y-95648997D01*
X118036201Y-95648998D01*
X117965026Y-95735724D01*
X117894454Y-95867754D01*
X117884673Y-95900000D01*
X117850998Y-96011014D01*
X117841470Y-96107753D01*
X117836324Y-96160000D01*
X117840001Y-96197332D01*
X117840000Y-101591307D01*
X117836324Y-101628630D01*
X117840000Y-101665952D01*
X117840000Y-101665962D01*
X117850997Y-101777615D01*
X117880067Y-101873447D01*
X117894454Y-101920876D01*
X117965026Y-102052906D01*
X118004871Y-102101456D01*
X118059999Y-102168631D01*
X118089002Y-102192434D01*
X118731462Y-102834894D01*
X118700392Y-102860392D01*
X118521068Y-103078899D01*
X118450000Y-103211858D01*
X118378932Y-103078899D01*
X118199608Y-102860392D01*
X117981101Y-102681068D01*
X117731808Y-102547818D01*
X117461309Y-102465764D01*
X117250492Y-102445000D01*
X117109508Y-102445000D01*
X116898691Y-102465764D01*
X116628192Y-102547818D01*
X116378899Y-102681068D01*
X116160392Y-102860392D01*
X115981068Y-103078899D01*
X115907421Y-103216682D01*
X115792385Y-103024869D01*
X115603414Y-102816481D01*
X115377420Y-102648963D01*
X115123087Y-102528754D01*
X114989039Y-102488096D01*
X114767000Y-102610085D01*
X114767000Y-103753000D01*
X114787000Y-103753000D01*
X114787000Y-104007000D01*
X114767000Y-104007000D01*
X114767000Y-105149915D01*
X114989039Y-105271904D01*
X115123087Y-105231246D01*
X115377420Y-105111037D01*
X115603414Y-104943519D01*
X115792385Y-104735131D01*
X115907421Y-104543318D01*
X115981068Y-104681101D01*
X116160392Y-104899608D01*
X116378899Y-105078932D01*
X116628192Y-105212182D01*
X116898691Y-105294236D01*
X117109508Y-105315000D01*
X117250492Y-105315000D01*
X117461309Y-105294236D01*
X117731808Y-105212182D01*
X117981101Y-105078932D01*
X118199608Y-104899608D01*
X118378932Y-104681101D01*
X118450000Y-104548142D01*
X118521068Y-104681101D01*
X118700392Y-104899608D01*
X118918899Y-105078932D01*
X119168192Y-105212182D01*
X119438691Y-105294236D01*
X119649508Y-105315000D01*
X119790492Y-105315000D01*
X120001309Y-105294236D01*
X120271808Y-105212182D01*
X120521101Y-105078932D01*
X120739608Y-104899608D01*
X120918932Y-104681101D01*
X121052182Y-104431808D01*
X121134236Y-104161309D01*
X121161943Y-103880000D01*
X121134236Y-103598691D01*
X121052182Y-103328192D01*
X120918932Y-103078899D01*
X120739608Y-102860392D01*
X120521101Y-102681068D01*
X120474573Y-102656198D01*
X120469003Y-102599644D01*
X120425546Y-102456383D01*
X120354974Y-102324354D01*
X120260001Y-102208629D01*
X120231003Y-102184831D01*
X119360000Y-101313829D01*
X119360000Y-99000000D01*
X120218057Y-99000000D01*
X120245764Y-99281309D01*
X120327818Y-99551808D01*
X120461068Y-99801101D01*
X120640392Y-100019608D01*
X120858899Y-100198932D01*
X120900000Y-100220901D01*
X120900001Y-101256288D01*
X120856063Y-101300226D01*
X120742795Y-101469744D01*
X120664774Y-101658102D01*
X120625000Y-101858061D01*
X120625000Y-102061939D01*
X120664774Y-102261898D01*
X120742795Y-102450256D01*
X120856063Y-102619774D01*
X121000226Y-102763937D01*
X121169744Y-102877205D01*
X121358102Y-102955226D01*
X121558061Y-102995000D01*
X121761939Y-102995000D01*
X121961898Y-102955226D01*
X122150256Y-102877205D01*
X122319774Y-102763937D01*
X122463937Y-102619774D01*
X122577205Y-102450256D01*
X122655226Y-102261898D01*
X122695000Y-102061939D01*
X122695000Y-101858061D01*
X122655226Y-101658102D01*
X122577205Y-101469744D01*
X122463937Y-101300226D01*
X122420000Y-101256289D01*
X122420000Y-100220901D01*
X122461101Y-100198932D01*
X122679608Y-100019608D01*
X122858932Y-99801101D01*
X122992182Y-99551808D01*
X123074236Y-99281309D01*
X123101943Y-99000000D01*
X123074236Y-98718691D01*
X122992182Y-98448192D01*
X122858932Y-98198899D01*
X122679608Y-97980392D01*
X122461101Y-97801068D01*
X122211808Y-97667818D01*
X121941309Y-97585764D01*
X121730492Y-97565000D01*
X121589508Y-97565000D01*
X121378691Y-97585764D01*
X121108192Y-97667818D01*
X120858899Y-97801068D01*
X120640392Y-97980392D01*
X120461068Y-98198899D01*
X120327818Y-98448192D01*
X120245764Y-98718691D01*
X120218057Y-99000000D01*
X119360000Y-99000000D01*
X119360000Y-96474801D01*
X121734094Y-94100708D01*
X121778691Y-94114236D01*
X121989508Y-94135000D01*
X122130492Y-94135000D01*
X122341309Y-94114236D01*
X122611808Y-94032182D01*
X122861101Y-93898932D01*
X123079608Y-93719608D01*
X123258932Y-93501101D01*
X123340000Y-93349433D01*
X123340001Y-96196288D01*
X123296063Y-96240226D01*
X123182795Y-96409744D01*
X123104774Y-96598102D01*
X123065000Y-96798061D01*
X123065000Y-97001939D01*
X123104774Y-97201898D01*
X123182795Y-97390256D01*
X123296063Y-97559774D01*
X123440226Y-97703937D01*
X123609744Y-97817205D01*
X123798102Y-97895226D01*
X123998061Y-97935000D01*
X124201939Y-97935000D01*
X124401898Y-97895226D01*
X124590256Y-97817205D01*
X124759774Y-97703937D01*
X124903937Y-97559774D01*
X125017205Y-97390256D01*
X125095226Y-97201898D01*
X125135000Y-97001939D01*
X125135000Y-96798061D01*
X125095226Y-96598102D01*
X125017205Y-96409744D01*
X124903937Y-96240226D01*
X124860000Y-96196289D01*
X124860000Y-92037325D01*
X124863676Y-92000000D01*
X124860000Y-91962675D01*
X124860000Y-91962667D01*
X124849003Y-91851014D01*
X124805546Y-91707753D01*
X124734974Y-91575724D01*
X124640001Y-91459999D01*
X124611004Y-91436202D01*
X123063804Y-89889003D01*
X123040001Y-89859999D01*
X122924276Y-89765026D01*
X122792247Y-89694454D01*
X122648986Y-89650997D01*
X122537333Y-89640000D01*
X122537322Y-89640000D01*
X122500000Y-89636324D01*
X122462678Y-89640000D01*
X114934801Y-89640000D01*
X115874802Y-88700000D01*
X116745794Y-88700000D01*
X116752843Y-88713188D01*
X116925919Y-88924081D01*
X117136812Y-89097157D01*
X117377419Y-89225764D01*
X117638493Y-89304960D01*
X117841963Y-89325000D01*
X118378037Y-89325000D01*
X118581507Y-89304960D01*
X118842581Y-89225764D01*
X119083188Y-89097157D01*
X119294081Y-88924081D01*
X119467157Y-88713188D01*
X119595764Y-88472581D01*
X119674960Y-88211507D01*
X119701701Y-87940000D01*
X119674960Y-87668493D01*
X119595764Y-87407419D01*
X119467157Y-87166812D01*
X119294081Y-86955919D01*
X119083188Y-86782843D01*
X118842581Y-86654236D01*
X118581507Y-86575040D01*
X118378037Y-86555000D01*
X117841963Y-86555000D01*
X117638493Y-86575040D01*
X117377419Y-86654236D01*
X117136812Y-86782843D01*
X116925919Y-86955919D01*
X116752843Y-87166812D01*
X116745794Y-87180000D01*
X115597322Y-87180000D01*
X115559999Y-87176324D01*
X115522676Y-87180000D01*
X115522667Y-87180000D01*
X115411014Y-87190997D01*
X115267753Y-87234454D01*
X115135723Y-87305026D01*
X115052083Y-87373668D01*
X115019999Y-87399999D01*
X114996201Y-87428997D01*
X113685199Y-88740000D01*
X111903711Y-88740000D01*
X111859774Y-88696063D01*
X111857222Y-88694358D01*
X111975764Y-88472581D01*
X112054960Y-88211507D01*
X112081701Y-87940000D01*
X112054960Y-87668493D01*
X111975764Y-87407419D01*
X111847157Y-87166812D01*
X111674081Y-86955919D01*
X111463188Y-86782843D01*
X111222581Y-86654236D01*
X110961507Y-86575040D01*
X110758037Y-86555000D01*
X110221963Y-86555000D01*
X110018493Y-86575040D01*
X109757419Y-86654236D01*
X109516812Y-86782843D01*
X109305919Y-86955919D01*
X109132843Y-87166812D01*
X109004236Y-87407419D01*
X108925040Y-87668493D01*
X108898299Y-87940000D01*
X108925040Y-88211507D01*
X109004236Y-88472581D01*
X109132843Y-88713188D01*
X109305919Y-88924081D01*
X109516812Y-89097157D01*
X109757419Y-89225764D01*
X110018493Y-89304960D01*
X110180348Y-89320901D01*
X110165000Y-89398061D01*
X110165000Y-89601939D01*
X110172571Y-89640000D01*
X108643432Y-89640000D01*
X105888538Y-86885107D01*
X105919608Y-86859608D01*
X106098932Y-86641101D01*
X106196446Y-86458665D01*
X120365000Y-86458665D01*
X120365000Y-86741335D01*
X120420147Y-87018574D01*
X120528320Y-87279727D01*
X120685363Y-87514759D01*
X120885241Y-87714637D01*
X121120273Y-87871680D01*
X121381426Y-87979853D01*
X121658665Y-88035000D01*
X121941335Y-88035000D01*
X122218574Y-87979853D01*
X122479727Y-87871680D01*
X122714759Y-87714637D01*
X122914637Y-87514759D01*
X123071680Y-87279727D01*
X123179853Y-87018574D01*
X123235000Y-86741335D01*
X123235000Y-86458665D01*
X123179853Y-86181426D01*
X123071680Y-85920273D01*
X122914637Y-85685241D01*
X122714759Y-85485363D01*
X122514131Y-85351308D01*
X122541514Y-85336671D01*
X122613097Y-85092702D01*
X121800000Y-84279605D01*
X120986903Y-85092702D01*
X121058486Y-85336671D01*
X121087341Y-85350324D01*
X120885241Y-85485363D01*
X120685363Y-85685241D01*
X120528320Y-85920273D01*
X120420147Y-86181426D01*
X120365000Y-86458665D01*
X106196446Y-86458665D01*
X106232182Y-86391808D01*
X106314236Y-86121309D01*
X106341943Y-85840000D01*
X106314236Y-85558691D01*
X106232182Y-85288192D01*
X106098932Y-85038899D01*
X105919608Y-84820392D01*
X105701101Y-84641068D01*
X105451808Y-84507818D01*
X105181309Y-84425764D01*
X104970492Y-84405000D01*
X104829508Y-84405000D01*
X104618691Y-84425764D01*
X104348192Y-84507818D01*
X104098899Y-84641068D01*
X103880392Y-84820392D01*
X103701068Y-85038899D01*
X103567818Y-85288192D01*
X103485764Y-85558691D01*
X103458057Y-85840000D01*
X99085000Y-85840000D01*
X99085000Y-82860000D01*
X108898299Y-82860000D01*
X108925040Y-83131507D01*
X109004236Y-83392581D01*
X109132843Y-83633188D01*
X109305919Y-83844081D01*
X109516812Y-84017157D01*
X109757419Y-84145764D01*
X110018493Y-84224960D01*
X110221963Y-84245000D01*
X110758037Y-84245000D01*
X110961507Y-84224960D01*
X111222581Y-84145764D01*
X111463188Y-84017157D01*
X111674081Y-83844081D01*
X111847157Y-83633188D01*
X111975764Y-83392581D01*
X112033823Y-83201185D01*
X116567682Y-83201185D01*
X116577061Y-83255084D01*
X116679750Y-83507536D01*
X116829717Y-83735104D01*
X117021199Y-83929042D01*
X117246837Y-84081897D01*
X117497960Y-84187795D01*
X117764917Y-84242667D01*
X117983000Y-84089590D01*
X117983000Y-82987000D01*
X118237000Y-82987000D01*
X118237000Y-84089590D01*
X118455083Y-84242667D01*
X118722040Y-84187795D01*
X118763024Y-84170512D01*
X120359783Y-84170512D01*
X120401213Y-84450130D01*
X120496397Y-84716292D01*
X120563329Y-84841514D01*
X120807298Y-84913097D01*
X121620395Y-84100000D01*
X120807298Y-83286903D01*
X120563329Y-83358486D01*
X120442429Y-83613996D01*
X120373700Y-83888184D01*
X120359783Y-84170512D01*
X118763024Y-84170512D01*
X118973163Y-84081897D01*
X119198801Y-83929042D01*
X119390283Y-83735104D01*
X119540250Y-83507536D01*
X119642939Y-83255084D01*
X119652318Y-83201185D01*
X119529656Y-82987000D01*
X118237000Y-82987000D01*
X117983000Y-82987000D01*
X116690344Y-82987000D01*
X116567682Y-83201185D01*
X112033823Y-83201185D01*
X112054960Y-83131507D01*
X112081701Y-82860000D01*
X112054960Y-82588493D01*
X111975764Y-82327419D01*
X111847157Y-82086812D01*
X111674081Y-81875919D01*
X111463188Y-81702843D01*
X111222581Y-81574236D01*
X110961507Y-81495040D01*
X110758037Y-81475000D01*
X110221963Y-81475000D01*
X110018493Y-81495040D01*
X109757419Y-81574236D01*
X109516812Y-81702843D01*
X109305919Y-81875919D01*
X109132843Y-82086812D01*
X109004236Y-82327419D01*
X108925040Y-82588493D01*
X108898299Y-82860000D01*
X99085000Y-82860000D01*
X99085000Y-80070000D01*
X102411928Y-80070000D01*
X102424188Y-80194482D01*
X102460498Y-80314180D01*
X102519463Y-80424494D01*
X102598815Y-80521185D01*
X102695506Y-80600537D01*
X102805820Y-80659502D01*
X102925518Y-80695812D01*
X103050000Y-80708072D01*
X103514250Y-80705000D01*
X103673000Y-80546250D01*
X103673000Y-79447000D01*
X102573750Y-79447000D01*
X102415000Y-79605750D01*
X102411928Y-80070000D01*
X99085000Y-80070000D01*
X99085000Y-78570000D01*
X102411928Y-78570000D01*
X102415000Y-79034250D01*
X102573750Y-79193000D01*
X103673000Y-79193000D01*
X103673000Y-79173000D01*
X103927000Y-79173000D01*
X103927000Y-79193000D01*
X103947000Y-79193000D01*
X103947000Y-79447000D01*
X103927000Y-79447000D01*
X103927000Y-80546250D01*
X104085750Y-80705000D01*
X104550000Y-80708072D01*
X104674482Y-80695812D01*
X104794180Y-80659502D01*
X104904494Y-80600537D01*
X105001185Y-80521185D01*
X105080537Y-80424494D01*
X105139502Y-80314180D01*
X105175812Y-80194482D01*
X105186445Y-80086517D01*
X105264201Y-80202886D01*
X105457114Y-80395799D01*
X105683957Y-80547371D01*
X105936011Y-80651775D01*
X106203589Y-80705000D01*
X106476411Y-80705000D01*
X106743989Y-80651775D01*
X106996043Y-80547371D01*
X107222886Y-80395799D01*
X107415799Y-80202886D01*
X107567371Y-79976043D01*
X107671775Y-79723989D01*
X107682514Y-79670000D01*
X109395199Y-79670000D01*
X111236200Y-81511002D01*
X111259999Y-81540001D01*
X111375724Y-81634974D01*
X111507753Y-81705546D01*
X111651014Y-81749003D01*
X111762667Y-81760000D01*
X111762676Y-81760000D01*
X111799999Y-81763676D01*
X111837322Y-81760000D01*
X117066898Y-81760000D01*
X117021199Y-81790958D01*
X116829717Y-81984896D01*
X116679750Y-82212464D01*
X116577061Y-82464916D01*
X116567682Y-82518815D01*
X116690344Y-82733000D01*
X117983000Y-82733000D01*
X117983000Y-82713000D01*
X118237000Y-82713000D01*
X118237000Y-82733000D01*
X119529656Y-82733000D01*
X119652318Y-82518815D01*
X119642939Y-82464916D01*
X119540250Y-82212464D01*
X119390283Y-81984896D01*
X119198801Y-81790958D01*
X119153102Y-81760000D01*
X122196289Y-81760000D01*
X122240226Y-81803937D01*
X122321331Y-81858130D01*
X122304774Y-81898102D01*
X122265000Y-82098061D01*
X122265000Y-82301939D01*
X122304774Y-82501898D01*
X122382795Y-82690256D01*
X122478523Y-82833523D01*
X122286004Y-82742429D01*
X122011816Y-82673700D01*
X121729488Y-82659783D01*
X121449870Y-82701213D01*
X121183708Y-82796397D01*
X121058486Y-82863329D01*
X120986903Y-83107298D01*
X121800000Y-83920395D01*
X121814143Y-83906253D01*
X121993748Y-84085858D01*
X121979605Y-84100000D01*
X122792702Y-84913097D01*
X123036671Y-84841514D01*
X123157571Y-84586004D01*
X123226300Y-84311816D01*
X123240217Y-84029488D01*
X123198787Y-83749870D01*
X123192888Y-83733374D01*
X125170516Y-85711003D01*
X125194314Y-85740001D01*
X125310039Y-85834974D01*
X125442068Y-85905546D01*
X125585329Y-85949003D01*
X125696982Y-85960000D01*
X125696991Y-85960000D01*
X125734314Y-85963676D01*
X125771637Y-85960000D01*
X135162678Y-85960000D01*
X135200000Y-85963676D01*
X135237322Y-85960000D01*
X135237333Y-85960000D01*
X135348986Y-85949003D01*
X135492247Y-85905546D01*
X135624276Y-85834974D01*
X135740001Y-85740001D01*
X135763804Y-85710997D01*
X139714802Y-81760000D01*
X140396289Y-81760000D01*
X140440226Y-81803937D01*
X140609744Y-81917205D01*
X140798102Y-81995226D01*
X140998061Y-82035000D01*
X141201939Y-82035000D01*
X141401898Y-81995226D01*
X141590256Y-81917205D01*
X141759774Y-81803937D01*
X141903937Y-81659774D01*
X142017205Y-81490256D01*
X142095226Y-81301898D01*
X142135000Y-81101939D01*
X142135000Y-80898061D01*
X142095226Y-80698102D01*
X142017205Y-80509744D01*
X141903937Y-80340226D01*
X141759774Y-80196063D01*
X141590256Y-80082795D01*
X141401898Y-80004774D01*
X141201939Y-79965000D01*
X140998061Y-79965000D01*
X140798102Y-80004774D01*
X140609744Y-80082795D01*
X140440226Y-80196063D01*
X140396289Y-80240000D01*
X139437323Y-80240000D01*
X139400000Y-80236324D01*
X139362677Y-80240000D01*
X139362667Y-80240000D01*
X139251014Y-80250997D01*
X139107753Y-80294454D01*
X138975723Y-80365026D01*
X138903262Y-80424494D01*
X138859999Y-80459999D01*
X138836201Y-80488997D01*
X136933696Y-82391503D01*
X136895226Y-82198102D01*
X136817205Y-82009744D01*
X136703937Y-81840226D01*
X136559774Y-81696063D01*
X136390256Y-81582795D01*
X136201898Y-81504774D01*
X136001939Y-81465000D01*
X135939802Y-81465000D01*
X134963804Y-80489003D01*
X134940001Y-80459999D01*
X134824276Y-80365026D01*
X134692247Y-80294454D01*
X134548986Y-80250997D01*
X134437333Y-80240000D01*
X134437322Y-80240000D01*
X134400000Y-80236324D01*
X134362678Y-80240000D01*
X125349117Y-80240000D01*
X124541271Y-79432155D01*
X124595226Y-79301898D01*
X124635000Y-79101939D01*
X124635000Y-78898061D01*
X124595226Y-78698102D01*
X124517205Y-78509744D01*
X124403937Y-78340226D01*
X124259774Y-78196063D01*
X124090256Y-78082795D01*
X123901898Y-78004774D01*
X123701939Y-77965000D01*
X123498061Y-77965000D01*
X123298102Y-78004774D01*
X123109744Y-78082795D01*
X122940226Y-78196063D01*
X122796063Y-78340226D01*
X122682795Y-78509744D01*
X122604774Y-78698102D01*
X122565000Y-78898061D01*
X122565000Y-79101939D01*
X122604774Y-79301898D01*
X122682795Y-79490256D01*
X122796063Y-79659774D01*
X122851013Y-79714724D01*
X122894454Y-79857932D01*
X122895439Y-79859774D01*
X122951684Y-79965000D01*
X122798061Y-79965000D01*
X122598102Y-80004774D01*
X122409744Y-80082795D01*
X122240226Y-80196063D01*
X122196289Y-80240000D01*
X113223711Y-80240000D01*
X113303937Y-80159774D01*
X113417205Y-79990256D01*
X113495226Y-79801898D01*
X113535000Y-79601939D01*
X113535000Y-79398061D01*
X113495226Y-79198102D01*
X113417205Y-79009744D01*
X113303937Y-78840226D01*
X113159774Y-78696063D01*
X112990256Y-78582795D01*
X112801898Y-78504774D01*
X112601939Y-78465000D01*
X112539803Y-78465000D01*
X111016773Y-76941971D01*
X116102723Y-76941971D01*
X116117207Y-77014598D01*
X116223700Y-77266647D01*
X116377319Y-77493077D01*
X116572161Y-77685186D01*
X116800738Y-77835592D01*
X117054265Y-77938515D01*
X117323000Y-77990000D01*
X118073000Y-77990000D01*
X118073000Y-76727000D01*
X118327000Y-76727000D01*
X118327000Y-77990000D01*
X119077000Y-77990000D01*
X119345735Y-77938515D01*
X119599262Y-77835592D01*
X119827839Y-77685186D01*
X120022681Y-77493077D01*
X120176300Y-77266647D01*
X120282793Y-77014598D01*
X120297277Y-76941971D01*
X120174683Y-76727000D01*
X118327000Y-76727000D01*
X118073000Y-76727000D01*
X116225317Y-76727000D01*
X116102723Y-76941971D01*
X111016773Y-76941971D01*
X109933804Y-75859003D01*
X109910001Y-75829999D01*
X109794276Y-75735026D01*
X109662247Y-75664454D01*
X109518986Y-75620997D01*
X109407333Y-75610000D01*
X109407322Y-75610000D01*
X109370000Y-75606324D01*
X109332678Y-75610000D01*
X107081905Y-75610000D01*
X106996043Y-75552629D01*
X106893127Y-75510000D01*
X106996043Y-75467371D01*
X107222886Y-75315799D01*
X107415799Y-75122886D01*
X107567371Y-74896043D01*
X107671775Y-74643989D01*
X107725000Y-74376411D01*
X107725000Y-74103589D01*
X107671775Y-73836011D01*
X107567371Y-73583957D01*
X107415799Y-73357114D01*
X107222886Y-73164201D01*
X106996043Y-73012629D01*
X106893127Y-72970000D01*
X106996043Y-72927371D01*
X107222886Y-72775799D01*
X107415799Y-72582886D01*
X107567371Y-72356043D01*
X107671775Y-72103989D01*
X107725000Y-71836411D01*
X107725000Y-71563589D01*
X107716330Y-71520000D01*
X116053275Y-71520000D01*
X116080113Y-71792488D01*
X116159594Y-72054504D01*
X116288666Y-72295979D01*
X116462366Y-72507634D01*
X116674021Y-72681334D01*
X116877319Y-72790000D01*
X116674021Y-72898666D01*
X116462366Y-73072366D01*
X116288666Y-73284021D01*
X116159594Y-73525496D01*
X116080113Y-73787512D01*
X116053275Y-74060000D01*
X116080113Y-74332488D01*
X116159594Y-74594504D01*
X116288666Y-74835979D01*
X116462366Y-75047634D01*
X116674021Y-75221334D01*
X116880848Y-75331886D01*
X116800738Y-75364408D01*
X116572161Y-75514814D01*
X116377319Y-75706923D01*
X116223700Y-75933353D01*
X116117207Y-76185402D01*
X116102723Y-76258029D01*
X116225317Y-76473000D01*
X118073000Y-76473000D01*
X118073000Y-76453000D01*
X118327000Y-76453000D01*
X118327000Y-76473000D01*
X120174683Y-76473000D01*
X120297277Y-76258029D01*
X120282793Y-76185402D01*
X120176300Y-75933353D01*
X120022681Y-75706923D01*
X119827839Y-75514814D01*
X119599262Y-75364408D01*
X119519152Y-75331886D01*
X119725979Y-75221334D01*
X119937634Y-75047634D01*
X120111334Y-74835979D01*
X120119875Y-74820000D01*
X120945199Y-74820000D01*
X125836201Y-79711003D01*
X125859999Y-79740001D01*
X125975724Y-79834974D01*
X126107753Y-79905546D01*
X126251014Y-79949003D01*
X126362667Y-79960000D01*
X126362675Y-79960000D01*
X126400000Y-79963676D01*
X126437325Y-79960000D01*
X131496289Y-79960000D01*
X131540226Y-80003937D01*
X131709744Y-80117205D01*
X131898102Y-80195226D01*
X132098061Y-80235000D01*
X132301939Y-80235000D01*
X132501898Y-80195226D01*
X132690256Y-80117205D01*
X132859774Y-80003937D01*
X133003937Y-79859774D01*
X133117205Y-79690256D01*
X133195226Y-79501898D01*
X133235000Y-79301939D01*
X133235000Y-79098061D01*
X133195226Y-78898102D01*
X133117205Y-78709744D01*
X133003937Y-78540226D01*
X132859774Y-78396063D01*
X132690256Y-78282795D01*
X132501898Y-78204774D01*
X132301939Y-78165000D01*
X132098061Y-78165000D01*
X131898102Y-78204774D01*
X131709744Y-78282795D01*
X131540226Y-78396063D01*
X131496289Y-78440000D01*
X126714802Y-78440000D01*
X125591305Y-77316504D01*
X125759774Y-77203937D01*
X125903937Y-77059774D01*
X126017205Y-76890256D01*
X126095226Y-76701898D01*
X126135000Y-76501939D01*
X126135000Y-76298061D01*
X126095226Y-76098102D01*
X126017205Y-75909744D01*
X125903937Y-75740226D01*
X125759774Y-75596063D01*
X125590256Y-75482795D01*
X125401898Y-75404774D01*
X125201939Y-75365000D01*
X125139801Y-75365000D01*
X124960000Y-75185199D01*
X124960000Y-73071637D01*
X124963676Y-73034314D01*
X124960000Y-72996991D01*
X124960000Y-72996982D01*
X124949003Y-72885329D01*
X124905546Y-72742068D01*
X124834974Y-72610039D01*
X124740001Y-72494314D01*
X124711004Y-72470517D01*
X120929489Y-68689003D01*
X120905686Y-68659999D01*
X120789961Y-68565026D01*
X120657932Y-68494454D01*
X120514724Y-68451013D01*
X120459774Y-68396063D01*
X120290256Y-68282795D01*
X120101898Y-68204774D01*
X119901939Y-68165000D01*
X119698061Y-68165000D01*
X119498102Y-68204774D01*
X119309744Y-68282795D01*
X119140226Y-68396063D01*
X118996063Y-68540226D01*
X118882795Y-68709744D01*
X118804774Y-68898102D01*
X118765000Y-69098061D01*
X118765000Y-69301939D01*
X118804774Y-69501898D01*
X118882795Y-69690256D01*
X118996063Y-69859774D01*
X119140226Y-70003937D01*
X119309744Y-70117205D01*
X119498102Y-70195226D01*
X119698061Y-70235000D01*
X119901939Y-70235000D01*
X120101898Y-70195226D01*
X120232155Y-70141271D01*
X123440000Y-73349117D01*
X123440001Y-75165200D01*
X121823804Y-73549003D01*
X121800001Y-73519999D01*
X121684276Y-73425026D01*
X121552247Y-73354454D01*
X121408986Y-73310997D01*
X121297333Y-73300000D01*
X121297322Y-73300000D01*
X121260000Y-73296324D01*
X121222678Y-73300000D01*
X120119875Y-73300000D01*
X120111334Y-73284021D01*
X119937634Y-73072366D01*
X119725979Y-72898666D01*
X119522681Y-72790000D01*
X119725979Y-72681334D01*
X119937634Y-72507634D01*
X120111334Y-72295979D01*
X120240406Y-72054504D01*
X120319887Y-71792488D01*
X120346725Y-71520000D01*
X120319887Y-71247512D01*
X120240406Y-70985496D01*
X120111334Y-70744021D01*
X119937634Y-70532366D01*
X119725979Y-70358666D01*
X119484504Y-70229594D01*
X119222488Y-70150113D01*
X119018279Y-70130000D01*
X117381721Y-70130000D01*
X117177512Y-70150113D01*
X116915496Y-70229594D01*
X116674021Y-70358666D01*
X116462366Y-70532366D01*
X116288666Y-70744021D01*
X116159594Y-70985496D01*
X116080113Y-71247512D01*
X116053275Y-71520000D01*
X107716330Y-71520000D01*
X107671775Y-71296011D01*
X107567371Y-71043957D01*
X107415799Y-70817114D01*
X107222886Y-70624201D01*
X106996043Y-70472629D01*
X106743989Y-70368225D01*
X106476411Y-70315000D01*
X106203589Y-70315000D01*
X105936011Y-70368225D01*
X105683957Y-70472629D01*
X105457114Y-70624201D01*
X105264201Y-70817114D01*
X105112629Y-71043957D01*
X105070000Y-71146873D01*
X105027371Y-71043957D01*
X104875799Y-70817114D01*
X104682886Y-70624201D01*
X104456043Y-70472629D01*
X104203989Y-70368225D01*
X103936411Y-70315000D01*
X103663589Y-70315000D01*
X103396011Y-70368225D01*
X103143957Y-70472629D01*
X102917114Y-70624201D01*
X102724201Y-70817114D01*
X102572629Y-71043957D01*
X102468225Y-71296011D01*
X102415000Y-71563589D01*
X102415000Y-71836411D01*
X102468225Y-72103989D01*
X102572629Y-72356043D01*
X102724201Y-72582886D01*
X102917114Y-72775799D01*
X103143957Y-72927371D01*
X103246873Y-72970000D01*
X103143957Y-73012629D01*
X102917114Y-73164201D01*
X102724201Y-73357114D01*
X102572629Y-73583957D01*
X102468225Y-73836011D01*
X102415000Y-74103589D01*
X102415000Y-74376411D01*
X102468225Y-74643989D01*
X102572629Y-74896043D01*
X102724201Y-75122886D01*
X102917114Y-75315799D01*
X103143957Y-75467371D01*
X103246873Y-75510000D01*
X103143957Y-75552629D01*
X102917114Y-75704201D01*
X102724201Y-75897114D01*
X102572629Y-76123957D01*
X102468225Y-76376011D01*
X102415000Y-76643589D01*
X102415000Y-76916411D01*
X102468225Y-77183989D01*
X102572629Y-77436043D01*
X102724201Y-77662886D01*
X102917114Y-77855799D01*
X103033483Y-77933555D01*
X102925518Y-77944188D01*
X102805820Y-77980498D01*
X102695506Y-78039463D01*
X102598815Y-78118815D01*
X102519463Y-78215506D01*
X102460498Y-78325820D01*
X102424188Y-78445518D01*
X102411928Y-78570000D01*
X99085000Y-78570000D01*
X99085000Y-67576349D01*
X100103256Y-67576349D01*
X100307362Y-67932867D01*
X100750223Y-68163575D01*
X101229583Y-68303452D01*
X101727021Y-68347123D01*
X102223422Y-68292909D01*
X102699707Y-68142894D01*
X103092638Y-67932867D01*
X103296744Y-67576349D01*
X101700000Y-65979605D01*
X100103256Y-67576349D01*
X99085000Y-67576349D01*
X99085000Y-65827021D01*
X99152877Y-65827021D01*
X99207091Y-66323422D01*
X99357106Y-66799707D01*
X99567133Y-67192638D01*
X99923651Y-67396744D01*
X101520395Y-65800000D01*
X101879605Y-65800000D01*
X103476349Y-67396744D01*
X103832867Y-67192638D01*
X104063575Y-66749777D01*
X104203452Y-66270417D01*
X104247123Y-65772979D01*
X104192909Y-65276578D01*
X104042894Y-64800293D01*
X103832867Y-64407362D01*
X103476349Y-64203256D01*
X101879605Y-65800000D01*
X101520395Y-65800000D01*
X99923651Y-64203256D01*
X99567133Y-64407362D01*
X99336425Y-64850223D01*
X99196548Y-65329583D01*
X99152877Y-65827021D01*
X99085000Y-65827021D01*
X99085000Y-63386047D01*
X100917004Y-63388849D01*
X100917004Y-63388849D01*
G37*
X100917004Y-63388849D02*
X100700293Y-63457106D01*
X100307362Y-63667133D01*
X100103256Y-64023651D01*
X101700000Y-65620395D01*
X103296744Y-64023651D01*
X103092638Y-63667133D01*
X102649777Y-63436425D01*
X102495001Y-63391262D01*
X133089806Y-63438043D01*
X133082667Y-63451399D01*
X133075440Y-63475224D01*
X133073000Y-63500000D01*
X133073000Y-78400000D01*
X133075440Y-78424776D01*
X133082667Y-78448601D01*
X133094403Y-78470557D01*
X133110197Y-78489803D01*
X133129443Y-78505597D01*
X133151399Y-78517333D01*
X133175224Y-78524560D01*
X133200000Y-78527000D01*
X141800000Y-78527000D01*
X141824776Y-78524560D01*
X141848601Y-78517333D01*
X141870557Y-78505597D01*
X141889803Y-78489803D01*
X141905597Y-78470557D01*
X141917333Y-78448601D01*
X141924560Y-78424776D01*
X141927000Y-78400000D01*
X141927000Y-73250000D01*
X151411928Y-73250000D01*
X151411928Y-76750000D01*
X151424188Y-76874482D01*
X151460498Y-76994180D01*
X151519463Y-77104494D01*
X151598815Y-77201185D01*
X151695506Y-77280537D01*
X151805820Y-77339502D01*
X151925518Y-77375812D01*
X152050000Y-77388072D01*
X153040000Y-77388072D01*
X153040000Y-78662677D01*
X153036324Y-78700000D01*
X153040000Y-78737322D01*
X153040000Y-78737332D01*
X153050997Y-78848985D01*
X153085482Y-78962668D01*
X153094454Y-78992246D01*
X153165026Y-79124276D01*
X153179087Y-79141409D01*
X153259999Y-79240001D01*
X153289003Y-79263804D01*
X160240001Y-86214803D01*
X160240000Y-103585198D01*
X158517507Y-105307692D01*
X158479716Y-105303969D01*
X158440706Y-105230986D01*
X158255134Y-105004866D01*
X158029014Y-104819294D01*
X157974209Y-104790000D01*
X158029014Y-104760706D01*
X158255134Y-104575134D01*
X158440706Y-104349014D01*
X158578599Y-104091034D01*
X158663513Y-103811111D01*
X158692185Y-103520000D01*
X158663513Y-103228889D01*
X158578599Y-102948966D01*
X158440706Y-102690986D01*
X158255134Y-102464866D01*
X158029014Y-102279294D01*
X157974209Y-102250000D01*
X158029014Y-102220706D01*
X158255134Y-102035134D01*
X158440706Y-101809014D01*
X158578599Y-101551034D01*
X158663513Y-101271111D01*
X158692185Y-100980000D01*
X158663513Y-100688889D01*
X158578599Y-100408966D01*
X158440706Y-100150986D01*
X158255134Y-99924866D01*
X158029014Y-99739294D01*
X157974209Y-99710000D01*
X158029014Y-99680706D01*
X158255134Y-99495134D01*
X158440706Y-99269014D01*
X158578599Y-99011034D01*
X158663513Y-98731111D01*
X158692185Y-98440000D01*
X158663513Y-98148889D01*
X158578599Y-97868966D01*
X158440706Y-97610986D01*
X158255134Y-97384866D01*
X158029014Y-97199294D01*
X157974209Y-97170000D01*
X158029014Y-97140706D01*
X158255134Y-96955134D01*
X158440706Y-96729014D01*
X158578599Y-96471034D01*
X158663513Y-96191111D01*
X158692185Y-95900000D01*
X158663513Y-95608889D01*
X158578599Y-95328966D01*
X158440706Y-95070986D01*
X158255134Y-94844866D01*
X158029014Y-94659294D01*
X157974209Y-94630000D01*
X158029014Y-94600706D01*
X158255134Y-94415134D01*
X158440706Y-94189014D01*
X158578599Y-93931034D01*
X158663513Y-93651111D01*
X158692185Y-93360000D01*
X158663513Y-93068889D01*
X158578599Y-92788966D01*
X158440706Y-92530986D01*
X158255134Y-92304866D01*
X158029014Y-92119294D01*
X157771034Y-91981401D01*
X157491111Y-91896487D01*
X157272950Y-91875000D01*
X157127050Y-91875000D01*
X156908889Y-91896487D01*
X156628966Y-91981401D01*
X156370986Y-92119294D01*
X156144866Y-92304866D01*
X155959294Y-92530986D01*
X155821401Y-92788966D01*
X155736487Y-93068889D01*
X155707815Y-93360000D01*
X155736487Y-93651111D01*
X155821401Y-93931034D01*
X155959294Y-94189014D01*
X156144866Y-94415134D01*
X156370986Y-94600706D01*
X156425791Y-94630000D01*
X156370986Y-94659294D01*
X156144866Y-94844866D01*
X155959294Y-95070986D01*
X155821401Y-95328966D01*
X155736487Y-95608889D01*
X155707815Y-95900000D01*
X155736487Y-96191111D01*
X155821401Y-96471034D01*
X155959294Y-96729014D01*
X156144866Y-96955134D01*
X156370986Y-97140706D01*
X156425791Y-97170000D01*
X156370986Y-97199294D01*
X156144866Y-97384866D01*
X155959294Y-97610986D01*
X155821401Y-97868966D01*
X155736487Y-98148889D01*
X155707815Y-98440000D01*
X155736487Y-98731111D01*
X155821401Y-99011034D01*
X155959294Y-99269014D01*
X156144866Y-99495134D01*
X156370986Y-99680706D01*
X156425791Y-99710000D01*
X156370986Y-99739294D01*
X156144866Y-99924866D01*
X155959294Y-100150986D01*
X155821401Y-100408966D01*
X155736487Y-100688889D01*
X155707815Y-100980000D01*
X155736487Y-101271111D01*
X155821401Y-101551034D01*
X155959294Y-101809014D01*
X156144866Y-102035134D01*
X156370986Y-102220706D01*
X156425791Y-102250000D01*
X156370986Y-102279294D01*
X156144866Y-102464866D01*
X155959294Y-102690986D01*
X155821401Y-102948966D01*
X155736487Y-103228889D01*
X155707815Y-103520000D01*
X155736487Y-103811111D01*
X155821401Y-104091034D01*
X155959294Y-104349014D01*
X156144866Y-104575134D01*
X156370986Y-104760706D01*
X156425791Y-104790000D01*
X156370986Y-104819294D01*
X156144866Y-105004866D01*
X155959294Y-105230986D01*
X155821401Y-105488966D01*
X155736487Y-105768889D01*
X155707815Y-106060000D01*
X155736487Y-106351111D01*
X155821401Y-106631034D01*
X155959294Y-106889014D01*
X156144866Y-107115134D01*
X156174687Y-107139607D01*
X156105820Y-107160498D01*
X155995506Y-107219463D01*
X155898815Y-107298815D01*
X155819463Y-107395506D01*
X155760498Y-107505820D01*
X155724188Y-107625518D01*
X155711928Y-107750000D01*
X155715000Y-108314250D01*
X155873750Y-108473000D01*
X157073000Y-108473000D01*
X157073000Y-108453000D01*
X157327000Y-108453000D01*
X157327000Y-108473000D01*
X158526250Y-108473000D01*
X158685000Y-108314250D01*
X158688072Y-107750000D01*
X158675812Y-107625518D01*
X158639502Y-107505820D01*
X158580537Y-107395506D01*
X158501185Y-107298815D01*
X158404494Y-107219463D01*
X158294180Y-107160498D01*
X158225313Y-107139607D01*
X158255134Y-107115134D01*
X158440706Y-106889014D01*
X158454925Y-106862412D01*
X158479414Y-106860000D01*
X158762678Y-106860000D01*
X158800000Y-106863676D01*
X158837322Y-106860000D01*
X158837333Y-106860000D01*
X158948986Y-106849003D01*
X159092247Y-106805546D01*
X159224276Y-106734974D01*
X159340001Y-106640001D01*
X159363804Y-106610997D01*
X161511004Y-104463798D01*
X161540001Y-104440001D01*
X161634974Y-104324276D01*
X161705546Y-104192247D01*
X161749003Y-104048986D01*
X161760000Y-103937333D01*
X161760000Y-103937323D01*
X161763676Y-103900000D01*
X161760000Y-103862677D01*
X161760000Y-85937325D01*
X161763676Y-85900000D01*
X161760000Y-85862675D01*
X161760000Y-85862667D01*
X161749003Y-85751014D01*
X161705546Y-85607753D01*
X161634974Y-85475724D01*
X161540001Y-85359999D01*
X161511003Y-85336201D01*
X154560000Y-78385199D01*
X154560000Y-77388072D01*
X155550000Y-77388072D01*
X155674482Y-77375812D01*
X155794180Y-77339502D01*
X155904494Y-77280537D01*
X156001185Y-77201185D01*
X156080537Y-77104494D01*
X156139502Y-76994180D01*
X156175812Y-76874482D01*
X156188072Y-76750000D01*
X157411928Y-76750000D01*
X157424188Y-76874482D01*
X157460498Y-76994180D01*
X157519463Y-77104494D01*
X157598815Y-77201185D01*
X157695506Y-77280537D01*
X157805820Y-77339502D01*
X157925518Y-77375812D01*
X158050000Y-77388072D01*
X159514250Y-77385000D01*
X159673000Y-77226250D01*
X159673000Y-75127000D01*
X159927000Y-75127000D01*
X159927000Y-77226250D01*
X160085750Y-77385000D01*
X161550000Y-77388072D01*
X161674482Y-77375812D01*
X161794180Y-77339502D01*
X161904494Y-77280537D01*
X162001185Y-77201185D01*
X162080537Y-77104494D01*
X162139502Y-76994180D01*
X162175812Y-76874482D01*
X162188072Y-76750000D01*
X162185000Y-75285750D01*
X162026250Y-75127000D01*
X159927000Y-75127000D01*
X159673000Y-75127000D01*
X157573750Y-75127000D01*
X157415000Y-75285750D01*
X157411928Y-76750000D01*
X156188072Y-76750000D01*
X156188072Y-73250000D01*
X156175812Y-73125518D01*
X156139502Y-73005820D01*
X156080537Y-72895506D01*
X156001185Y-72798815D01*
X155904494Y-72719463D01*
X155845767Y-72688072D01*
X157754233Y-72688072D01*
X157695506Y-72719463D01*
X157598815Y-72798815D01*
X157519463Y-72895506D01*
X157460498Y-73005820D01*
X157424188Y-73125518D01*
X157411928Y-73250000D01*
X157415000Y-74714250D01*
X157573750Y-74873000D01*
X159673000Y-74873000D01*
X159673000Y-72773750D01*
X159927000Y-72773750D01*
X159927000Y-74873000D01*
X162026250Y-74873000D01*
X162185000Y-74714250D01*
X162188072Y-73250000D01*
X162175812Y-73125518D01*
X162139502Y-73005820D01*
X162080537Y-72895506D01*
X162001185Y-72798815D01*
X161904494Y-72719463D01*
X161794180Y-72660498D01*
X161674482Y-72624188D01*
X161550000Y-72611928D01*
X160085750Y-72615000D01*
X159927000Y-72773750D01*
X159673000Y-72773750D01*
X159514250Y-72615000D01*
X158842655Y-72613591D01*
X158904494Y-72580537D01*
X159001185Y-72501185D01*
X159080537Y-72404494D01*
X159139502Y-72294180D01*
X159175812Y-72174482D01*
X159188072Y-72050000D01*
X159188072Y-68550000D01*
X159175812Y-68425518D01*
X159139502Y-68305820D01*
X159080537Y-68195506D01*
X159051394Y-68159995D01*
X159250223Y-68263575D01*
X159729583Y-68403452D01*
X160227021Y-68447123D01*
X160723422Y-68392909D01*
X161199707Y-68242894D01*
X161592638Y-68032867D01*
X161796744Y-67676349D01*
X160200000Y-66079605D01*
X158603256Y-67676349D01*
X158759994Y-67950128D01*
X158674482Y-67924188D01*
X158550000Y-67911928D01*
X155050000Y-67911928D01*
X154925518Y-67924188D01*
X154805820Y-67960498D01*
X154695506Y-68019463D01*
X154598815Y-68098815D01*
X154519463Y-68195506D01*
X154460498Y-68305820D01*
X154424188Y-68425518D01*
X154411928Y-68550000D01*
X154411928Y-72050000D01*
X154424188Y-72174482D01*
X154460498Y-72294180D01*
X154519463Y-72404494D01*
X154598815Y-72501185D01*
X154695506Y-72580537D01*
X154754233Y-72611928D01*
X152050000Y-72611928D01*
X151925518Y-72624188D01*
X151805820Y-72660498D01*
X151695506Y-72719463D01*
X151598815Y-72798815D01*
X151519463Y-72895506D01*
X151460498Y-73005820D01*
X151424188Y-73125518D01*
X151411928Y-73250000D01*
X141927000Y-73250000D01*
X141927000Y-65927021D01*
X157652877Y-65927021D01*
X157707091Y-66423422D01*
X157857106Y-66899707D01*
X158067133Y-67292638D01*
X158423651Y-67496744D01*
X160020395Y-65900000D01*
X160379605Y-65900000D01*
X161976349Y-67496744D01*
X162332867Y-67292638D01*
X162563575Y-66849777D01*
X162703452Y-66370417D01*
X162747123Y-65872979D01*
X162692909Y-65376578D01*
X162542894Y-64900293D01*
X162332867Y-64507362D01*
X161976349Y-64303256D01*
X160379605Y-65900000D01*
X160020395Y-65900000D01*
X158423651Y-64303256D01*
X158067133Y-64507362D01*
X157836425Y-64950223D01*
X157696548Y-65429583D01*
X157652877Y-65927021D01*
X141927000Y-65927021D01*
X141927000Y-63500000D01*
X141924560Y-63475224D01*
X141917376Y-63451540D01*
X159450339Y-63478349D01*
X159200293Y-63557106D01*
X158807362Y-63767133D01*
X158603256Y-64123651D01*
X160200000Y-65720395D01*
X161796744Y-64123651D01*
X161592638Y-63767133D01*
X161149777Y-63536425D01*
X160958655Y-63480656D01*
X163116128Y-63483954D01*
X163213871Y-122716047D01*
X161257971Y-122719033D01*
X161499707Y-122642894D01*
X161892638Y-122432867D01*
X162096744Y-122076349D01*
X160500000Y-120479605D01*
X158903256Y-122076349D01*
X159107362Y-122432867D01*
X159550223Y-122663575D01*
X159748179Y-122721338D01*
X102751407Y-122808357D01*
X102892638Y-122732867D01*
X103096744Y-122376349D01*
X101500000Y-120779605D01*
X99903256Y-122376349D01*
X100107362Y-122732867D01*
X100259573Y-122812161D01*
X99085000Y-122813954D01*
X99085000Y-121370777D01*
X99157106Y-121599707D01*
X99367133Y-121992638D01*
X99723651Y-122196744D01*
X101320395Y-120600000D01*
X101679605Y-120600000D01*
X103276349Y-122196744D01*
X103632867Y-121992638D01*
X103863575Y-121549777D01*
X104003452Y-121070417D01*
X104047123Y-120572979D01*
X104020261Y-120327021D01*
X157952877Y-120327021D01*
X158007091Y-120823422D01*
X158157106Y-121299707D01*
X158367133Y-121692638D01*
X158723651Y-121896744D01*
X160320395Y-120300000D01*
X160679605Y-120300000D01*
X162276349Y-121896744D01*
X162632867Y-121692638D01*
X162863575Y-121249777D01*
X163003452Y-120770417D01*
X163047123Y-120272979D01*
X162992909Y-119776578D01*
X162842894Y-119300293D01*
X162632867Y-118907362D01*
X162276349Y-118703256D01*
X160679605Y-120300000D01*
X160320395Y-120300000D01*
X158723651Y-118703256D01*
X158367133Y-118907362D01*
X158136425Y-119350223D01*
X157996548Y-119829583D01*
X157952877Y-120327021D01*
X104020261Y-120327021D01*
X103992909Y-120076578D01*
X103842894Y-119600293D01*
X103632867Y-119207362D01*
X103276349Y-119003256D01*
X101679605Y-120600000D01*
X101320395Y-120600000D01*
X99723651Y-119003256D01*
X99367133Y-119207362D01*
X99136425Y-119650223D01*
X99085000Y-119826457D01*
X99085000Y-118823651D01*
X99903256Y-118823651D01*
X101500000Y-120420395D01*
X103096744Y-118823651D01*
X102892638Y-118467133D01*
X102449777Y-118236425D01*
X101970417Y-118096548D01*
X101472979Y-118052877D01*
X100976578Y-118107091D01*
X100500293Y-118257106D01*
X100107362Y-118467133D01*
X99903256Y-118823651D01*
X99085000Y-118823651D01*
X99085000Y-117558665D01*
X103465000Y-117558665D01*
X103465000Y-117841335D01*
X103520147Y-118118574D01*
X103628320Y-118379727D01*
X103785363Y-118614759D01*
X103985241Y-118814637D01*
X104220273Y-118971680D01*
X104481426Y-119079853D01*
X104758665Y-119135000D01*
X105041335Y-119135000D01*
X105318574Y-119079853D01*
X105579727Y-118971680D01*
X105814759Y-118814637D01*
X106014637Y-118614759D01*
X106121519Y-118454798D01*
X106180356Y-118449003D01*
X106323617Y-118405546D01*
X106455646Y-118334974D01*
X106571371Y-118240001D01*
X106595174Y-118210998D01*
X107611004Y-117195168D01*
X107640001Y-117171371D01*
X107650428Y-117158665D01*
X108965000Y-117158665D01*
X108965000Y-117441335D01*
X109020147Y-117718574D01*
X109128320Y-117979727D01*
X109285363Y-118214759D01*
X109485241Y-118414637D01*
X109720273Y-118571680D01*
X109981426Y-118679853D01*
X110258665Y-118735000D01*
X110541335Y-118735000D01*
X110818574Y-118679853D01*
X111079727Y-118571680D01*
X111314759Y-118414637D01*
X111514637Y-118214759D01*
X111671680Y-117979727D01*
X111779853Y-117718574D01*
X111835000Y-117441335D01*
X111835000Y-117300000D01*
X119118057Y-117300000D01*
X119145764Y-117581309D01*
X119227818Y-117851808D01*
X119361068Y-118101101D01*
X119540392Y-118319608D01*
X119758899Y-118498932D01*
X120008192Y-118632182D01*
X120278691Y-118714236D01*
X120489508Y-118735000D01*
X120630492Y-118735000D01*
X120841309Y-118714236D01*
X121111808Y-118632182D01*
X121361101Y-118498932D01*
X121579608Y-118319608D01*
X121758932Y-118101101D01*
X121892182Y-117851808D01*
X121974236Y-117581309D01*
X121997018Y-117350000D01*
X133511928Y-117350000D01*
X133511928Y-119050000D01*
X133524188Y-119174482D01*
X133560498Y-119294180D01*
X133619463Y-119404494D01*
X133698815Y-119501185D01*
X133795506Y-119580537D01*
X133905820Y-119639502D01*
X134025518Y-119675812D01*
X134150000Y-119688072D01*
X135850000Y-119688072D01*
X135974482Y-119675812D01*
X136094180Y-119639502D01*
X136204494Y-119580537D01*
X136301185Y-119501185D01*
X136380537Y-119404494D01*
X136439502Y-119294180D01*
X136463966Y-119213534D01*
X136539731Y-119297588D01*
X136773080Y-119471641D01*
X137035901Y-119596825D01*
X137183110Y-119641476D01*
X137413000Y-119520155D01*
X137413000Y-118327000D01*
X137393000Y-118327000D01*
X137393000Y-118073000D01*
X137413000Y-118073000D01*
X137413000Y-116879845D01*
X137667000Y-116879845D01*
X137667000Y-118073000D01*
X137687000Y-118073000D01*
X137687000Y-118327000D01*
X137667000Y-118327000D01*
X137667000Y-119520155D01*
X137896890Y-119641476D01*
X138044099Y-119596825D01*
X138306920Y-119471641D01*
X138540269Y-119297588D01*
X138735178Y-119081355D01*
X138804799Y-118964477D01*
X138839294Y-119029014D01*
X139024866Y-119255134D01*
X139250986Y-119440706D01*
X139508966Y-119578599D01*
X139788889Y-119663513D01*
X140007050Y-119685000D01*
X140152950Y-119685000D01*
X140371111Y-119663513D01*
X140651034Y-119578599D01*
X140909014Y-119440706D01*
X141135134Y-119255134D01*
X141320706Y-119029014D01*
X141458599Y-118771034D01*
X141533642Y-118523651D01*
X158903256Y-118523651D01*
X160500000Y-120120395D01*
X162096744Y-118523651D01*
X161892638Y-118167133D01*
X161449777Y-117936425D01*
X160970417Y-117796548D01*
X160472979Y-117752877D01*
X159976578Y-117807091D01*
X159500293Y-117957106D01*
X159107362Y-118167133D01*
X158903256Y-118523651D01*
X141533642Y-118523651D01*
X141543513Y-118491111D01*
X141572185Y-118200000D01*
X141543513Y-117908889D01*
X141458599Y-117628966D01*
X141320706Y-117370986D01*
X141135134Y-117144866D01*
X140909014Y-116959294D01*
X140651034Y-116821401D01*
X140371111Y-116736487D01*
X140152950Y-116715000D01*
X140007050Y-116715000D01*
X139788889Y-116736487D01*
X139508966Y-116821401D01*
X139250986Y-116959294D01*
X139024866Y-117144866D01*
X138839294Y-117370986D01*
X138804799Y-117435523D01*
X138735178Y-117318645D01*
X138540269Y-117102412D01*
X138306920Y-116928359D01*
X138044099Y-116803175D01*
X137896890Y-116758524D01*
X137667000Y-116879845D01*
X137413000Y-116879845D01*
X137183110Y-116758524D01*
X137035901Y-116803175D01*
X136773080Y-116928359D01*
X136539731Y-117102412D01*
X136463966Y-117186466D01*
X136439502Y-117105820D01*
X136380537Y-116995506D01*
X136301185Y-116898815D01*
X136204494Y-116819463D01*
X136094180Y-116760498D01*
X135974482Y-116724188D01*
X135850000Y-116711928D01*
X134150000Y-116711928D01*
X134025518Y-116724188D01*
X133905820Y-116760498D01*
X133795506Y-116819463D01*
X133698815Y-116898815D01*
X133619463Y-116995506D01*
X133560498Y-117105820D01*
X133524188Y-117225518D01*
X133511928Y-117350000D01*
X121997018Y-117350000D01*
X122001943Y-117300000D01*
X121974236Y-117018691D01*
X121892182Y-116748192D01*
X121758932Y-116498899D01*
X121579608Y-116280392D01*
X121361101Y-116101068D01*
X121111808Y-115967818D01*
X120841309Y-115885764D01*
X120630492Y-115865000D01*
X120489508Y-115865000D01*
X120278691Y-115885764D01*
X120008192Y-115967818D01*
X119758899Y-116101068D01*
X119540392Y-116280392D01*
X119361068Y-116498899D01*
X119227818Y-116748192D01*
X119145764Y-117018691D01*
X119118057Y-117300000D01*
X111835000Y-117300000D01*
X111835000Y-117158665D01*
X111779853Y-116881426D01*
X111671680Y-116620273D01*
X111514637Y-116385241D01*
X111314759Y-116185363D01*
X111079727Y-116028320D01*
X110818574Y-115920147D01*
X110541335Y-115865000D01*
X110258665Y-115865000D01*
X109981426Y-115920147D01*
X109720273Y-116028320D01*
X109485241Y-116185363D01*
X109285363Y-116385241D01*
X109128320Y-116620273D01*
X109020147Y-116881426D01*
X108965000Y-117158665D01*
X107650428Y-117158665D01*
X107666332Y-117139287D01*
X107734974Y-117055647D01*
X107805546Y-116923617D01*
X107837140Y-116819463D01*
X107849003Y-116780356D01*
X107860000Y-116668703D01*
X107860000Y-116668694D01*
X107863676Y-116631371D01*
X107860000Y-116594048D01*
X107860000Y-112514801D01*
X108074801Y-112300000D01*
X110661928Y-112300000D01*
X110674188Y-112424482D01*
X110710498Y-112544180D01*
X110769463Y-112654494D01*
X110848815Y-112751185D01*
X110945506Y-112830537D01*
X111055820Y-112889502D01*
X111175518Y-112925812D01*
X111300000Y-112938072D01*
X111814250Y-112935000D01*
X111973000Y-112776250D01*
X111973000Y-111627000D01*
X112227000Y-111627000D01*
X112227000Y-112776250D01*
X112385750Y-112935000D01*
X112900000Y-112938072D01*
X113024482Y-112925812D01*
X113144180Y-112889502D01*
X113254494Y-112830537D01*
X113351185Y-112751185D01*
X113430537Y-112654494D01*
X113489502Y-112544180D01*
X113525812Y-112424482D01*
X113528231Y-112399920D01*
X113676586Y-112563519D01*
X113902580Y-112731037D01*
X114156913Y-112851246D01*
X114290961Y-112891904D01*
X114513000Y-112769915D01*
X114513000Y-111627000D01*
X114767000Y-111627000D01*
X114767000Y-112769915D01*
X114989039Y-112891904D01*
X115123087Y-112851246D01*
X115377420Y-112731037D01*
X115603414Y-112563519D01*
X115792385Y-112355131D01*
X115910000Y-112159018D01*
X116027615Y-112355131D01*
X116216586Y-112563519D01*
X116442580Y-112731037D01*
X116696913Y-112851246D01*
X116830961Y-112891904D01*
X117053000Y-112769915D01*
X117053000Y-111627000D01*
X117307000Y-111627000D01*
X117307000Y-112769915D01*
X117529039Y-112891904D01*
X117663087Y-112851246D01*
X117917420Y-112731037D01*
X118143414Y-112563519D01*
X118332385Y-112355131D01*
X118450000Y-112159018D01*
X118567615Y-112355131D01*
X118756586Y-112563519D01*
X118982580Y-112731037D01*
X119236913Y-112851246D01*
X119370961Y-112891904D01*
X119593000Y-112769915D01*
X119593000Y-111627000D01*
X119847000Y-111627000D01*
X119847000Y-112769915D01*
X120069039Y-112891904D01*
X120203087Y-112851246D01*
X120457420Y-112731037D01*
X120683414Y-112563519D01*
X120872385Y-112355131D01*
X121017070Y-112113881D01*
X121111909Y-111849040D01*
X120990624Y-111627000D01*
X119847000Y-111627000D01*
X119593000Y-111627000D01*
X117307000Y-111627000D01*
X117053000Y-111627000D01*
X114767000Y-111627000D01*
X114513000Y-111627000D01*
X112227000Y-111627000D01*
X111973000Y-111627000D01*
X110823750Y-111627000D01*
X110665000Y-111785750D01*
X110661928Y-112300000D01*
X108074801Y-112300000D01*
X108851740Y-111523061D01*
X150065000Y-111523061D01*
X150065000Y-111726939D01*
X150104774Y-111926898D01*
X150182795Y-112115256D01*
X150296063Y-112284774D01*
X150440226Y-112428937D01*
X150609744Y-112542205D01*
X150798102Y-112620226D01*
X150998061Y-112660000D01*
X151201939Y-112660000D01*
X151401898Y-112620226D01*
X151590256Y-112542205D01*
X151759774Y-112428937D01*
X151903937Y-112284774D01*
X152017205Y-112115256D01*
X152095226Y-111926898D01*
X152135000Y-111726939D01*
X152135000Y-111523061D01*
X152095226Y-111323102D01*
X152041271Y-111192845D01*
X152711004Y-110523113D01*
X152740001Y-110499316D01*
X152788680Y-110440001D01*
X152834974Y-110383592D01*
X152905546Y-110251562D01*
X152912061Y-110230085D01*
X152949003Y-110108301D01*
X152960000Y-109996648D01*
X152960000Y-109996638D01*
X152963676Y-109959315D01*
X152960000Y-109921992D01*
X152960000Y-109450000D01*
X155711928Y-109450000D01*
X155724188Y-109574482D01*
X155760498Y-109694180D01*
X155819463Y-109804494D01*
X155898815Y-109901185D01*
X155995506Y-109980537D01*
X156105820Y-110039502D01*
X156225518Y-110075812D01*
X156350000Y-110088072D01*
X156914250Y-110085000D01*
X157073000Y-109926250D01*
X157073000Y-108727000D01*
X157327000Y-108727000D01*
X157327000Y-109926250D01*
X157485750Y-110085000D01*
X158050000Y-110088072D01*
X158174482Y-110075812D01*
X158294180Y-110039502D01*
X158404494Y-109980537D01*
X158501185Y-109901185D01*
X158580537Y-109804494D01*
X158639502Y-109694180D01*
X158675812Y-109574482D01*
X158688072Y-109450000D01*
X158685000Y-108885750D01*
X158526250Y-108727000D01*
X157327000Y-108727000D01*
X157073000Y-108727000D01*
X155873750Y-108727000D01*
X155715000Y-108885750D01*
X155711928Y-109450000D01*
X152960000Y-109450000D01*
X152960000Y-97103711D01*
X153003937Y-97059774D01*
X153117205Y-96890256D01*
X153195226Y-96701898D01*
X153235000Y-96501939D01*
X153235000Y-96298061D01*
X153195226Y-96098102D01*
X153117205Y-95909744D01*
X153003937Y-95740226D01*
X152859774Y-95596063D01*
X152690256Y-95482795D01*
X152501898Y-95404774D01*
X152301939Y-95365000D01*
X152098061Y-95365000D01*
X151898102Y-95404774D01*
X151709744Y-95482795D01*
X151540226Y-95596063D01*
X151396063Y-95740226D01*
X151282795Y-95909744D01*
X151204774Y-96098102D01*
X151165000Y-96298061D01*
X151165000Y-96501939D01*
X151204774Y-96701898D01*
X151282795Y-96890256D01*
X151396063Y-97059774D01*
X151440000Y-97103711D01*
X151440001Y-109644512D01*
X150588998Y-110495516D01*
X150560000Y-110519314D01*
X150536202Y-110548312D01*
X150536201Y-110548313D01*
X150465026Y-110635039D01*
X150426137Y-110707795D01*
X150394454Y-110767068D01*
X150351013Y-110910276D01*
X150296063Y-110965226D01*
X150182795Y-111134744D01*
X150104774Y-111323102D01*
X150065000Y-111523061D01*
X108851740Y-111523061D01*
X109674802Y-110700000D01*
X110661928Y-110700000D01*
X110665000Y-111214250D01*
X110823750Y-111373000D01*
X111973000Y-111373000D01*
X111973000Y-110223750D01*
X112227000Y-110223750D01*
X112227000Y-111373000D01*
X114513000Y-111373000D01*
X114513000Y-110230085D01*
X114767000Y-110230085D01*
X114767000Y-111373000D01*
X117053000Y-111373000D01*
X117053000Y-110230085D01*
X117307000Y-110230085D01*
X117307000Y-111373000D01*
X119593000Y-111373000D01*
X119593000Y-110230085D01*
X119847000Y-110230085D01*
X119847000Y-111373000D01*
X120990624Y-111373000D01*
X121111909Y-111150960D01*
X121017070Y-110886119D01*
X120872385Y-110644869D01*
X120683414Y-110436481D01*
X120457420Y-110268963D01*
X120203087Y-110148754D01*
X120069039Y-110108096D01*
X119847000Y-110230085D01*
X119593000Y-110230085D01*
X119370961Y-110108096D01*
X119236913Y-110148754D01*
X118982580Y-110268963D01*
X118756586Y-110436481D01*
X118567615Y-110644869D01*
X118450000Y-110840982D01*
X118332385Y-110644869D01*
X118143414Y-110436481D01*
X117917420Y-110268963D01*
X117663087Y-110148754D01*
X117529039Y-110108096D01*
X117307000Y-110230085D01*
X117053000Y-110230085D01*
X116830961Y-110108096D01*
X116696913Y-110148754D01*
X116442580Y-110268963D01*
X116216586Y-110436481D01*
X116027615Y-110644869D01*
X115910000Y-110840982D01*
X115792385Y-110644869D01*
X115603414Y-110436481D01*
X115377420Y-110268963D01*
X115123087Y-110148754D01*
X114989039Y-110108096D01*
X114767000Y-110230085D01*
X114513000Y-110230085D01*
X114290961Y-110108096D01*
X114156913Y-110148754D01*
X113902580Y-110268963D01*
X113676586Y-110436481D01*
X113528231Y-110600080D01*
X113525812Y-110575518D01*
X113489502Y-110455820D01*
X113430537Y-110345506D01*
X113351185Y-110248815D01*
X113254494Y-110169463D01*
X113144180Y-110110498D01*
X113024482Y-110074188D01*
X112900000Y-110061928D01*
X112385750Y-110065000D01*
X112227000Y-110223750D01*
X111973000Y-110223750D01*
X111814250Y-110065000D01*
X111300000Y-110061928D01*
X111175518Y-110074188D01*
X111055820Y-110110498D01*
X110945506Y-110169463D01*
X110848815Y-110248815D01*
X110769463Y-110345506D01*
X110710498Y-110455820D01*
X110674188Y-110575518D01*
X110661928Y-110700000D01*
X109674802Y-110700000D01*
X110614803Y-109760000D01*
X118296993Y-109760000D01*
X118334315Y-109763676D01*
X118371637Y-109760000D01*
X118371648Y-109760000D01*
X118483301Y-109749003D01*
X118626562Y-109705546D01*
X118758591Y-109634974D01*
X118874316Y-109540001D01*
X118898119Y-109510997D01*
X122577350Y-105831767D01*
X122596063Y-105859774D01*
X122740226Y-106003937D01*
X122909744Y-106117205D01*
X123098102Y-106195226D01*
X123298061Y-106235000D01*
X123501939Y-106235000D01*
X123701898Y-106195226D01*
X123890256Y-106117205D01*
X124059774Y-106003937D01*
X124203937Y-105859774D01*
X124317205Y-105690256D01*
X124395226Y-105501898D01*
X124435000Y-105301939D01*
X124435000Y-105239801D01*
X125139802Y-104535000D01*
X125301939Y-104535000D01*
X125501898Y-104495226D01*
X125690256Y-104417205D01*
X125859774Y-104303937D01*
X126003937Y-104159774D01*
X126117205Y-103990256D01*
X126195226Y-103801898D01*
X126235000Y-103601939D01*
X126235000Y-103398061D01*
X126195226Y-103198102D01*
X126117205Y-103009744D01*
X126003937Y-102840226D01*
X125859774Y-102696063D01*
X125690256Y-102582795D01*
X125501898Y-102504774D01*
X125301939Y-102465000D01*
X125098061Y-102465000D01*
X124898102Y-102504774D01*
X124760000Y-102561978D01*
X124760000Y-101903711D01*
X124803937Y-101859774D01*
X124917205Y-101690256D01*
X124995226Y-101501898D01*
X125035000Y-101301939D01*
X125035000Y-101098061D01*
X124995226Y-100898102D01*
X124917205Y-100709744D01*
X124803937Y-100540226D01*
X124659774Y-100396063D01*
X124490256Y-100282795D01*
X124301898Y-100204774D01*
X124101939Y-100165000D01*
X123898061Y-100165000D01*
X123698102Y-100204774D01*
X123509744Y-100282795D01*
X123340226Y-100396063D01*
X123196063Y-100540226D01*
X123082795Y-100709744D01*
X123004774Y-100898102D01*
X122965000Y-101098061D01*
X122965000Y-101301939D01*
X123004774Y-101501898D01*
X123082795Y-101690256D01*
X123196063Y-101859774D01*
X123240001Y-101903712D01*
X123240000Y-102985198D01*
X121823316Y-104401883D01*
X121794314Y-104425684D01*
X121699341Y-104541409D01*
X121677795Y-104581718D01*
X118019514Y-108240000D01*
X110337322Y-108240000D01*
X110299999Y-108236324D01*
X110262676Y-108240000D01*
X110262667Y-108240000D01*
X110151014Y-108250997D01*
X110007753Y-108294454D01*
X109875724Y-108365026D01*
X109875722Y-108365027D01*
X109875723Y-108365027D01*
X109788996Y-108436201D01*
X109788992Y-108436205D01*
X109759999Y-108459999D01*
X109736205Y-108488992D01*
X106588998Y-111636201D01*
X106560000Y-111659999D01*
X106536202Y-111688997D01*
X106536201Y-111688998D01*
X106465026Y-111775724D01*
X106394454Y-111907754D01*
X106350998Y-112051015D01*
X106336324Y-112200000D01*
X106340001Y-112237332D01*
X106340000Y-116316568D01*
X105942982Y-116713586D01*
X105814759Y-116585363D01*
X105579727Y-116428320D01*
X105318574Y-116320147D01*
X105041335Y-116265000D01*
X104758665Y-116265000D01*
X104481426Y-116320147D01*
X104220273Y-116428320D01*
X103985241Y-116585363D01*
X103785363Y-116785241D01*
X103628320Y-117020273D01*
X103520147Y-117281426D01*
X103465000Y-117558665D01*
X99085000Y-117558665D01*
X99085000Y-107540000D01*
X103458057Y-107540000D01*
X103485764Y-107821309D01*
X103567818Y-108091808D01*
X103701068Y-108341101D01*
X103880392Y-108559608D01*
X104098899Y-108738932D01*
X104348192Y-108872182D01*
X104618691Y-108954236D01*
X104829508Y-108975000D01*
X104970492Y-108975000D01*
X105181309Y-108954236D01*
X105451808Y-108872182D01*
X105701101Y-108738932D01*
X105919608Y-108559608D01*
X106098932Y-108341101D01*
X106232182Y-108091808D01*
X106314236Y-107821309D01*
X106341943Y-107540000D01*
X106314236Y-107258691D01*
X106232182Y-106988192D01*
X106098932Y-106738899D01*
X105919608Y-106520392D01*
X105701101Y-106341068D01*
X105660000Y-106319099D01*
X105660000Y-105909512D01*
X105827095Y-105840299D01*
X106078505Y-105672312D01*
X106292312Y-105458505D01*
X106460299Y-105207095D01*
X106576011Y-104927743D01*
X106635000Y-104631184D01*
X106635000Y-104328816D01*
X106576011Y-104032257D01*
X106460299Y-103752905D01*
X106292312Y-103501495D01*
X106078505Y-103287688D01*
X105924895Y-103185049D01*
X105984475Y-103004080D01*
X105100000Y-102119605D01*
X104215525Y-103004080D01*
X104275105Y-103185049D01*
X104121495Y-103287688D01*
X103907688Y-103501495D01*
X103739701Y-103752905D01*
X103623989Y-104032257D01*
X103565000Y-104328816D01*
X103565000Y-104631184D01*
X103623989Y-104927743D01*
X103739701Y-105207095D01*
X103907688Y-105458505D01*
X104121495Y-105672312D01*
X104140001Y-105684677D01*
X104140000Y-106319099D01*
X104098899Y-106341068D01*
X103880392Y-106520392D01*
X103701068Y-106738899D01*
X103567818Y-106988192D01*
X103485764Y-107258691D01*
X103458057Y-107540000D01*
X99085000Y-107540000D01*
X99085000Y-95858665D01*
X103465000Y-95858665D01*
X103465000Y-96141335D01*
X103520147Y-96418574D01*
X103628320Y-96679727D01*
X103785363Y-96914759D01*
X103985241Y-97114637D01*
X104140000Y-97218044D01*
X104140001Y-97867837D01*
X104075518Y-97874188D01*
X103955820Y-97910498D01*
X103845506Y-97969463D01*
X103748815Y-98048815D01*
X103669463Y-98145506D01*
X103610498Y-98255820D01*
X103574188Y-98375518D01*
X103561928Y-98500000D01*
X103561928Y-100300000D01*
X103574188Y-100424482D01*
X103610498Y-100544180D01*
X103669463Y-100654494D01*
X103748815Y-100751185D01*
X103845506Y-100830537D01*
X103955820Y-100889502D01*
X103966735Y-100892813D01*
X103919970Y-100939578D01*
X104035918Y-101055526D01*
X103781739Y-101139208D01*
X103650842Y-101411775D01*
X103575635Y-101704642D01*
X103559009Y-102006553D01*
X103601603Y-102305907D01*
X103701778Y-102591199D01*
X103781739Y-102740792D01*
X104035920Y-102824475D01*
X104920395Y-101940000D01*
X104906253Y-101925858D01*
X105085858Y-101746253D01*
X105100000Y-101760395D01*
X105114143Y-101746253D01*
X105293748Y-101925858D01*
X105279605Y-101940000D01*
X106164080Y-102824475D01*
X106418261Y-102740792D01*
X106549158Y-102468225D01*
X106624365Y-102175358D01*
X106640991Y-101873447D01*
X106598397Y-101574093D01*
X106498222Y-101288801D01*
X106418261Y-101139208D01*
X106164082Y-101055526D01*
X106280030Y-100939578D01*
X106233265Y-100892813D01*
X106244180Y-100889502D01*
X106354494Y-100830537D01*
X106451185Y-100751185D01*
X106530537Y-100654494D01*
X106589502Y-100544180D01*
X106625812Y-100424482D01*
X106638072Y-100300000D01*
X106638072Y-98500000D01*
X106625812Y-98375518D01*
X106589502Y-98255820D01*
X106530537Y-98145506D01*
X106451185Y-98048815D01*
X106354494Y-97969463D01*
X106244180Y-97910498D01*
X106124482Y-97874188D01*
X106000000Y-97861928D01*
X105660000Y-97861928D01*
X105660000Y-97218043D01*
X105814759Y-97114637D01*
X106014637Y-96914759D01*
X106171680Y-96679727D01*
X106279853Y-96418574D01*
X106335000Y-96141335D01*
X106335000Y-95858665D01*
X106279853Y-95581426D01*
X106171680Y-95320273D01*
X106014637Y-95085241D01*
X105814759Y-94885363D01*
X105579727Y-94728320D01*
X105318574Y-94620147D01*
X105041335Y-94565000D01*
X104758665Y-94565000D01*
X104481426Y-94620147D01*
X104220273Y-94728320D01*
X103985241Y-94885363D01*
X103785363Y-95085241D01*
X103628320Y-95320273D01*
X103520147Y-95581426D01*
X103465000Y-95858665D01*
X99085000Y-95858665D01*
X99085000Y-85840000D01*
X103458057Y-85840000D01*
X103485764Y-86121309D01*
X103567818Y-86391808D01*
X103701068Y-86641101D01*
X103880392Y-86859608D01*
X104098899Y-87038932D01*
X104145428Y-87063802D01*
X104150998Y-87120355D01*
X104194454Y-87263616D01*
X104265026Y-87395646D01*
X104336201Y-87482372D01*
X104360000Y-87511371D01*
X104388998Y-87535169D01*
X107764830Y-90911002D01*
X107788629Y-90940001D01*
X107817627Y-90963799D01*
X107904353Y-91034974D01*
X107998964Y-91085545D01*
X107982795Y-91109744D01*
X107904774Y-91298102D01*
X107865000Y-91498061D01*
X107865000Y-91701939D01*
X107865350Y-91703700D01*
X107850998Y-91751015D01*
X107836324Y-91900000D01*
X107840001Y-91937332D01*
X107840000Y-104685198D01*
X107460199Y-105065000D01*
X107398061Y-105065000D01*
X107198102Y-105104774D01*
X107009744Y-105182795D01*
X106840226Y-105296063D01*
X106696063Y-105440226D01*
X106582795Y-105609744D01*
X106504774Y-105798102D01*
X106465000Y-105998061D01*
X106465000Y-106201939D01*
X106504774Y-106401898D01*
X106582795Y-106590256D01*
X106696063Y-106759774D01*
X106840226Y-106903937D01*
X107009744Y-107017205D01*
X107198102Y-107095226D01*
X107398061Y-107135000D01*
X107601939Y-107135000D01*
X107801898Y-107095226D01*
X107990256Y-107017205D01*
X108159774Y-106903937D01*
X108303937Y-106759774D01*
X108417205Y-106590256D01*
X108495226Y-106401898D01*
X108535000Y-106201939D01*
X108535000Y-106139801D01*
X109111004Y-105563798D01*
X109140001Y-105540001D01*
X109175947Y-105496201D01*
X109234974Y-105424277D01*
X109305546Y-105292247D01*
X109327461Y-105220001D01*
X109349003Y-105148986D01*
X109360000Y-105037333D01*
X109360000Y-105037323D01*
X109363676Y-105000000D01*
X109360000Y-104962677D01*
X109360000Y-103880000D01*
X110658057Y-103880000D01*
X110685764Y-104161309D01*
X110767818Y-104431808D01*
X110901068Y-104681101D01*
X111080392Y-104899608D01*
X111298899Y-105078932D01*
X111548192Y-105212182D01*
X111818691Y-105294236D01*
X112029508Y-105315000D01*
X112170492Y-105315000D01*
X112381309Y-105294236D01*
X112651808Y-105212182D01*
X112901101Y-105078932D01*
X113119608Y-104899608D01*
X113298932Y-104681101D01*
X113372579Y-104543318D01*
X113487615Y-104735131D01*
X113676586Y-104943519D01*
X113902580Y-105111037D01*
X114156913Y-105231246D01*
X114290961Y-105271904D01*
X114513000Y-105149915D01*
X114513000Y-104007000D01*
X114493000Y-104007000D01*
X114493000Y-103753000D01*
X114513000Y-103753000D01*
X114513000Y-102610085D01*
X114290961Y-102488096D01*
X114156913Y-102528754D01*
X113902580Y-102648963D01*
X113676586Y-102816481D01*
X113487615Y-103024869D01*
X113372579Y-103216682D01*
X113298932Y-103078899D01*
X113119608Y-102860392D01*
X112901101Y-102681068D01*
X112651808Y-102547818D01*
X112381309Y-102465764D01*
X112170492Y-102445000D01*
X112029508Y-102445000D01*
X111818691Y-102465764D01*
X111548192Y-102547818D01*
X111298899Y-102681068D01*
X111080392Y-102860392D01*
X110901068Y-103078899D01*
X110767818Y-103328192D01*
X110685764Y-103598691D01*
X110658057Y-103880000D01*
X109360000Y-103880000D01*
X109360000Y-98858665D01*
X110065000Y-98858665D01*
X110065000Y-99141335D01*
X110120147Y-99418574D01*
X110228320Y-99679727D01*
X110385363Y-99914759D01*
X110585241Y-100114637D01*
X110820273Y-100271680D01*
X111081426Y-100379853D01*
X111358665Y-100435000D01*
X111641335Y-100435000D01*
X111918574Y-100379853D01*
X112179727Y-100271680D01*
X112414759Y-100114637D01*
X112614637Y-99914759D01*
X112771680Y-99679727D01*
X112879853Y-99418574D01*
X112935000Y-99141335D01*
X112935000Y-98858665D01*
X112879853Y-98581426D01*
X112771680Y-98320273D01*
X112614637Y-98085241D01*
X112414759Y-97885363D01*
X112179727Y-97728320D01*
X111918574Y-97620147D01*
X111641335Y-97565000D01*
X111358665Y-97565000D01*
X111081426Y-97620147D01*
X110820273Y-97728320D01*
X110585241Y-97885363D01*
X110385363Y-98085241D01*
X110228320Y-98320273D01*
X110120147Y-98581426D01*
X110065000Y-98858665D01*
X109360000Y-98858665D01*
X109360000Y-92558665D01*
X110465000Y-92558665D01*
X110465000Y-92841335D01*
X110520147Y-93118574D01*
X110628320Y-93379727D01*
X110785363Y-93614759D01*
X110985241Y-93814637D01*
X111220273Y-93971680D01*
X111481426Y-94079853D01*
X111758665Y-94135000D01*
X112041335Y-94135000D01*
X112318574Y-94079853D01*
X112579727Y-93971680D01*
X112814759Y-93814637D01*
X113014637Y-93614759D01*
X113171680Y-93379727D01*
X113279853Y-93118574D01*
X113335000Y-92841335D01*
X113335000Y-92558665D01*
X113279853Y-92281426D01*
X113171680Y-92020273D01*
X113014637Y-91785241D01*
X112814759Y-91585363D01*
X112579727Y-91428320D01*
X112318574Y-91320147D01*
X112041335Y-91265000D01*
X111758665Y-91265000D01*
X111481426Y-91320147D01*
X111220273Y-91428320D01*
X110985241Y-91585363D01*
X110785363Y-91785241D01*
X110628320Y-92020273D01*
X110520147Y-92281426D01*
X110465000Y-92558665D01*
X109360000Y-92558665D01*
X109360000Y-92529738D01*
X109390256Y-92517205D01*
X109559774Y-92403937D01*
X109703937Y-92259774D01*
X109817205Y-92090256D01*
X109895226Y-91901898D01*
X109935000Y-91701939D01*
X109935000Y-91498061D01*
X109895226Y-91298102D01*
X109838022Y-91160000D01*
X122185199Y-91160000D01*
X122307647Y-91282449D01*
X122130492Y-91265000D01*
X121989508Y-91265000D01*
X121778691Y-91285764D01*
X121508192Y-91367818D01*
X121258899Y-91501068D01*
X121040392Y-91680392D01*
X120861068Y-91898899D01*
X120727818Y-92148192D01*
X120645764Y-92418691D01*
X120618057Y-92700000D01*
X120645764Y-92981309D01*
X120659292Y-93025906D01*
X118088998Y-95596201D01*
X118060000Y-95619999D01*
X118036202Y-95648997D01*
X118036201Y-95648998D01*
X117965026Y-95735724D01*
X117894454Y-95867754D01*
X117884673Y-95900000D01*
X117850998Y-96011014D01*
X117841470Y-96107753D01*
X117836324Y-96160000D01*
X117840001Y-96197332D01*
X117840000Y-101591307D01*
X117836324Y-101628630D01*
X117840000Y-101665952D01*
X117840000Y-101665962D01*
X117850997Y-101777615D01*
X117880067Y-101873447D01*
X117894454Y-101920876D01*
X117965026Y-102052906D01*
X118004871Y-102101456D01*
X118059999Y-102168631D01*
X118089002Y-102192434D01*
X118731462Y-102834894D01*
X118700392Y-102860392D01*
X118521068Y-103078899D01*
X118450000Y-103211858D01*
X118378932Y-103078899D01*
X118199608Y-102860392D01*
X117981101Y-102681068D01*
X117731808Y-102547818D01*
X117461309Y-102465764D01*
X117250492Y-102445000D01*
X117109508Y-102445000D01*
X116898691Y-102465764D01*
X116628192Y-102547818D01*
X116378899Y-102681068D01*
X116160392Y-102860392D01*
X115981068Y-103078899D01*
X115907421Y-103216682D01*
X115792385Y-103024869D01*
X115603414Y-102816481D01*
X115377420Y-102648963D01*
X115123087Y-102528754D01*
X114989039Y-102488096D01*
X114767000Y-102610085D01*
X114767000Y-103753000D01*
X114787000Y-103753000D01*
X114787000Y-104007000D01*
X114767000Y-104007000D01*
X114767000Y-105149915D01*
X114989039Y-105271904D01*
X115123087Y-105231246D01*
X115377420Y-105111037D01*
X115603414Y-104943519D01*
X115792385Y-104735131D01*
X115907421Y-104543318D01*
X115981068Y-104681101D01*
X116160392Y-104899608D01*
X116378899Y-105078932D01*
X116628192Y-105212182D01*
X116898691Y-105294236D01*
X117109508Y-105315000D01*
X117250492Y-105315000D01*
X117461309Y-105294236D01*
X117731808Y-105212182D01*
X117981101Y-105078932D01*
X118199608Y-104899608D01*
X118378932Y-104681101D01*
X118450000Y-104548142D01*
X118521068Y-104681101D01*
X118700392Y-104899608D01*
X118918899Y-105078932D01*
X119168192Y-105212182D01*
X119438691Y-105294236D01*
X119649508Y-105315000D01*
X119790492Y-105315000D01*
X120001309Y-105294236D01*
X120271808Y-105212182D01*
X120521101Y-105078932D01*
X120739608Y-104899608D01*
X120918932Y-104681101D01*
X121052182Y-104431808D01*
X121134236Y-104161309D01*
X121161943Y-103880000D01*
X121134236Y-103598691D01*
X121052182Y-103328192D01*
X120918932Y-103078899D01*
X120739608Y-102860392D01*
X120521101Y-102681068D01*
X120474573Y-102656198D01*
X120469003Y-102599644D01*
X120425546Y-102456383D01*
X120354974Y-102324354D01*
X120260001Y-102208629D01*
X120231003Y-102184831D01*
X119360000Y-101313829D01*
X119360000Y-99000000D01*
X120218057Y-99000000D01*
X120245764Y-99281309D01*
X120327818Y-99551808D01*
X120461068Y-99801101D01*
X120640392Y-100019608D01*
X120858899Y-100198932D01*
X120900000Y-100220901D01*
X120900001Y-101256288D01*
X120856063Y-101300226D01*
X120742795Y-101469744D01*
X120664774Y-101658102D01*
X120625000Y-101858061D01*
X120625000Y-102061939D01*
X120664774Y-102261898D01*
X120742795Y-102450256D01*
X120856063Y-102619774D01*
X121000226Y-102763937D01*
X121169744Y-102877205D01*
X121358102Y-102955226D01*
X121558061Y-102995000D01*
X121761939Y-102995000D01*
X121961898Y-102955226D01*
X122150256Y-102877205D01*
X122319774Y-102763937D01*
X122463937Y-102619774D01*
X122577205Y-102450256D01*
X122655226Y-102261898D01*
X122695000Y-102061939D01*
X122695000Y-101858061D01*
X122655226Y-101658102D01*
X122577205Y-101469744D01*
X122463937Y-101300226D01*
X122420000Y-101256289D01*
X122420000Y-100220901D01*
X122461101Y-100198932D01*
X122679608Y-100019608D01*
X122858932Y-99801101D01*
X122992182Y-99551808D01*
X123074236Y-99281309D01*
X123101943Y-99000000D01*
X123074236Y-98718691D01*
X122992182Y-98448192D01*
X122858932Y-98198899D01*
X122679608Y-97980392D01*
X122461101Y-97801068D01*
X122211808Y-97667818D01*
X121941309Y-97585764D01*
X121730492Y-97565000D01*
X121589508Y-97565000D01*
X121378691Y-97585764D01*
X121108192Y-97667818D01*
X120858899Y-97801068D01*
X120640392Y-97980392D01*
X120461068Y-98198899D01*
X120327818Y-98448192D01*
X120245764Y-98718691D01*
X120218057Y-99000000D01*
X119360000Y-99000000D01*
X119360000Y-96474801D01*
X121734094Y-94100708D01*
X121778691Y-94114236D01*
X121989508Y-94135000D01*
X122130492Y-94135000D01*
X122341309Y-94114236D01*
X122611808Y-94032182D01*
X122861101Y-93898932D01*
X123079608Y-93719608D01*
X123258932Y-93501101D01*
X123340000Y-93349433D01*
X123340001Y-96196288D01*
X123296063Y-96240226D01*
X123182795Y-96409744D01*
X123104774Y-96598102D01*
X123065000Y-96798061D01*
X123065000Y-97001939D01*
X123104774Y-97201898D01*
X123182795Y-97390256D01*
X123296063Y-97559774D01*
X123440226Y-97703937D01*
X123609744Y-97817205D01*
X123798102Y-97895226D01*
X123998061Y-97935000D01*
X124201939Y-97935000D01*
X124401898Y-97895226D01*
X124590256Y-97817205D01*
X124759774Y-97703937D01*
X124903937Y-97559774D01*
X125017205Y-97390256D01*
X125095226Y-97201898D01*
X125135000Y-97001939D01*
X125135000Y-96798061D01*
X125095226Y-96598102D01*
X125017205Y-96409744D01*
X124903937Y-96240226D01*
X124860000Y-96196289D01*
X124860000Y-92037325D01*
X124863676Y-92000000D01*
X124860000Y-91962675D01*
X124860000Y-91962667D01*
X124849003Y-91851014D01*
X124805546Y-91707753D01*
X124734974Y-91575724D01*
X124640001Y-91459999D01*
X124611004Y-91436202D01*
X123063804Y-89889003D01*
X123040001Y-89859999D01*
X122924276Y-89765026D01*
X122792247Y-89694454D01*
X122648986Y-89650997D01*
X122537333Y-89640000D01*
X122537322Y-89640000D01*
X122500000Y-89636324D01*
X122462678Y-89640000D01*
X114934801Y-89640000D01*
X115874802Y-88700000D01*
X116745794Y-88700000D01*
X116752843Y-88713188D01*
X116925919Y-88924081D01*
X117136812Y-89097157D01*
X117377419Y-89225764D01*
X117638493Y-89304960D01*
X117841963Y-89325000D01*
X118378037Y-89325000D01*
X118581507Y-89304960D01*
X118842581Y-89225764D01*
X119083188Y-89097157D01*
X119294081Y-88924081D01*
X119467157Y-88713188D01*
X119595764Y-88472581D01*
X119674960Y-88211507D01*
X119701701Y-87940000D01*
X119674960Y-87668493D01*
X119595764Y-87407419D01*
X119467157Y-87166812D01*
X119294081Y-86955919D01*
X119083188Y-86782843D01*
X118842581Y-86654236D01*
X118581507Y-86575040D01*
X118378037Y-86555000D01*
X117841963Y-86555000D01*
X117638493Y-86575040D01*
X117377419Y-86654236D01*
X117136812Y-86782843D01*
X116925919Y-86955919D01*
X116752843Y-87166812D01*
X116745794Y-87180000D01*
X115597322Y-87180000D01*
X115559999Y-87176324D01*
X115522676Y-87180000D01*
X115522667Y-87180000D01*
X115411014Y-87190997D01*
X115267753Y-87234454D01*
X115135723Y-87305026D01*
X115052083Y-87373668D01*
X115019999Y-87399999D01*
X114996201Y-87428997D01*
X113685199Y-88740000D01*
X111903711Y-88740000D01*
X111859774Y-88696063D01*
X111857222Y-88694358D01*
X111975764Y-88472581D01*
X112054960Y-88211507D01*
X112081701Y-87940000D01*
X112054960Y-87668493D01*
X111975764Y-87407419D01*
X111847157Y-87166812D01*
X111674081Y-86955919D01*
X111463188Y-86782843D01*
X111222581Y-86654236D01*
X110961507Y-86575040D01*
X110758037Y-86555000D01*
X110221963Y-86555000D01*
X110018493Y-86575040D01*
X109757419Y-86654236D01*
X109516812Y-86782843D01*
X109305919Y-86955919D01*
X109132843Y-87166812D01*
X109004236Y-87407419D01*
X108925040Y-87668493D01*
X108898299Y-87940000D01*
X108925040Y-88211507D01*
X109004236Y-88472581D01*
X109132843Y-88713188D01*
X109305919Y-88924081D01*
X109516812Y-89097157D01*
X109757419Y-89225764D01*
X110018493Y-89304960D01*
X110180348Y-89320901D01*
X110165000Y-89398061D01*
X110165000Y-89601939D01*
X110172571Y-89640000D01*
X108643432Y-89640000D01*
X105888538Y-86885107D01*
X105919608Y-86859608D01*
X106098932Y-86641101D01*
X106196446Y-86458665D01*
X120365000Y-86458665D01*
X120365000Y-86741335D01*
X120420147Y-87018574D01*
X120528320Y-87279727D01*
X120685363Y-87514759D01*
X120885241Y-87714637D01*
X121120273Y-87871680D01*
X121381426Y-87979853D01*
X121658665Y-88035000D01*
X121941335Y-88035000D01*
X122218574Y-87979853D01*
X122479727Y-87871680D01*
X122714759Y-87714637D01*
X122914637Y-87514759D01*
X123071680Y-87279727D01*
X123179853Y-87018574D01*
X123235000Y-86741335D01*
X123235000Y-86458665D01*
X123179853Y-86181426D01*
X123071680Y-85920273D01*
X122914637Y-85685241D01*
X122714759Y-85485363D01*
X122514131Y-85351308D01*
X122541514Y-85336671D01*
X122613097Y-85092702D01*
X121800000Y-84279605D01*
X120986903Y-85092702D01*
X121058486Y-85336671D01*
X121087341Y-85350324D01*
X120885241Y-85485363D01*
X120685363Y-85685241D01*
X120528320Y-85920273D01*
X120420147Y-86181426D01*
X120365000Y-86458665D01*
X106196446Y-86458665D01*
X106232182Y-86391808D01*
X106314236Y-86121309D01*
X106341943Y-85840000D01*
X106314236Y-85558691D01*
X106232182Y-85288192D01*
X106098932Y-85038899D01*
X105919608Y-84820392D01*
X105701101Y-84641068D01*
X105451808Y-84507818D01*
X105181309Y-84425764D01*
X104970492Y-84405000D01*
X104829508Y-84405000D01*
X104618691Y-84425764D01*
X104348192Y-84507818D01*
X104098899Y-84641068D01*
X103880392Y-84820392D01*
X103701068Y-85038899D01*
X103567818Y-85288192D01*
X103485764Y-85558691D01*
X103458057Y-85840000D01*
X99085000Y-85840000D01*
X99085000Y-82860000D01*
X108898299Y-82860000D01*
X108925040Y-83131507D01*
X109004236Y-83392581D01*
X109132843Y-83633188D01*
X109305919Y-83844081D01*
X109516812Y-84017157D01*
X109757419Y-84145764D01*
X110018493Y-84224960D01*
X110221963Y-84245000D01*
X110758037Y-84245000D01*
X110961507Y-84224960D01*
X111222581Y-84145764D01*
X111463188Y-84017157D01*
X111674081Y-83844081D01*
X111847157Y-83633188D01*
X111975764Y-83392581D01*
X112033823Y-83201185D01*
X116567682Y-83201185D01*
X116577061Y-83255084D01*
X116679750Y-83507536D01*
X116829717Y-83735104D01*
X117021199Y-83929042D01*
X117246837Y-84081897D01*
X117497960Y-84187795D01*
X117764917Y-84242667D01*
X117983000Y-84089590D01*
X117983000Y-82987000D01*
X118237000Y-82987000D01*
X118237000Y-84089590D01*
X118455083Y-84242667D01*
X118722040Y-84187795D01*
X118763024Y-84170512D01*
X120359783Y-84170512D01*
X120401213Y-84450130D01*
X120496397Y-84716292D01*
X120563329Y-84841514D01*
X120807298Y-84913097D01*
X121620395Y-84100000D01*
X120807298Y-83286903D01*
X120563329Y-83358486D01*
X120442429Y-83613996D01*
X120373700Y-83888184D01*
X120359783Y-84170512D01*
X118763024Y-84170512D01*
X118973163Y-84081897D01*
X119198801Y-83929042D01*
X119390283Y-83735104D01*
X119540250Y-83507536D01*
X119642939Y-83255084D01*
X119652318Y-83201185D01*
X119529656Y-82987000D01*
X118237000Y-82987000D01*
X117983000Y-82987000D01*
X116690344Y-82987000D01*
X116567682Y-83201185D01*
X112033823Y-83201185D01*
X112054960Y-83131507D01*
X112081701Y-82860000D01*
X112054960Y-82588493D01*
X111975764Y-82327419D01*
X111847157Y-82086812D01*
X111674081Y-81875919D01*
X111463188Y-81702843D01*
X111222581Y-81574236D01*
X110961507Y-81495040D01*
X110758037Y-81475000D01*
X110221963Y-81475000D01*
X110018493Y-81495040D01*
X109757419Y-81574236D01*
X109516812Y-81702843D01*
X109305919Y-81875919D01*
X109132843Y-82086812D01*
X109004236Y-82327419D01*
X108925040Y-82588493D01*
X108898299Y-82860000D01*
X99085000Y-82860000D01*
X99085000Y-80070000D01*
X102411928Y-80070000D01*
X102424188Y-80194482D01*
X102460498Y-80314180D01*
X102519463Y-80424494D01*
X102598815Y-80521185D01*
X102695506Y-80600537D01*
X102805820Y-80659502D01*
X102925518Y-80695812D01*
X103050000Y-80708072D01*
X103514250Y-80705000D01*
X103673000Y-80546250D01*
X103673000Y-79447000D01*
X102573750Y-79447000D01*
X102415000Y-79605750D01*
X102411928Y-80070000D01*
X99085000Y-80070000D01*
X99085000Y-78570000D01*
X102411928Y-78570000D01*
X102415000Y-79034250D01*
X102573750Y-79193000D01*
X103673000Y-79193000D01*
X103673000Y-79173000D01*
X103927000Y-79173000D01*
X103927000Y-79193000D01*
X103947000Y-79193000D01*
X103947000Y-79447000D01*
X103927000Y-79447000D01*
X103927000Y-80546250D01*
X104085750Y-80705000D01*
X104550000Y-80708072D01*
X104674482Y-80695812D01*
X104794180Y-80659502D01*
X104904494Y-80600537D01*
X105001185Y-80521185D01*
X105080537Y-80424494D01*
X105139502Y-80314180D01*
X105175812Y-80194482D01*
X105186445Y-80086517D01*
X105264201Y-80202886D01*
X105457114Y-80395799D01*
X105683957Y-80547371D01*
X105936011Y-80651775D01*
X106203589Y-80705000D01*
X106476411Y-80705000D01*
X106743989Y-80651775D01*
X106996043Y-80547371D01*
X107222886Y-80395799D01*
X107415799Y-80202886D01*
X107567371Y-79976043D01*
X107671775Y-79723989D01*
X107682514Y-79670000D01*
X109395199Y-79670000D01*
X111236200Y-81511002D01*
X111259999Y-81540001D01*
X111375724Y-81634974D01*
X111507753Y-81705546D01*
X111651014Y-81749003D01*
X111762667Y-81760000D01*
X111762676Y-81760000D01*
X111799999Y-81763676D01*
X111837322Y-81760000D01*
X117066898Y-81760000D01*
X117021199Y-81790958D01*
X116829717Y-81984896D01*
X116679750Y-82212464D01*
X116577061Y-82464916D01*
X116567682Y-82518815D01*
X116690344Y-82733000D01*
X117983000Y-82733000D01*
X117983000Y-82713000D01*
X118237000Y-82713000D01*
X118237000Y-82733000D01*
X119529656Y-82733000D01*
X119652318Y-82518815D01*
X119642939Y-82464916D01*
X119540250Y-82212464D01*
X119390283Y-81984896D01*
X119198801Y-81790958D01*
X119153102Y-81760000D01*
X122196289Y-81760000D01*
X122240226Y-81803937D01*
X122321331Y-81858130D01*
X122304774Y-81898102D01*
X122265000Y-82098061D01*
X122265000Y-82301939D01*
X122304774Y-82501898D01*
X122382795Y-82690256D01*
X122478523Y-82833523D01*
X122286004Y-82742429D01*
X122011816Y-82673700D01*
X121729488Y-82659783D01*
X121449870Y-82701213D01*
X121183708Y-82796397D01*
X121058486Y-82863329D01*
X120986903Y-83107298D01*
X121800000Y-83920395D01*
X121814143Y-83906253D01*
X121993748Y-84085858D01*
X121979605Y-84100000D01*
X122792702Y-84913097D01*
X123036671Y-84841514D01*
X123157571Y-84586004D01*
X123226300Y-84311816D01*
X123240217Y-84029488D01*
X123198787Y-83749870D01*
X123192888Y-83733374D01*
X125170516Y-85711003D01*
X125194314Y-85740001D01*
X125310039Y-85834974D01*
X125442068Y-85905546D01*
X125585329Y-85949003D01*
X125696982Y-85960000D01*
X125696991Y-85960000D01*
X125734314Y-85963676D01*
X125771637Y-85960000D01*
X135162678Y-85960000D01*
X135200000Y-85963676D01*
X135237322Y-85960000D01*
X135237333Y-85960000D01*
X135348986Y-85949003D01*
X135492247Y-85905546D01*
X135624276Y-85834974D01*
X135740001Y-85740001D01*
X135763804Y-85710997D01*
X139714802Y-81760000D01*
X140396289Y-81760000D01*
X140440226Y-81803937D01*
X140609744Y-81917205D01*
X140798102Y-81995226D01*
X140998061Y-82035000D01*
X141201939Y-82035000D01*
X141401898Y-81995226D01*
X141590256Y-81917205D01*
X141759774Y-81803937D01*
X141903937Y-81659774D01*
X142017205Y-81490256D01*
X142095226Y-81301898D01*
X142135000Y-81101939D01*
X142135000Y-80898061D01*
X142095226Y-80698102D01*
X142017205Y-80509744D01*
X141903937Y-80340226D01*
X141759774Y-80196063D01*
X141590256Y-80082795D01*
X141401898Y-80004774D01*
X141201939Y-79965000D01*
X140998061Y-79965000D01*
X140798102Y-80004774D01*
X140609744Y-80082795D01*
X140440226Y-80196063D01*
X140396289Y-80240000D01*
X139437323Y-80240000D01*
X139400000Y-80236324D01*
X139362677Y-80240000D01*
X139362667Y-80240000D01*
X139251014Y-80250997D01*
X139107753Y-80294454D01*
X138975723Y-80365026D01*
X138903262Y-80424494D01*
X138859999Y-80459999D01*
X138836201Y-80488997D01*
X136933696Y-82391503D01*
X136895226Y-82198102D01*
X136817205Y-82009744D01*
X136703937Y-81840226D01*
X136559774Y-81696063D01*
X136390256Y-81582795D01*
X136201898Y-81504774D01*
X136001939Y-81465000D01*
X135939802Y-81465000D01*
X134963804Y-80489003D01*
X134940001Y-80459999D01*
X134824276Y-80365026D01*
X134692247Y-80294454D01*
X134548986Y-80250997D01*
X134437333Y-80240000D01*
X134437322Y-80240000D01*
X134400000Y-80236324D01*
X134362678Y-80240000D01*
X125349117Y-80240000D01*
X124541271Y-79432155D01*
X124595226Y-79301898D01*
X124635000Y-79101939D01*
X124635000Y-78898061D01*
X124595226Y-78698102D01*
X124517205Y-78509744D01*
X124403937Y-78340226D01*
X124259774Y-78196063D01*
X124090256Y-78082795D01*
X123901898Y-78004774D01*
X123701939Y-77965000D01*
X123498061Y-77965000D01*
X123298102Y-78004774D01*
X123109744Y-78082795D01*
X122940226Y-78196063D01*
X122796063Y-78340226D01*
X122682795Y-78509744D01*
X122604774Y-78698102D01*
X122565000Y-78898061D01*
X122565000Y-79101939D01*
X122604774Y-79301898D01*
X122682795Y-79490256D01*
X122796063Y-79659774D01*
X122851013Y-79714724D01*
X122894454Y-79857932D01*
X122895439Y-79859774D01*
X122951684Y-79965000D01*
X122798061Y-79965000D01*
X122598102Y-80004774D01*
X122409744Y-80082795D01*
X122240226Y-80196063D01*
X122196289Y-80240000D01*
X113223711Y-80240000D01*
X113303937Y-80159774D01*
X113417205Y-79990256D01*
X113495226Y-79801898D01*
X113535000Y-79601939D01*
X113535000Y-79398061D01*
X113495226Y-79198102D01*
X113417205Y-79009744D01*
X113303937Y-78840226D01*
X113159774Y-78696063D01*
X112990256Y-78582795D01*
X112801898Y-78504774D01*
X112601939Y-78465000D01*
X112539803Y-78465000D01*
X111016773Y-76941971D01*
X116102723Y-76941971D01*
X116117207Y-77014598D01*
X116223700Y-77266647D01*
X116377319Y-77493077D01*
X116572161Y-77685186D01*
X116800738Y-77835592D01*
X117054265Y-77938515D01*
X117323000Y-77990000D01*
X118073000Y-77990000D01*
X118073000Y-76727000D01*
X118327000Y-76727000D01*
X118327000Y-77990000D01*
X119077000Y-77990000D01*
X119345735Y-77938515D01*
X119599262Y-77835592D01*
X119827839Y-77685186D01*
X120022681Y-77493077D01*
X120176300Y-77266647D01*
X120282793Y-77014598D01*
X120297277Y-76941971D01*
X120174683Y-76727000D01*
X118327000Y-76727000D01*
X118073000Y-76727000D01*
X116225317Y-76727000D01*
X116102723Y-76941971D01*
X111016773Y-76941971D01*
X109933804Y-75859003D01*
X109910001Y-75829999D01*
X109794276Y-75735026D01*
X109662247Y-75664454D01*
X109518986Y-75620997D01*
X109407333Y-75610000D01*
X109407322Y-75610000D01*
X109370000Y-75606324D01*
X109332678Y-75610000D01*
X107081905Y-75610000D01*
X106996043Y-75552629D01*
X106893127Y-75510000D01*
X106996043Y-75467371D01*
X107222886Y-75315799D01*
X107415799Y-75122886D01*
X107567371Y-74896043D01*
X107671775Y-74643989D01*
X107725000Y-74376411D01*
X107725000Y-74103589D01*
X107671775Y-73836011D01*
X107567371Y-73583957D01*
X107415799Y-73357114D01*
X107222886Y-73164201D01*
X106996043Y-73012629D01*
X106893127Y-72970000D01*
X106996043Y-72927371D01*
X107222886Y-72775799D01*
X107415799Y-72582886D01*
X107567371Y-72356043D01*
X107671775Y-72103989D01*
X107725000Y-71836411D01*
X107725000Y-71563589D01*
X107716330Y-71520000D01*
X116053275Y-71520000D01*
X116080113Y-71792488D01*
X116159594Y-72054504D01*
X116288666Y-72295979D01*
X116462366Y-72507634D01*
X116674021Y-72681334D01*
X116877319Y-72790000D01*
X116674021Y-72898666D01*
X116462366Y-73072366D01*
X116288666Y-73284021D01*
X116159594Y-73525496D01*
X116080113Y-73787512D01*
X116053275Y-74060000D01*
X116080113Y-74332488D01*
X116159594Y-74594504D01*
X116288666Y-74835979D01*
X116462366Y-75047634D01*
X116674021Y-75221334D01*
X116880848Y-75331886D01*
X116800738Y-75364408D01*
X116572161Y-75514814D01*
X116377319Y-75706923D01*
X116223700Y-75933353D01*
X116117207Y-76185402D01*
X116102723Y-76258029D01*
X116225317Y-76473000D01*
X118073000Y-76473000D01*
X118073000Y-76453000D01*
X118327000Y-76453000D01*
X118327000Y-76473000D01*
X120174683Y-76473000D01*
X120297277Y-76258029D01*
X120282793Y-76185402D01*
X120176300Y-75933353D01*
X120022681Y-75706923D01*
X119827839Y-75514814D01*
X119599262Y-75364408D01*
X119519152Y-75331886D01*
X119725979Y-75221334D01*
X119937634Y-75047634D01*
X120111334Y-74835979D01*
X120119875Y-74820000D01*
X120945199Y-74820000D01*
X125836201Y-79711003D01*
X125859999Y-79740001D01*
X125975724Y-79834974D01*
X126107753Y-79905546D01*
X126251014Y-79949003D01*
X126362667Y-79960000D01*
X126362675Y-79960000D01*
X126400000Y-79963676D01*
X126437325Y-79960000D01*
X131496289Y-79960000D01*
X131540226Y-80003937D01*
X131709744Y-80117205D01*
X131898102Y-80195226D01*
X132098061Y-80235000D01*
X132301939Y-80235000D01*
X132501898Y-80195226D01*
X132690256Y-80117205D01*
X132859774Y-80003937D01*
X133003937Y-79859774D01*
X133117205Y-79690256D01*
X133195226Y-79501898D01*
X133235000Y-79301939D01*
X133235000Y-79098061D01*
X133195226Y-78898102D01*
X133117205Y-78709744D01*
X133003937Y-78540226D01*
X132859774Y-78396063D01*
X132690256Y-78282795D01*
X132501898Y-78204774D01*
X132301939Y-78165000D01*
X132098061Y-78165000D01*
X131898102Y-78204774D01*
X131709744Y-78282795D01*
X131540226Y-78396063D01*
X131496289Y-78440000D01*
X126714802Y-78440000D01*
X125591305Y-77316504D01*
X125759774Y-77203937D01*
X125903937Y-77059774D01*
X126017205Y-76890256D01*
X126095226Y-76701898D01*
X126135000Y-76501939D01*
X126135000Y-76298061D01*
X126095226Y-76098102D01*
X126017205Y-75909744D01*
X125903937Y-75740226D01*
X125759774Y-75596063D01*
X125590256Y-75482795D01*
X125401898Y-75404774D01*
X125201939Y-75365000D01*
X125139801Y-75365000D01*
X124960000Y-75185199D01*
X124960000Y-73071637D01*
X124963676Y-73034314D01*
X124960000Y-72996991D01*
X124960000Y-72996982D01*
X124949003Y-72885329D01*
X124905546Y-72742068D01*
X124834974Y-72610039D01*
X124740001Y-72494314D01*
X124711004Y-72470517D01*
X120929489Y-68689003D01*
X120905686Y-68659999D01*
X120789961Y-68565026D01*
X120657932Y-68494454D01*
X120514724Y-68451013D01*
X120459774Y-68396063D01*
X120290256Y-68282795D01*
X120101898Y-68204774D01*
X119901939Y-68165000D01*
X119698061Y-68165000D01*
X119498102Y-68204774D01*
X119309744Y-68282795D01*
X119140226Y-68396063D01*
X118996063Y-68540226D01*
X118882795Y-68709744D01*
X118804774Y-68898102D01*
X118765000Y-69098061D01*
X118765000Y-69301939D01*
X118804774Y-69501898D01*
X118882795Y-69690256D01*
X118996063Y-69859774D01*
X119140226Y-70003937D01*
X119309744Y-70117205D01*
X119498102Y-70195226D01*
X119698061Y-70235000D01*
X119901939Y-70235000D01*
X120101898Y-70195226D01*
X120232155Y-70141271D01*
X123440000Y-73349117D01*
X123440001Y-75165200D01*
X121823804Y-73549003D01*
X121800001Y-73519999D01*
X121684276Y-73425026D01*
X121552247Y-73354454D01*
X121408986Y-73310997D01*
X121297333Y-73300000D01*
X121297322Y-73300000D01*
X121260000Y-73296324D01*
X121222678Y-73300000D01*
X120119875Y-73300000D01*
X120111334Y-73284021D01*
X119937634Y-73072366D01*
X119725979Y-72898666D01*
X119522681Y-72790000D01*
X119725979Y-72681334D01*
X119937634Y-72507634D01*
X120111334Y-72295979D01*
X120240406Y-72054504D01*
X120319887Y-71792488D01*
X120346725Y-71520000D01*
X120319887Y-71247512D01*
X120240406Y-70985496D01*
X120111334Y-70744021D01*
X119937634Y-70532366D01*
X119725979Y-70358666D01*
X119484504Y-70229594D01*
X119222488Y-70150113D01*
X119018279Y-70130000D01*
X117381721Y-70130000D01*
X117177512Y-70150113D01*
X116915496Y-70229594D01*
X116674021Y-70358666D01*
X116462366Y-70532366D01*
X116288666Y-70744021D01*
X116159594Y-70985496D01*
X116080113Y-71247512D01*
X116053275Y-71520000D01*
X107716330Y-71520000D01*
X107671775Y-71296011D01*
X107567371Y-71043957D01*
X107415799Y-70817114D01*
X107222886Y-70624201D01*
X106996043Y-70472629D01*
X106743989Y-70368225D01*
X106476411Y-70315000D01*
X106203589Y-70315000D01*
X105936011Y-70368225D01*
X105683957Y-70472629D01*
X105457114Y-70624201D01*
X105264201Y-70817114D01*
X105112629Y-71043957D01*
X105070000Y-71146873D01*
X105027371Y-71043957D01*
X104875799Y-70817114D01*
X104682886Y-70624201D01*
X104456043Y-70472629D01*
X104203989Y-70368225D01*
X103936411Y-70315000D01*
X103663589Y-70315000D01*
X103396011Y-70368225D01*
X103143957Y-70472629D01*
X102917114Y-70624201D01*
X102724201Y-70817114D01*
X102572629Y-71043957D01*
X102468225Y-71296011D01*
X102415000Y-71563589D01*
X102415000Y-71836411D01*
X102468225Y-72103989D01*
X102572629Y-72356043D01*
X102724201Y-72582886D01*
X102917114Y-72775799D01*
X103143957Y-72927371D01*
X103246873Y-72970000D01*
X103143957Y-73012629D01*
X102917114Y-73164201D01*
X102724201Y-73357114D01*
X102572629Y-73583957D01*
X102468225Y-73836011D01*
X102415000Y-74103589D01*
X102415000Y-74376411D01*
X102468225Y-74643989D01*
X102572629Y-74896043D01*
X102724201Y-75122886D01*
X102917114Y-75315799D01*
X103143957Y-75467371D01*
X103246873Y-75510000D01*
X103143957Y-75552629D01*
X102917114Y-75704201D01*
X102724201Y-75897114D01*
X102572629Y-76123957D01*
X102468225Y-76376011D01*
X102415000Y-76643589D01*
X102415000Y-76916411D01*
X102468225Y-77183989D01*
X102572629Y-77436043D01*
X102724201Y-77662886D01*
X102917114Y-77855799D01*
X103033483Y-77933555D01*
X102925518Y-77944188D01*
X102805820Y-77980498D01*
X102695506Y-78039463D01*
X102598815Y-78118815D01*
X102519463Y-78215506D01*
X102460498Y-78325820D01*
X102424188Y-78445518D01*
X102411928Y-78570000D01*
X99085000Y-78570000D01*
X99085000Y-67576349D01*
X100103256Y-67576349D01*
X100307362Y-67932867D01*
X100750223Y-68163575D01*
X101229583Y-68303452D01*
X101727021Y-68347123D01*
X102223422Y-68292909D01*
X102699707Y-68142894D01*
X103092638Y-67932867D01*
X103296744Y-67576349D01*
X101700000Y-65979605D01*
X100103256Y-67576349D01*
X99085000Y-67576349D01*
X99085000Y-65827021D01*
X99152877Y-65827021D01*
X99207091Y-66323422D01*
X99357106Y-66799707D01*
X99567133Y-67192638D01*
X99923651Y-67396744D01*
X101520395Y-65800000D01*
X101879605Y-65800000D01*
X103476349Y-67396744D01*
X103832867Y-67192638D01*
X104063575Y-66749777D01*
X104203452Y-66270417D01*
X104247123Y-65772979D01*
X104192909Y-65276578D01*
X104042894Y-64800293D01*
X103832867Y-64407362D01*
X103476349Y-64203256D01*
X101879605Y-65800000D01*
X101520395Y-65800000D01*
X99923651Y-64203256D01*
X99567133Y-64407362D01*
X99336425Y-64850223D01*
X99196548Y-65329583D01*
X99152877Y-65827021D01*
X99085000Y-65827021D01*
X99085000Y-63386047D01*
X100917004Y-63388849D01*
G36*
X124470515Y-81511002D02*
G01*
X124494314Y-81540001D01*
X124610039Y-81634974D01*
X124742068Y-81705546D01*
X124885329Y-81749003D01*
X124996982Y-81760000D01*
X124996990Y-81760000D01*
X125034315Y-81763676D01*
X125071640Y-81760000D01*
X134085199Y-81760000D01*
X134865000Y-82539802D01*
X134865000Y-82601939D01*
X134904774Y-82801898D01*
X134982795Y-82990256D01*
X135096063Y-83159774D01*
X135240226Y-83303937D01*
X135409744Y-83417205D01*
X135598102Y-83495226D01*
X135791503Y-83533696D01*
X134885199Y-84440000D01*
X126049117Y-84440000D01*
X124241271Y-82632155D01*
X124295226Y-82501898D01*
X124335000Y-82301939D01*
X124335000Y-82098061D01*
X124295226Y-81898102D01*
X124217205Y-81709744D01*
X124103937Y-81540226D01*
X123959774Y-81396063D01*
X123878669Y-81341870D01*
X123895226Y-81301898D01*
X123935000Y-81101939D01*
X123935000Y-80975487D01*
X124470515Y-81511002D01*
X124470515Y-81511002D01*
G37*
X124470515Y-81511002D02*
X124494314Y-81540001D01*
X124610039Y-81634974D01*
X124742068Y-81705546D01*
X124885329Y-81749003D01*
X124996982Y-81760000D01*
X124996990Y-81760000D01*
X125034315Y-81763676D01*
X125071640Y-81760000D01*
X134085199Y-81760000D01*
X134865000Y-82539802D01*
X134865000Y-82601939D01*
X134904774Y-82801898D01*
X134982795Y-82990256D01*
X135096063Y-83159774D01*
X135240226Y-83303937D01*
X135409744Y-83417205D01*
X135598102Y-83495226D01*
X135791503Y-83533696D01*
X134885199Y-84440000D01*
X126049117Y-84440000D01*
X124241271Y-82632155D01*
X124295226Y-82501898D01*
X124335000Y-82301939D01*
X124335000Y-82098061D01*
X124295226Y-81898102D01*
X124217205Y-81709744D01*
X124103937Y-81540226D01*
X123959774Y-81396063D01*
X123878669Y-81341870D01*
X123895226Y-81301898D01*
X123935000Y-81101939D01*
X123935000Y-80975487D01*
X124470515Y-81511002D01*
M02*
